<?xml version="1.0" encoding="UTF-8"?><svg id="Capa_1" xmlns="http://www.w3.org/2000/svg" viewBox="0 0 206.32 206.31"><defs><style>.cls-1{fill:#fff;stroke-width:0px;}</style></defs><path class="cls-1" d="M14,206.31c-3.58,0-7.17-1.37-9.9-4.1-5.47-5.47-5.47-14.33,0-19.8L182.41,4.1c5.47-5.47,14.33-5.47,19.8,0s5.47,14.33,0,19.8L23.9,202.21c-2.73,2.73-6.32,4.1-9.9,4.1h0Z"/><path class="cls-1" d="M192.31,206.31c-3.58,0-7.17-1.37-9.9-4.1L4.1,23.9C-1.37,18.43-1.37,9.57,4.1,4.1c5.47-5.47,14.33-5.47,19.8,0l178.31,178.31c5.47,5.47,5.47,14.33,0,19.8-2.73,2.73-6.32,4.1-9.9,4.1h0Z"/></svg>