<?xml version="1.0" encoding="UTF-8"?>
<svg id="Capa_1" data-name="Capa 1" xmlns="http://www.w3.org/2000/svg" viewBox="0 0 10 10">
  <defs>
    <style>
      .cls-1 {
        fill: #fff;
      }

      .cls-2 {
        fill: #0080ff;
      }
    </style>
  </defs>
  <path class="cls-2" d="M10,5C10,2.24,7.76,0,5,0S0,2.24,0,5c0,2.5,1.83,4.56,4.22,4.94v-3.49h-1.27v-1.45h1.27v-1.1c0-1.25,.75-1.95,1.89-1.95,.55,0,1.12,.1,1.12,.1v1.23h-.63c-.62,0-.81,.39-.81,.78v.94h1.39l-.22,1.45h-1.17v3.49c2.39-.38,4.22-2.44,4.22-4.94Z"/>
  <path class="cls-1" d="M6.95,6.45l.22-1.45h-1.39v-.94c0-.4,.19-.78,.81-.78h.63v-1.23s-.57-.1-1.12-.1c-1.14,0-1.89,.69-1.89,1.95v1.1h-1.27v1.45h1.27v3.49c.25,.04,.52,.06,.78,.06s.53-.02,.78-.06v-3.49h1.17Z"/>
</svg>