<?xml version="1.0" encoding="UTF-8"?><svg id="Capa_1" xmlns="http://www.w3.org/2000/svg" viewBox="0 0 208.27 206.31"><defs><style>.cls-1{fill:#fff;stroke-width:0px;}</style></defs><path class="cls-1" d="M197.86,28H10.41C4.66,28,0,21.73,0,14S4.66,0,10.41,0h187.45c5.75,0,10.41,6.27,10.41,14s-4.66,14-10.41,14Z"/><path class="cls-1" d="M197.86,117.15H40.34c-5.75,0-10.41-6.27-10.41-14s4.66-14,10.41-14h157.52c5.75,0,10.41,6.27,10.41,14s-4.66,14-10.41,14Z"/><path class="cls-1" d="M197.86,206.31h-121.84c-5.75,0-10.41-6.27-10.41-14s4.66-14,10.41-14h121.84c5.75,0,10.41,6.27,10.41,14s-4.66,14-10.41,14Z"/></svg>