<?xml version="1.0" encoding="UTF-8"?>
<svg id="Capa_1" data-name="Capa 1" xmlns="http://www.w3.org/2000/svg" xmlns:xlink="http://www.w3.org/1999/xlink" viewBox="0 0 10 10">
  <defs>
    <style>
      .cls-1 {
        fill: #fff;
      }

      .cls-2 {
        fill: url(#linear-gradient);
      }
    </style>
    <linearGradient id="linear-gradient" x1=".32" y1="1.04" x2="10.31" y2="9.49" gradientUnits="userSpaceOnUse">
      <stop offset="0" stop-color="#ffe185"/>
      <stop offset=".21" stop-color="#ffbb36"/>
      <stop offset=".38" stop-color="#ff5176"/>
      <stop offset=".52" stop-color="#f63395"/>
      <stop offset=".74" stop-color="#a436d2"/>
      <stop offset="1" stop-color="#5f4eed"/>
    </linearGradient>
  </defs>
  <circle class="cls-2" cx="5" cy="5" r="5"/>
  <g>
    <path class="cls-1" d="M6.55,3.11c-.19,0-.34,.15-.34,.34s.15,.34,.34,.34,.34-.15,.34-.34-.15-.34-.34-.34Z"/>
    <path class="cls-1" d="M5.02,3.55c-.8,0-1.44,.65-1.44,1.44s.65,1.44,1.44,1.44,1.44-.65,1.44-1.44-.65-1.44-1.44-1.44Zm0,2.37c-.51,0-.92-.41-.92-.92s.41-.92,.92-.92,.92,.41,.92,.92-.41,.92-.92,.92Z"/>
    <path class="cls-1" d="M6.17,7.92H3.83c-.97,0-1.76-.79-1.76-1.76V3.82c0-.97,.79-1.76,1.76-1.76h2.34c.97,0,1.76,.79,1.76,1.76v2.34c0,.97-.79,1.76-1.76,1.76ZM3.83,2.61c-.67,0-1.21,.54-1.21,1.21v2.34c0,.67,.54,1.21,1.21,1.21h2.34c.67,0,1.21-.54,1.21-1.21V3.82c0-.67-.54-1.21-1.21-1.21H3.83Z"/>
  </g>
</svg>