<?xml version="1.0" encoding="UTF-8"?>
<svg id="Capa_1" data-name="Capa 1" xmlns="http://www.w3.org/2000/svg" viewBox="0 0 158.98 42.37">
  <defs>
    <style>
      .cls-1 {
        fill: #fff;
      }

      .cls-2 {
        fill: none;
        stroke: #fff;
        stroke-miterlimit: 10;
        stroke-width: .31px;
      }
    </style>
  </defs>
  <g>
    <path class="cls-1" d="M38.69,26.65s5.14-5.13-1.5-11.77c0,0,1.12,4.35-2.14,7.61l-10.78,10.78c-.8,.8-1.41,1.77-1.74,2.85-.43,1.41-.49,3.29,1.09,5.06,.14,.15,.38,.16,.53,0l14.54-14.54h0Z"/>
    <path class="cls-1" d="M1.9,15.7s-5.14,5.13,1.5,11.77c0,0-1.12-4.35,2.14-7.61l10.78-10.78c.8-.8,1.41-1.77,1.74-2.85,.43-1.41,.49-3.29-1.09-5.06-.14-.15-.38-.16-.53,0L1.9,15.7Z"/>
    <path class="cls-1" d="M34.41,19.58s4.04-4.04-2.6-10.67c0,0,1.47,4-1.09,6.57l-8.47,8.47c-.63,.63-1.07,1.43-1.25,2.36-.24,1.22-.09,2.89,1.52,4.64,.14,.15,.36,.18,.47,.07l11.43-11.43h0Z"/>
    <path class="cls-1" d="M31.82,8.91L22.98,.07c-.12-.12-.33-.08-.47,.07-1.6,1.75-1.75,3.42-1.52,4.64,.18,.93,.63,1.73,1.25,2.36l8.4,8.4,.07-.07c2.55-2.55,1.1-6.54,1.09-6.56h.02Z"/>
    <path class="cls-1" d="M17.77,11.37L6.34,22.8s-4.04,4.04,2.6,10.67h0l8.83,8.83c.12,.12,.33,.08,.47-.07,1.6-1.75,1.75-3.42,1.52-4.64-.18-.93-.63-1.73-1.25-2.36l-8.4-8.4h0l8.41-8.41c.63-.63,1.07-1.43,1.25-2.36,.24-1.22,.09-2.89-1.52-4.64-.14-.15-.36-.18-.47-.07v.02h-.01Z"/>
  </g>
  <g>
    <path class="cls-1" d="M63.97,1.89l-.07,3.6-.07,5.73,.02,4.18,.07,8.86,1.24,.02,7.35-.12,1.34-.02c.68,0,1.01,.2,1.01,.61,0,.36-.18,.56-.55,.59-.08,.01-.34,.02-.79,.04h-20.14l.05-6.54,.03-4.01,.03-4.54-.07-6.92,.02-1.48h10.52Z"/>
    <path class="cls-1" d="M85.87,1.89l-.07,8.91-.03,9.36,.05,4.77c.58,.05,1.1,.07,1.53,.07,4.03,0,6.72-.93,8.09-2.8,.7-.96,1.16-2.33,1.38-4.1,.22-1.77,.34-4.99,.34-9.66l-.04-4.56-.06-1.41c0-.6,.24-.9,.73-.9,.43,0,.65,.29,.65,.86,0,.33-.02,.79-.05,1.36l-.14,6.87c-.05,2.89-.1,4.86-.15,5.89-.06,1.04-.17,2.01-.34,2.92-.36,1.87-1.18,3.36-2.46,4.47-1.64,1.43-4.45,2.15-8.43,2.15-3.49,0-6.12-.47-7.9-1.41-1.4-.72-2.39-1.95-2.98-3.67-.26-.79-.42-1.61-.46-2.44-.05-.84-.07-3.39-.09-7.66l-.07-9.02h10.52Z"/>
    <path class="cls-1" d="M122.95,13.33v-2.88l-.03-4.56-.02-2.08-.02-1.31c0-.62,.21-.93,.64-.93,.25,0,.43,.07,.52,.21,.1,.14,.15,.42,.15,.82v.24c-.01,.24-.02,.64-.02,1.19l-.07,5.8-.05,5.32,.04,5.59,.06,5.61c-2.36-1.48-5.82-3.53-10.38-6.14-4.56-2.61-8.24-4.66-11.07-6.16l.02,.84,.17,8.88,.02,1.19c0,.49-.23,.74-.69,.74s-.71-.3-.71-.91l.02-1.21,.02-1.94,.07-8.83-.14-11.89c4.65,2.88,11.8,7.02,21.46,12.4Z"/>
    <path class="cls-1" d="M139.44,1.18c1.81,0,3.56,.38,5.25,1.15,2.48,1.14,4.37,2.89,5.68,5.25,1.04,1.89,1.57,3.95,1.57,6.18,0,1.79-.4,3.52-1.19,5.2-1.18,2.5-3.02,4.4-5.52,5.7-1.84,.95-3.76,1.43-5.78,1.43-2.13,0-4.15-.54-6.06-1.62-2.54-1.42-4.34-3.42-5.42-5.99-.67-1.57-1-3.2-1-4.87,0-2.1,.52-4.1,1.57-6.01,1.29-2.34,3.16-4.09,5.63-5.25,1.64-.77,3.4-1.16,5.28-1.17Zm-1.36,1.15l-.1,11.2,.09,9.31,.02,2.1c.39,.07,.76,.1,1.12,.1,2.54,0,4.8-.7,6.8-2.1,1.82-1.29,3.14-2.94,3.96-4.96,.57-1.41,.86-2.87,.86-4.39,0-2-.48-3.85-1.45-5.58-1.18-2.11-2.85-3.67-4.99-4.66-1.61-.76-3.3-1.14-5.08-1.14-.41,0-.82,.03-1.22,.1Z"/>
  </g>
  <g>
    <path class="cls-1" d="M71.89,34.76h2.59c.68,0,1.28,.14,1.81,.42,.53,.28,.94,.67,1.23,1.16,.29,.49,.44,1.06,.44,1.69s-.15,1.19-.44,1.69c-.29,.49-.7,.88-1.23,1.16-.53,.28-1.13,.42-1.81,.42h-2.59v-6.54Zm2.55,6.11c.6,0,1.14-.12,1.6-.36,.46-.24,.82-.57,1.07-1,.25-.43,.38-.92,.38-1.48s-.12-1.05-.38-1.48c-.25-.43-.6-.76-1.07-1-.46-.24-.99-.36-1.6-.36h-2.08v5.68h2.08Z"/>
    <path class="cls-1" d="M81.48,34.76h.48v6.54h-.48v-6.54Z"/>
    <path class="cls-1" d="M90.78,38.06h.46v2.45c-.29,.27-.63,.48-1.04,.63-.41,.14-.84,.21-1.29,.21-.65,0-1.23-.14-1.75-.43-.52-.29-.93-.68-1.22-1.19-.3-.51-.44-1.07-.44-1.7s.15-1.2,.44-1.7c.3-.51,.7-.9,1.22-1.19s1.11-.43,1.76-.43c.48,0,.92,.08,1.32,.23,.4,.15,.75,.38,1.03,.67l-.3,.32c-.27-.28-.58-.47-.92-.59s-.71-.18-1.13-.18c-.56,0-1.07,.12-1.52,.37-.45,.25-.8,.59-1.06,1.03s-.38,.93-.38,1.47,.13,1.02,.39,1.46,.61,.79,1.06,1.04c.45,.25,.95,.38,1.51,.38,.75,0,1.37-.2,1.86-.6v-2.25Z"/>
    <path class="cls-1" d="M95.21,34.76h.48v6.54h-.48v-6.54Z"/>
    <path class="cls-1" d="M101.08,35.19h-2.36v-.43h5.19v.43h-2.36v6.11h-.48v-6.11Z"/>
    <path class="cls-1" d="M110.68,39.46h-3.79l-.83,1.84h-.51l3.01-6.54h.48l3.01,6.54h-.51l-.84-1.84Zm-.18-.4l-1.72-3.78-1.71,3.78h3.43Z"/>
    <path class="cls-1" d="M115.1,34.76h.48v6.11h3.77v.43h-4.24v-6.54Z"/>
    <path class="cls-1" d="M126.95,40.87v.43h-4.51v-6.54h4.37v.43h-3.9v2.58h3.49v.42h-3.49v2.68h4.04Z"/>
    <path class="cls-1" d="M130.91,41.1c-.43-.17-.77-.38-1.01-.64l.21-.36c.23,.24,.54,.44,.93,.59,.39,.15,.8,.23,1.23,.23,.62,0,1.09-.12,1.41-.36,.32-.24,.48-.54,.48-.92,0-.29-.08-.53-.25-.7-.17-.18-.38-.31-.63-.4s-.59-.19-1.01-.29c-.48-.12-.86-.23-1.15-.35-.29-.11-.54-.29-.74-.52-.2-.23-.3-.55-.3-.94,0-.32,.08-.61,.25-.88,.17-.26,.43-.47,.77-.63,.35-.15,.78-.23,1.29-.23,.36,0,.72,.05,1.07,.16s.65,.25,.91,.43l-.18,.38c-.26-.18-.55-.32-.87-.41s-.62-.14-.93-.14c-.6,0-1.06,.12-1.37,.37-.31,.24-.47,.56-.47,.94,0,.29,.08,.53,.25,.7,.17,.17,.38,.31,.63,.4s.59,.19,1.02,.3c.48,.12,.86,.23,1.15,.35,.29,.11,.53,.28,.73,.51,.2,.23,.3,.53,.3,.92,0,.32-.09,.61-.26,.87-.17,.26-.43,.47-.79,.63s-.79,.23-1.31,.23c-.48,0-.94-.08-1.37-.25Z"/>
  </g>
  <line class="cls-2" x1="46.36" y1="38.04" x2="68.28" y2="38.04"/>
  <line class="cls-2" x1="137.06" y1="38.04" x2="158.98" y2="38.04"/>
</svg>