<?xml version="1.0" encoding="UTF-8"?><svg id="Capa_1" xmlns="http://www.w3.org/2000/svg" viewBox="0 0 686.24 132.65"><defs><style>.cls-1{opacity:.94;}.cls-2{fill:#95d0e8;stroke-width:0px;}</style></defs><g class="cls-1"><path class="cls-2" d="M86.33,127.74c-1.94-.19-3.67-.3-5.37-.55-4.15-.62-5.29-2.93-2.29-5.59,2.89-2.57,6.47-4.55,9.78-6.75.85-.56,1.86-.95,2.69-2.19-1.49-.13-2.98-.4-4.46-.35-9.66.29-19.2-.29-28.49-2.8-2.25-.61-4.5-1.29-6.61-2.19-4.96-2.12-6.23-4.59-4.8-11.31.61-2.87-.6-3.04-3.09-3.19-12.69-.79-25.37-1.67-38.05-2.52-.5-.03-1.06,0-1.47-.18-1.49-.68-3.98-1.29-4.14-2.2-.22-1.23,1.03-2.97,2.19-4.05,6.69-6.23,15.14-10.01,24.74-10.69,6.94-.49,11.33-4.36,16.69-7.01,1.33-.66,2.34-1.8,3.78-2.95-3.31-.98-6.36-1.72-9.26-2.78-3.82-1.4-4.02-2.88-.89-5.31,1.71-1.33,3.55-2.54,6.19-4.41-2.39-.42-3.84-.85-5.32-.9-4.37-.12-8.74.01-13.1-.18-1.32-.06-3.67-.82-3.69-1.3-.04-1.47.3-3.44,1.42-4.37,7-5.79,15.17-9.49,25.05-10.06,40.33-2.34,80.66-4.8,120.99-7.14,21.41-1.24,42.85-2.24,64.26-3.52,20.41-1.22,40.8-2.74,61.22-3.96,19.67-1.17,39.36-2.05,59.03-3.19,27.64-1.61,55.27-3.31,82.9-5.03,17.42-1.08,34.86-2.06,52.25-3.48,20.61-1.69,41.17-3.77,61.74-5.79,3.57-.35,7.06-1.42,10.63-1.78,1.64-.17,3.39.58,5.1.91-.71,1.77-.99,3.83-2.23,5.24-1.41,1.6-3.68,2.63-6.31,4.4,1.97.2,3,.38,4.04.41,25.88.61,51.62-1.37,77.38-3.05,10.43-.68,20.9-1.04,31.36-1.44,2.09-.08,4.21.24,6.3.52,3,.41,4.08,2.33,2.39,4.58-1.11,1.47-2.53,3.02-4.25,3.84-4.75,2.28-9.67,4.34-14.65,6.21-2.94,1.11-6.2,1.56-9.17,2.63-.93.34-1.93,1.73-1.92,2.64.03,2.62-.78,4.45-3.48,5.96-3.06,1.71-2.75,3.9.67,4.99,2.87.92,6,1.52,9.06,1.68,5.35.28,10.73.07,16.1.16,1.6.03,3.32.09,4.76.61,1.03.38,2.15,1.48,2.34,2.4.15.7-.88,1.96-1.76,2.38-3.89,1.88-7.95,3.49-11.86,5.34-1.07.51-2.72,1.77-2.54,2.29.39,1.17,1.54,2.64,2.77,3,3.39,1,6.95,1.72,10.5,2.12,4.23.48,8.35.85,10.82,4.5-1.9,2.07-3.4,4.86-5.92,6.17-4.05,2.11-8.65,3.61-13.23,4.7-6.71,1.59-13.68,2.35-20.4,3.91-3.38.79-6.47,2.54-9.66,3.92-.47.21-1.05.76-1.06,1.17-.14,6.55-6.43,8.72-11.4,11.21-9.77,4.9-20.27,7.73-31.91,7.8-7.06.04-14.07,2.47-21.18,3.29-9.63,1.11-19.32,1.88-29,2.51-20.15,1.32-40.31,2.56-60.48,3.63-14.18.75-28.38,1.58-42.57,1.64-34.23.16-68.3,2.27-102.36,5.09-23.35,1.93-46.78,3.06-70.16,4.71-35.33,2.5-70.69,4.4-106.15,4.77-17.34.18-34.54,2.12-51.65,4.65-5.74.85-11.66.92-17.5,1.1-5.31.17-5.31.02-5.28-4.87Z"/></g></svg>