<?xml version="1.0" encoding="UTF-8"?>
<svg id="Capa_1" data-name="Capa 1" xmlns="http://www.w3.org/2000/svg" viewBox="0 0 134.76 38.84">
  <defs>
    <style>
      .cls-1 {
        fill: #feb3ee;
      }

      .cls-2 {
        fill: #f7d64b;
      }

      .cls-3 {
        fill: #fc86e0;
      }

      .cls-4 {
        fill: #161200;
      }
    </style>
  </defs>
  <path class="cls-2" d="M59.85,18.63l1,14.43c.1,1.41,1.23,2.53,2.65,2.6l62.59,3.18c1.26,.06,2.41-.73,2.8-1.93l5.73-17.66c.59-1.81-.76-3.66-2.66-3.66l-69.31,.05c-1.62,0-2.9,1.37-2.79,2.99h0Z"/>
  <path class="cls-1" d="M17.31,17.15l1.57,9.57c.15,.94,.98,1.61,1.93,1.57l41.98-1.79c.85-.04,1.56-.64,1.75-1.46l2.72-12.15c.28-1.24-.74-2.39-2-2.27L18.99,14.98c-1.08,.1-1.85,1.1-1.67,2.17h-.01Z"/>
  <g>
    <path class="cls-3" d="M9.93,1.59v3.17h-1.32V.31h1.72c.76,0,1.35,.17,1.78,.51,.51,.41,.76,.97,.76,1.67s-.22,1.22-.65,1.65c-.43,.43-.99,.64-1.68,.64-.08,0-.21,0-.39-.01v-1.31h.21c.77,0,1.16-.32,1.16-.97,0-.61-.38-.91-1.14-.91h-.45Z"/>
    <path class="cls-3" d="M16.62,.31V3.2c0,.51-.15,.91-.45,1.22s-.71,.46-1.21,.46-.89-.15-1.15-.44c-.27-.3-.4-.72-.4-1.27V.31h1.32V3.15c0,.27,.1,.41,.29,.41s.28-.14,.28-.41V.31h1.32Z"/>
    <path class="cls-3" d="M18.74,1.51v3.25h-1.32V.31h1.7c.52,0,.92,.13,1.2,.38,.32,.29,.48,.65,.48,1.09s-.2,.83-.59,1.14l.76,1.83h-1.39l-.64-1.43v-1.14h.1c.28,0,.42-.12,.42-.36,0-.21-.16-.32-.48-.32h-.24Z"/>
    <path class="cls-3" d="M23.03,2.53v1.17h-.38v1.06h-1.32V1.93c0-.55,.15-.97,.45-1.28,.3-.3,.72-.45,1.26-.45s.91,.14,1.16,.41c.25,.27,.38,.7,.38,1.27v2.87h-1.32V1.97c0-.17-.02-.29-.06-.36-.04-.07-.12-.1-.22-.1-.21,0-.31,.15-.31,.46v.55h.36Z"/>
    <path class="cls-3" d="M25.27,4.76V1.87c0-.51,.15-.91,.45-1.21,.3-.3,.71-.46,1.21-.46s.88,.15,1.15,.44c.27,.3,.4,.72,.4,1.27v2.84h-1.32V1.92c0-.27-.1-.41-.29-.41s-.28,.14-.28,.41v2.84s-1.32,0-1.32,0Z"/>
    <path class="cls-3" d="M31.22,1.59v3.17h-1.32V1.59h-1.01V.31h3.34V1.59h-1.01Z"/>
    <path class="cls-3" d="M35.09,2.04v.99h-.86c-.12,0-.2,.02-.25,.05-.05,.04-.07,.09-.07,.18s.03,.15,.08,.18,.15,.04,.31,.04h.89v1.27h-1.04c-.49,0-.86-.12-1.12-.35s-.39-.57-.39-1.01V1.66c0-.43,.12-.76,.37-.99s.59-.35,1.03-.35h1.15V1.59h-.84c-.23,0-.34,.07-.34,.22,0,.09,.03,.15,.08,.18s.15,.05,.29,.05h.71Z"/>
    <path class="cls-3" d="M39.27,2.41v1.19h-.44v1.16h-1.32V2c0-.52,.16-.95,.48-1.29s.72-.51,1.21-.51c.54,0,.98,.23,1.34,.69l-1.08,.79c-.06-.17-.17-.25-.32-.25-.2,0-.31,.14-.31,.42v.55h.44Z"/>
    <path class="cls-3" d="M43.19,2.04v.99h-.86c-.12,0-.2,.02-.25,.05-.05,.04-.07,.09-.07,.18s.03,.15,.08,.18,.15,.04,.31,.04h.89v1.27h-1.04c-.49,0-.86-.12-1.12-.35s-.39-.57-.39-1.01V1.66c0-.43,.12-.76,.37-.99s.59-.35,1.03-.35h1.15V1.59h-.84c-.23,0-.34,.07-.34,.22,0,.09,.03,.15,.08,.18s.15,.05,.29,.05h.71Z"/>
    <path class="cls-3" d="M44.03,.31h1.62c.96,0,1.44,.38,1.44,1.13,0,.37-.16,.68-.49,.93,.48,.21,.71,.57,.71,1.1,0,.41-.14,.73-.42,.97-.14,.12-.28,.2-.44,.24s-.37,.07-.63,.07h-.25v-1.14h.22c.13,0,.23-.02,.28-.05s.08-.09,.08-.18c0-.14-.11-.22-.33-.22h-.25V1.99c.24,0,.36-.08,.36-.25,0-.15-.11-.23-.33-.23h-.24v3.25h-1.32V.31h0Z"/>
    <path class="cls-3" d="M49.16,1.51v3.25h-1.32V.31h1.7c.52,0,.92,.13,1.2,.38,.32,.29,.48,.65,.48,1.09s-.2,.83-.59,1.14l.76,1.83h-1.39l-.64-1.43v-1.14h.1c.28,0,.42-.12,.42-.36,0-.21-.16-.32-.48-.32h-.24Z"/>
    <path class="cls-3" d="M54.2,2.04v.99h-.86c-.12,0-.2,.02-.25,.05-.05,.04-.07,.09-.07,.18s.03,.15,.08,.18,.15,.04,.31,.04h.89v1.27h-1.04c-.49,0-.86-.12-1.12-.35s-.39-.57-.39-1.01V1.66c0-.43,.12-.76,.37-.99s.59-.35,1.03-.35h1.15V1.59h-.84c-.23,0-.34,.07-.34,.22,0,.09,.03,.15,.08,.18s.15,.05,.29,.05h.71Z"/>
    <path class="cls-3" d="M56.36,1.51v3.25h-1.32V.31h1.7c.52,0,.92,.13,1.2,.38,.32,.29,.48,.65,.48,1.09s-.2,.83-.59,1.14l.76,1.83h-1.39l-.64-1.43v-1.14h.1c.28,0,.42-.12,.42-.36,0-.21-.16-.32-.48-.32h-.24Z"/>
    <path class="cls-3" d="M61.14,.2c.63,0,1.17,.23,1.62,.69,.45,.46,.68,1.01,.68,1.65s-.23,1.2-.68,1.65c-.45,.45-1,.68-1.65,.68s-1.2-.23-1.65-.68-.68-1.01-.68-1.65,.23-1.2,.69-1.65,1.02-.68,1.69-.68h-.02Zm-.04,1.3c-.27,0-.5,.1-.69,.3-.19,.2-.29,.44-.29,.72s.1,.52,.29,.72,.42,.3,.69,.3,.5-.1,.7-.3c.19-.2,.29-.44,.29-.72s-.1-.53-.29-.72c-.19-.2-.42-.3-.7-.3Z"/>
  </g>
  <g>
    <path class="cls-4" d="M24.42,25.15c-.48-.17-.85-.41-1.1-.73l.29-.47c.24,.29,.58,.51,1.01,.67s.9,.22,1.4,.18c.72-.06,1.29-.25,1.68-.58s.62-.74,.67-1.22c.04-.37-.04-.67-.21-.87-.17-.21-.4-.36-.68-.46-.28-.1-.66-.19-1.14-.28-.54-.11-.98-.22-1.3-.34s-.59-.32-.8-.6-.29-.67-.24-1.17c.04-.41,.17-.79,.4-1.14,.23-.35,.55-.65,.97-.87,.42-.23,.93-.37,1.53-.41,.42-.03,.83,0,1.22,.11,.39,.1,.73,.26,1,.47l-.25,.5c-.28-.21-.6-.36-.96-.45-.35-.09-.71-.12-1.06-.1-.7,.05-1.25,.25-1.64,.59s-.61,.75-.66,1.25c-.04,.37,.04,.67,.21,.87,.18,.21,.4,.36,.68,.46,.28,.1,.66,.19,1.15,.29,.54,.11,.97,.22,1.29,.34,.32,.12,.58,.31,.79,.58s.29,.66,.24,1.15c-.04,.41-.17,.78-.4,1.13-.23,.35-.56,.64-.99,.87-.43,.23-.95,.37-1.55,.41-.56,.04-1.08-.02-1.56-.19h0Z"/>
    <path class="cls-4" d="M31.42,24.02c-.47-.57-.66-1.45-.55-2.62l.45-4.81,.55-.04-.45,4.79c-.1,1.03,.05,1.78,.43,2.25,.38,.47,.98,.68,1.79,.62,.8-.06,1.44-.36,1.92-.91,.47-.54,.76-1.33,.86-2.35l.45-4.79,.55-.04-.45,4.81c-.11,1.18-.46,2.09-1.05,2.75-.59,.65-1.37,1.02-2.33,1.09-.96,.07-1.68-.17-2.16-.75h0Z"/>
    <path class="cls-4" d="M44.91,16.28c.5,.46,.71,1.12,.62,2.01-.08,.88-.42,1.58-1.01,2.12-.59,.54-1.36,.85-2.32,.92l-2.17,.17-.25,2.73-.55,.04,.78-8.35,2.73-.21c.96-.07,1.68,.12,2.18,.57h0Zm-.74,3.77c.46-.42,.73-1,.8-1.72s-.09-1.27-.48-1.63c-.39-.36-.99-.51-1.8-.45l-2.17,.17-.42,4.52,2.17-.17c.81-.06,1.45-.31,1.91-.73h0Z"/>
    <path class="cls-4" d="M52.17,22.73l-.05,.55-5.25,.4,.78-8.35,5.08-.39-.05,.55-4.53,.35-.31,3.29,4.05-.31-.05,.54-4.05,.31-.32,3.42,4.69-.36h.01Z"/>
    <path class="cls-4" d="M59.42,22.72l-1.55-2.65c-.27,.06-.52,.1-.75,.12l-2.17,.17-.25,2.73-.55,.04,.78-8.35,2.73-.21c.96-.07,1.68,.12,2.18,.57,.5,.46,.7,1.12,.62,2.01-.06,.66-.27,1.23-.62,1.7-.35,.47-.82,.82-1.41,1.05l1.63,2.78-.63,.05h0Zm-2.25-3.08c.81-.06,1.45-.31,1.91-.73s.73-1,.8-1.73c.07-.72-.09-1.27-.48-1.63s-.99-.51-1.8-.45l-2.17,.17-.42,4.53,2.17-.17h-.01Z"/>
  </g>
  <g>
    <path class="cls-4" d="M68.84,29.73c-.78-.55-1.36-1.27-1.75-2.17-.38-.9-.51-1.89-.4-2.97,.12-1.08,.46-2.05,1.04-2.9s1.3-1.51,2.2-1.96c.89-.46,1.85-.66,2.89-.61s1.95,.35,2.73,.89c.78,.54,1.36,1.26,1.75,2.16,.38,.9,.51,1.9,.4,2.99s-.46,2.06-1.04,2.91c-.57,.85-1.3,1.5-2.19,1.96-.89,.45-1.85,.65-2.89,.6s-1.95-.35-2.73-.9h0Zm5.28-.39c.76-.4,1.39-.96,1.89-1.7,.5-.74,.79-1.58,.9-2.52,.1-.94,0-1.8-.34-2.59-.33-.78-.83-1.41-1.5-1.88s-1.44-.73-2.33-.77c-.89-.05-1.71,.13-2.48,.52-.77,.4-1.4,.96-1.89,1.7-.5,.74-.8,1.58-.9,2.52s.01,1.8,.34,2.58c.33,.78,.83,1.41,1.5,1.88s1.45,.73,2.34,.77c.88,.05,1.71-.13,2.47-.52h0Z"/>
    <path class="cls-4" d="M81.66,20.41l-.53,4.85,5.63,.29-.08,.75-5.63-.29-.55,5.01-.77-.04,1.24-11.35,7.06,.37-.08,.75-6.29-.33h0Z"/>
    <path class="cls-4" d="M96.63,31.1l-.08,.75-7.29-.38,1.24-11.35,7.06,.37-.08,.75-6.29-.33-.49,4.47,5.63,.29-.08,.73-5.63-.29-.51,4.65,6.52,.34h0Z"/>
    <path class="cls-4" d="M106.69,32.37l-2.11-3.92c-.38,.03-.72,.04-1.03,.03l-3.02-.16-.4,3.71-.77-.04,1.24-11.35,3.79,.2c1.33,.07,2.33,.46,3.01,1.17,.68,.71,.96,1.67,.83,2.87-.1,.9-.39,1.64-.89,2.23-.49,.59-1.15,.99-1.97,1.19l2.21,4.11-.88-.05h-.01Zm-3.06-4.61c1.13,.06,2.02-.16,2.67-.67,.65-.5,1.03-1.25,1.14-2.23s-.11-1.76-.64-2.32c-.54-.57-1.37-.88-2.49-.94l-3.02-.16-.67,6.16,3.02,.16h-.01Z"/>
    <path class="cls-4" d="M113.25,22.04l-3.8-.2,.08-.75,8.38,.43-.08,.75-3.8-.2-1.16,10.6-.77-.04,1.16-10.6h0Z"/>
    <path class="cls-4" d="M124.93,30.1l-6.13-.32-1.69,3.12-.83-.04,6.1-11.1,.77,.04,3.62,11.6-.83-.04s-1.01-3.26-1.01-3.26Zm-.21-.71l-2.06-6.69-3.48,6.41,5.54,.29h0Z"/>
  </g>
  <polygon points="6.97 2.52 2.6 0 2.6 5.04 6.97 2.52"/>
  <polygon class="cls-2" points="4.37 2.52 0 0 0 5.04 4.37 2.52"/>
  <polygon class="cls-2" points="65.45 2.52 69.82 0 69.82 5.04 65.45 2.52"/>
  <polygon class="cls-2" points="70.42 2.52 74.78 0 74.78 5.04 70.42 2.52"/>
  <polygon class="cls-2" points="75.38 2.52 79.75 0 79.75 5.04 75.38 2.52"/>
  <polygon class="cls-2" points="80.35 2.52 84.71 0 84.71 5.04 80.35 2.52"/>
  <polygon class="cls-2" points="85.31 2.52 89.68 0 89.68 5.04 85.31 2.52"/>
  <polygon class="cls-4" points="70.58 12.4 73.69 8.32 76.68 7.54 70.58 12.4"/>
  <polygon class="cls-4" points="73.63 14.19 84.5 12.35 84.5 14.94 73.63 14.19"/>
  <polygon class="cls-1" points="75.87 11.88 79.55 8.56 81.02 10.27 75.87 11.88"/>
  <polygon class="cls-4" points="58.77 31.01 55.06 35.87 51.49 36.81 58.77 31.01"/>
  <polygon class="cls-4" points="55.13 28.87 42.15 31.07 42.15 27.97 55.13 28.87"/>
  <polygon class="cls-1" points="52.46 31.63 48.06 35.59 46.3 33.55 52.46 31.63"/>
</svg>