<?xml version="1.0" encoding="UTF-8"?>
<svg id="Capa_1" data-name="Capa 1" xmlns="http://www.w3.org/2000/svg" viewBox="0 0 25.56 4.45">
  <defs>
    <style>
      .cls-1 {
        fill: #efb810;
      }
    </style>
  </defs>
  <polygon class="cls-1" points="2.34 0 3.06 1.46 4.68 1.7 3.51 2.84 3.78 4.45 2.34 3.69 .89 4.45 1.17 2.84 0 1.7 1.62 1.46 2.34 0"/>
  <polygon class="cls-1" points="7.56 0 8.28 1.46 9.9 1.7 8.73 2.84 9 4.45 7.56 3.69 6.11 4.45 6.39 2.84 5.22 1.7 6.84 1.46 7.56 0"/>
  <polygon class="cls-1" points="12.78 0 13.5 1.46 15.12 1.7 13.95 2.84 14.22 4.45 12.78 3.69 11.33 4.45 11.61 2.84 10.44 1.7 12.06 1.46 12.78 0"/>
  <polygon class="cls-1" points="18 0 18.72 1.46 20.34 1.7 19.17 2.84 19.45 4.45 18 3.69 16.56 4.45 16.83 2.84 15.66 1.7 17.28 1.46 18 0"/>
  <polygon class="cls-1" points="23.22 0 23.94 1.46 25.56 1.7 24.39 2.84 24.67 4.45 23.22 3.69 21.78 4.45 22.05 2.84 20.88 1.7 22.5 1.46 23.22 0"/>
</svg>