<?xml version="1.0" encoding="UTF-8"?>
<svg id="Capa_1" data-name="Capa 1" xmlns="http://www.w3.org/2000/svg" viewBox="0 0 309.27 69.48">
  <defs>
    <style>
      .cls-1 {
        fill: #fff;
      }

      .cls-2 {
        fill: red;
      }
    </style>
  </defs>
  <g>
    <path class="cls-1" d="M43.8,56.14c-2.93,2.78-7.18,4.47-12.75,5.06v8.28h-6.06v-8.21c-3.65-.25-7.1-.91-10.35-2-3.25-1.08-5.84-2.46-7.76-4.14l3.33-7.47c1.82,1.48,4.04,2.72,6.65,3.73,2.61,1.01,5.32,1.64,8.13,1.89v-14.78c-3.5-.84-6.42-1.76-8.76-2.77-2.34-1.01-4.3-2.49-5.88-4.44-1.58-1.95-2.37-4.52-2.37-7.72,0-3.99,1.45-7.39,4.36-10.2,2.91-2.81,7.12-4.48,12.64-5.03V0h6.06V8.21c2.76,.15,5.46,.62,8.09,1.4,2.64,.79,4.94,1.82,6.91,3.1l-3.03,7.47c-3.75-2.17-7.74-3.5-11.98-3.99v14.93c3.55,.84,6.49,1.75,8.83,2.74,2.34,.99,4.31,2.45,5.91,4.4,1.6,1.95,2.4,4.52,2.4,7.72,0,3.99-1.47,7.38-4.4,10.16ZM19.44,27.05c1.28,.99,3.13,1.82,5.54,2.51v-13.16c-2.51,.4-4.39,1.18-5.62,2.37-1.23,1.18-1.85,2.64-1.85,4.36,0,1.63,.64,2.93,1.92,3.92Zm17.41,23.8c1.26-1.13,1.88-2.54,1.88-4.21s-.67-3.02-2-4.03c-1.33-1.01-3.23-1.86-5.69-2.55v13.08c2.61-.39,4.55-1.16,5.8-2.29Z"/>
    <path class="cls-1" d="M71.19,8.87V60.61h-9.61V16.93h-10.94V8.87h20.55Z"/>
    <path class="cls-1" d="M127.59,48.86h-9.17v11.75h-9.31v-11.75h-28.38v-6.65L106.23,8.87h10.28l-24.02,31.86h16.93v-10.42h9.02v10.42h9.17v8.13Z"/>
    <path class="cls-1" d="M134.61,59.39c-1.18-1.16-1.77-2.62-1.77-4.4s.58-3.3,1.74-4.44c1.16-1.13,2.6-1.7,4.32-1.7s3.17,.57,4.32,1.7c1.16,1.13,1.74,2.61,1.74,4.44s-.59,3.24-1.77,4.4c-1.18,1.16-2.61,1.74-4.29,1.74s-3.1-.58-4.29-1.74Z"/>
    <path class="cls-1" d="M160.78,58.21c-3.25-2.09-5.82-5.15-7.69-9.17-1.87-4.02-2.81-8.78-2.81-14.3s.94-10.29,2.81-14.3c1.87-4.02,4.44-7.07,7.69-9.17,3.25-2.09,6.95-3.14,11.09-3.14s7.85,1.05,11.12,3.14c3.28,2.1,5.85,5.15,7.72,9.17,1.87,4.02,2.81,8.78,2.81,14.3s-.94,10.29-2.81,14.3c-1.87,4.02-4.45,7.07-7.72,9.17-3.28,2.1-6.98,3.14-11.12,3.14s-7.83-1.05-11.09-3.14Zm19.85-9.79c2.14-3.06,3.22-7.61,3.22-13.68s-1.07-10.62-3.22-13.68c-2.14-3.05-5.06-4.58-8.76-4.58s-6.54,1.53-8.69,4.58c-2.14,3.06-3.22,7.61-3.22,13.68s1.07,10.62,3.22,13.68c2.14,3.06,5.04,4.58,8.69,4.58s6.62-1.53,8.76-4.58Z"/>
    <path class="cls-1" d="M210.52,58.21c-3.25-2.09-5.82-5.15-7.69-9.17-1.87-4.02-2.81-8.78-2.81-14.3s.94-10.29,2.81-14.3c1.87-4.02,4.44-7.07,7.69-9.17,3.25-2.09,6.95-3.14,11.09-3.14s7.85,1.05,11.12,3.14c3.28,2.1,5.85,5.15,7.72,9.17,1.87,4.02,2.81,8.78,2.81,14.3s-.94,10.29-2.81,14.3c-1.87,4.02-4.45,7.07-7.72,9.17-3.28,2.1-6.99,3.14-11.12,3.14s-7.83-1.05-11.09-3.14Zm19.85-9.79c2.14-3.06,3.22-7.61,3.22-13.68s-1.07-10.62-3.22-13.68c-2.14-3.05-5.06-4.58-8.76-4.58s-6.54,1.53-8.69,4.58c-2.14,3.06-3.22,7.61-3.22,13.68s1.07,10.62,3.22,13.68c2.14,3.06,5.04,4.58,8.69,4.58s6.62-1.53,8.76-4.58Z"/>
    <path class="cls-1" d="M260.27,58.21c-3.25-2.09-5.82-5.15-7.69-9.17-1.87-4.02-2.81-8.78-2.81-14.3s.94-10.29,2.81-14.3c1.87-4.02,4.44-7.07,7.69-9.17,3.25-2.09,6.95-3.14,11.09-3.14s7.85,1.05,11.12,3.14c3.28,2.1,5.85,5.15,7.72,9.17,1.87,4.02,2.81,8.78,2.81,14.3s-.94,10.29-2.81,14.3c-1.87,4.02-4.45,7.07-7.72,9.17-3.28,2.1-6.99,3.14-11.12,3.14s-7.83-1.05-11.09-3.14Zm19.85-9.79c2.14-3.06,3.22-7.61,3.22-13.68s-1.07-10.62-3.22-13.68c-2.14-3.05-5.06-4.58-8.76-4.58s-6.54,1.53-8.69,4.58c-2.14,3.06-3.22,7.61-3.22,13.68s1.07,10.62,3.22,13.68c2.14,3.06,5.04,4.58,8.69,4.58s6.62-1.53,8.76-4.58Z"/>
  </g>
  <rect class="cls-2" x="152.64" y="-118.86" width="4" height="313.41" transform="translate(90.3 183.47) rotate(-79.92)"/>
</svg>