<?xml version="1.0" encoding="UTF-8"?><svg id="Capa_1" xmlns="http://www.w3.org/2000/svg" viewBox="0 0 160.36 160.36"><defs><style>.cls-1{fill:#0094bc;}.cls-1,.cls-2{stroke-width:0px;}.cls-2{fill:#fff;}</style></defs><circle class="cls-1" cx="80.18" cy="80.18" r="80.18"/><path class="cls-2" d="M73.41,47.18v-5.02c-.67,0-1.32,0-1.96,0-2.86-.06-4.69-1.93-4.71-4.78,0-1.4-.02-2.8,0-4.19.05-2.49,1.88-4.41,4.37-4.42,6.04-.04,12.09-.04,18.13,0,2.43.02,4.26,1.93,4.32,4.37.04,1.47.02,2.93,0,4.4-.03,2.62-1.81,4.47-4.44,4.61-.7.04-1.39,0-2.26,0v4.98c13.71,2.59,24.13,9.82,30.78,22.09,4.99,9.2,6.23,19.05,3.96,29.24-4.5,20.14-23.14,34.83-45.04,33.01-20.54-1.7-36.94-17.92-38.74-38.65-1.93-22.1,13.48-42.01,35.58-45.65h.01ZM42.15,89.06c0,21.03,17,38.07,37.93,38.06,21.05-.02,38.03-16.97,38.07-38.04.05-20.92-17.06-38.04-37.99-38.01-20.99.03-38.02,17.04-38.01,37.99ZM71.24,37.58h17.81v-4.31h-17.81v4.31ZM82.35,42.22h-4.37v4.4h4.37v-4.4Z"/><path class="cls-2" d="M80.11,122.66c-18.39.02-33.49-15.06-33.5-33.47-.02-18.55,14.94-33.59,33.43-33.61,18.63-.03,33.66,14.98,33.67,33.6,0,18.44-15.07,33.47-33.59,33.49h0ZM51.06,89.12c.02,15.99,13.03,29.02,29.01,29.03,16.16,0,29.23-13.07,29.17-29.19-.06-15.96-13.12-28.95-29.12-28.93-16.04.02-29.08,13.07-29.06,29.09Z"/><path class="cls-2" d="M82.41,86.87h2.28c2.2,0,4.4-.02,6.6.01,1.29.02,2.23.95,2.27,2.14.05,1.2-.85,2.26-2.11,2.27-3.81.04-7.62.04-11.43,0-1.37-.02-2.12-.99-2.12-2.59-.01-4.68,0-9.36,0-14.05,0-1.19-.05-2.38.04-3.56.09-1.27,1.01-2.07,2.2-2.08,1.19,0,2.07.79,2.23,2.06.04.34.03.7.03,1.05v14.75h.01Z"/></svg>