<?xml version="1.0" encoding="UTF-8"?><svg id="Capa_1" xmlns="http://www.w3.org/2000/svg" viewBox="0 0 160.36 160.36"><defs><style>.cls-1{fill:#0094bc;}.cls-1,.cls-2{stroke-width:0px;}.cls-2{fill:#fff;}</style></defs><circle class="cls-1" cx="80.18" cy="80.18" r="80.18"/><path class="cls-2" d="M99.81,122.71c-1.59-.16-3.19-.3-4.78-.5-1.25-.16-2.49-.4-3.82-.61.47-2.42.91-4.72,1.36-7.02.74-3.8,1.49-7.59,2.21-11.4.07-.36.06-.8-.1-1.11-.12-.22-.66-.47-.8-.38-.35.22-.75.59-.84.97-.4,1.75-.71,3.52-1.05,5.29-.82,4.21-1.64,8.41-2.46,12.62-.03.16-.08.31-.13.51-1.7-.48-3.29-1.06-4.69-2.1-.93-.69-1.35-1.62-1.34-2.79.09-12.02,3.41-23.06,10.04-33.1.33-.49.67-.69,1.27-.69,5.29.02,10.58.02,15.86,0,.55,0,.9.15,1.22.63,4.98,7.52,8.18,15.73,9.42,24.66.4,2.87.43,5.79.62,8.69.07,1.09-.43,1.91-1.27,2.56-1.38,1.07-3,1.63-4.75,2.16-.27-1.36-.55-2.67-.8-3.99-.91-4.69-1.81-9.39-2.72-14.09-.21-1.07-.58-1.49-1.19-1.37-.64.13-.82.61-.61,1.7,1.16,6.02,2.33,12.05,3.53,18.24-1.25.21-2.49.45-3.73.61-1.59.2-3.18.34-4.77.51h-1.99c0-6.47.02-12.95.03-19.42,0-1.19-.26-1.65-.91-1.65s-.92.48-.93,1.65c0,6.47-.01,12.95-.02,19.42h-1.86Z"/><path class="cls-2" d="M37.66,75.36c.18-.23.38-.45.54-.7,3.93-6.45,7.88-12.89,11.77-19.36.57-.94,1.28-1.54,2.38-1.85.14.31.29.62.43.94,2.29,5.15,4.59,10.3,6.88,15.45.04.1.06.23.14.3.29.26.62.7.9.68.34-.02.8-.38.95-.72,1.02-2.18,1.98-4.38,2.96-6.58,1.5-3.36,3-6.71,4.51-10.1,1,.32,1.75.8,2.31,1.73,3.92,6.52,7.89,13.01,11.85,19.51.16.26.3.52.49.85-1.64.98-3.24,1.94-4.93,2.95-2.66-4.3-5.28-8.55-8.03-13-.19,1.79-.36,3.33-.52,4.88-.24,2.28-.5,4.57-.68,6.86-.05.64.06,1.32.26,1.93.69,2.07,1.46,4.12,2.19,6.17.07.2.12.41.2.74h-1.55c-2.44,0-4.87-.03-7.31.02-.65.01-1.01-.2-1.3-.76-.39-.75-.87-1.46-1.37-2.29-.55.91-1,1.72-1.52,2.49-.17.25-.54.52-.81.52-2.93.04-5.87.02-8.81.02-.1,0-.21-.04-.39-.08.16-.48.29-.92.45-1.35.36-1.02.64-2.07,1.1-3.04,1.14-2.39,1.26-4.84.87-7.42-.4-2.6-.57-5.22-.85-7.84-.02-.19-.07-.37-.15-.76-2.72,4.4-5.34,8.63-7.98,12.91-1.7-1.01-3.34-1.98-4.97-2.95v-.17.02ZM60.7,75.26c.76.01,1.38-.58,1.39-1.33,0-.76-.57-1.37-1.33-1.39-.76-.02-1.37.56-1.38,1.33-.02.77.56,1.38,1.32,1.39ZM60.7,78.04c-.75.02-1.34.64-1.32,1.41,0,.76.64,1.37,1.39,1.34.75-.02,1.35-.66,1.33-1.41-.02-.75-.65-1.36-1.39-1.34h-.01Z"/><path class="cls-2" d="M50.95,122.71v-34.82h1.34c1.91,0,3.82-.03,5.73.02.66.02,1.09-.19,1.45-.72.36-.52.79-1,1.24-1.57.46.56.93,1.07,1.31,1.63.33.49.73.66,1.31.65,2.05-.03,4.1-.01,6.14-.01h1.03v33.75c0,.36.02.72.04,1.08h-6.81c-.24-2.7-.47-5.4-.73-8.09-.58-6.14-1.18-12.27-1.77-18.41-.14-1.47-.29-2.94-.44-4.42-.45,3.05-.75,6.09-1.04,9.13-.54,5.56-1.08,11.12-1.6,16.67-.16,1.7-.27,3.41-.4,5.11h-6.81,0Z"/><path class="cls-2" d="M37.66,105.6c.74-.26,1.48-.53,2.22-.79.07.06.15.12.22.18v-1.37c0-.55.31-.91.85-.94.59-.03.92.34.96.92.03.44,0,.88,0,1.46h1.28c.6,0,1.07.23,1.09.87.02.69-.47.94-1.1.96-.38.01-.76,0-1.26,0v1.28c-.02.59-.26,1.06-.91,1.06s-.91-.43-.92-1.04v-1.24c-.89-.18-1.86.22-2.43-.69v-.66h0Z"/><path class="cls-2" d="M93.74,72.11c-1.04-3.49-2.29-6.99-3.1-10.59-.75-3.31-.11-6.6,1.28-9.71.1-.23.39-.52.61-.53,1.82-.04,3.65-.02,5.59-.02v2.93c.01,1.35-.3,2.84.16,4.02.45,1.15,1.7,2,2.6,2.97.52.57,1.06,1.12,1.63,1.73,1.42-1.52,2.8-2.98,4.15-4.47.19-.21.24-.6.24-.91.02-2.05.01-4.09.01-6.26h4.16c1.93,0,1.94,0,2.59,1.8,1.36,3.8,1.43,7.63.19,11.48-.76,2.34-1.56,4.66-2.32,7-.13.4-.26.66-.77.66-5.51-.02-11.02-.01-16.53-.02-.11,0-.22-.03-.48-.06v-.02Z"/><path class="cls-2" d="M80.93,40.63c1.42-2.74,3.47-3.59,5.87-2.46,1.74.82,2.8,2.22,3.2,4.09.41,1.9-.12,3.62-1.05,5.24-1.29,2.23-3.18,3.89-5.23,5.37-.4.29-.81.58-1.24.83-2.35,1.37-1.37,1.45-3.67-.13-2.16-1.48-4.08-3.24-5.49-5.48-1.17-1.85-1.87-3.83-1.43-6.06.32-1.6,1.14-2.87,2.55-3.72,2.06-1.25,4.39-.76,5.79,1.2.24.33.44.69.71,1.11h-.01Z"/><path class="cls-2" d="M54,52.65c1.54-.92,3.02-1.62,4.82-1.44,1.29.13,2.61.14,3.9,0,1.79-.2,3.21.59,4.76,1.41-2.23,4.99-4.44,9.97-6.74,15.13-2.29-5.15-4.5-10.1-6.73-15.1h-.01Z"/><path class="cls-2" d="M111.23,80.55h-17.32v-6.49h17.32v6.49Z"/><path class="cls-2" d="M120.33,77.99c0,.54.02.97,0,1.41-.04.57-.33.95-.94.94-.56-.01-.84-.38-.87-.92-.02-.44,0-.88,0-1.43-.51,0-.94.02-1.38,0-.61-.03-1.03-.34-1-.98.03-.58.44-.86,1.03-.84h1.35c0-.55-.02-1.02,0-1.48.03-.55.34-.9.89-.9s.87.33.91.88c.03.46,0,.93,0,1.5h1.32c.63-.01,1.05.27,1.05.9s-.45.91-1.06.92h-1.31,0Z"/></svg>