<?xml version="1.0" encoding="UTF-8"?><svg id="Capa_1" xmlns="http://www.w3.org/2000/svg" viewBox="0 0 160.36 160.36"><defs><style>.cls-1{fill:#0094bc;}.cls-1,.cls-2{stroke-width:0px;}.cls-2{fill:#fff;}</style></defs><circle class="cls-1" cx="80.18" cy="80.18" r="80.18"/><path class="cls-2" d="M37.66,100.96v-41.51c.05-.3.09-.6.16-.89.57-2.21.85-4.56,1.79-6.61,4.23-9.17,11.51-14.07,21.63-14.21,12.62-.18,25.24-.05,37.86-.04,4.89,0,9.42,1.32,13.41,4.16,6.76,4.82,10.15,11.45,10.17,19.75.03,12.4.02,24.79-.01,37.19,0,1.6-.09,3.23-.43,4.78-2.12,9.63-7.98,15.78-17.48,18.42-1.24.35-2.55.47-3.82.7h-41.52c-.87-.14-1.75-.23-2.6-.42-9.63-2.17-15.81-7.99-18.45-17.52-.34-1.24-.47-2.54-.7-3.81h0ZM45.2,80.21v18.43c0,1.94.2,3.86.86,5.71,2.41,6.76,8.23,10.82,15.58,10.83,12.34.01,24.68.04,37.03-.03,1.88-.01,3.84-.26,5.62-.86,6.8-2.29,10.85-8.17,10.86-15.52.02-12.37.04-24.73-.03-37.1-.01-1.85-.26-3.79-.85-5.53-2.27-6.76-8.14-10.86-15.43-10.88-12.42-.03-24.85-.02-37.27,0-5.57,0-10.08,2.2-13.39,6.72-2.12,2.89-2.98,6.19-2.97,9.74v18.51-.02Z"/><path class="cls-2" d="M102.09,80.22c-.01,12.04-9.93,21.94-21.94,21.9-12.06-.04-21.95-9.96-21.88-21.96.07-12.05,9.88-21.84,21.9-21.86,12.03,0,21.94,9.89,21.92,21.92ZM80.2,65.85c-7.89-.04-14.34,6.39-14.38,14.32-.04,7.89,6.39,14.34,14.32,14.38,7.89.04,14.34-6.39,14.38-14.32.04-7.89-6.39-14.34-14.33-14.38h.01Z"/><path class="cls-2" d="M103,51.93c3.05,0,5.58,2.54,5.54,5.55-.05,3.02-2.53,5.47-5.53,5.47s-5.58-2.55-5.54-5.55c.04-3.02,2.52-5.47,5.53-5.47Z"/></svg>