<?xml version="1.0" encoding="UTF-8"?><svg id="Capa_1" xmlns="http://www.w3.org/2000/svg" viewBox="0 0 160.36 160.36"><defs><style>.cls-1{fill:#0094bc;}.cls-1,.cls-2{stroke-width:0px;}.cls-2{fill:#fff;}</style></defs><circle class="cls-1" cx="80.18" cy="80.18" r="80.18"/><path class="cls-2" d="M120.47,70.38c2.96,3.28,2.96,6.08.06,9.82,2.78,2.94,2.96,6.64-.02,9.84,2.02,2.04,2.77,4.44,1.71,7.18-1.03,2.68-3.13,4.01-6.08,4.25v1.09c0,5.55.02,11.1,0,16.65-.02,5.89-3.92,10.5-9.71,11.49-.8.14-1.63.14-2.44.14h-63.85c-2.03,0-2.46-.42-2.46-2.44,0-2.28.04-4.56-.02-6.84-.03-1.11.41-1.79,1.4-2.23.96-.42,1.91-.9,2.83-1.41,2.57-1.42,3.89-3.62,3.95-6.56.07-3.44.03-6.88.19-10.31.13-2.78.94-5.43,2.17-7.92,1.81-3.64,2.64-7.47,2.56-11.53-.08-4.12.09-8.24-.04-12.36-.17-5.23,5.11-8.6,9.47-6.32.05.03.13.02.32.04.02-.35.05-.7.05-1.05,0-6.98-.03-13.96,0-20.94.03-5.47,3.66-9.96,9-11.17.92-.21,1.89-.29,2.83-.29,10.62-.02,21.25-.02,31.87,0,6.89,0,11.85,4.97,11.86,11.85.01,5.45,0,10.9,0,16.34v1.18c2.89.25,5.05,1.56,6.09,4.28,1.05,2.74.29,5.14-1.76,7.22h.01ZM106.85,80.24c-2.92-4-2.92-6.36,0-9.83-.05-.08-.09-.18-.16-.25-2.49-2.88-2.68-5.45-.63-8.63.09-.14.23-.29.23-.44.02-1.79.01-3.57.01-5.36h-35.88v42.37h35.09c-1.47-3.08-.92-5.74,1.36-8.06-3.26-3.46-2.54-7.34-.02-9.78v-.02ZM112.84,101.43c-1.86.14-3.61-.08-5.39-.06-12.73.12-25.47.07-38.2.06-1.62,0-2.15-.53-2.15-2.13v-44.74c0-1.6.55-2.16,2.14-2.16h38.2c1.6,0,2.15.55,2.16,2.14v4.53c1.15-.07,2.16-.14,3.2-.2v-12.96h-48.9v61.98h48.95v-6.46h-.01ZM63.83,111.29c0,2.84-.04,5.56,0,8.28.07,4.38,3.54,7.95,7.93,7.98,11.03.06,22.06.06,33.08,0,4.5-.02,7.95-3.61,8-8.12.03-2.48,0-4.97,0-7.45,0-.22-.05-.45-.08-.69h-48.95.02ZM40.95,127.5h22.98c-2.8-2.88-3.41-6.26-3.39-9.97.07-16.1.03-32.21.03-48.31,0-2.24-1.34-3.76-3.28-3.75-1.95.01-3.25,1.51-3.25,3.78,0,3.98-.07,7.97.02,11.95.11,4.76-.91,9.21-2.91,13.53-.91,1.97-1.55,4.18-1.76,6.34-.33,3.37-.18,6.8-.25,10.2-.08,4.32-2,7.54-5.81,9.62-.6.33-1.24.57-1.81.94-.26.17-.53.53-.54.82-.05,1.59-.02,3.19-.02,4.87v-.02ZM63.9,42.51h48.89c.59-5.7-3.02-9.73-8.66-9.74h-31.55c-5.65,0-9.22,3.98-8.68,9.74ZM113.67,68.73c.85,0,1.7.03,2.55,0,1.75-.07,3.11-1.41,3.19-3.1.08-1.73-1.21-3.28-2.99-3.39-1.8-.1-3.61-.1-5.41,0-1.79.09-3.09,1.61-3.03,3.35.05,1.73,1.44,3.08,3.25,3.14.82.03,1.63,0,2.45,0h-.01ZM113.62,78.54c.85,0,1.7.02,2.55,0,1.8-.06,3.18-1.43,3.23-3.16.04-1.73-1.27-3.25-3.06-3.34-1.76-.09-3.54-.09-5.31,0-1.8.09-3.11,1.58-3.07,3.32.03,1.73,1.41,3.11,3.21,3.18.82.03,1.63,0,2.45,0ZM113.6,88.35c.85,0,1.7.02,2.55,0,1.81-.06,3.2-1.41,3.25-3.14.06-1.73-1.25-3.26-3.03-3.36-1.8-.09-3.61-.1-5.41,0-1.79.1-3.07,1.64-3,3.38.07,1.69,1.43,3.03,3.18,3.1.82.03,1.63,0,2.45,0v.02ZM113.76,98.15c.82,0,1.63.03,2.45,0,1.75-.07,3.11-1.4,3.19-3.09.08-1.73-1.21-3.29-2.99-3.39-1.8-.11-3.61-.1-5.41,0-1.79.09-3.09,1.61-3.04,3.35.05,1.73,1.43,3.09,3.24,3.15.85.03,1.7,0,2.55,0v-.02Z"/><path class="cls-2" d="M90.05,76.91c1.02,0,2.04-.01,3.06,0,2.93.05,5.02,2.12,5.04,5.03.02,2.04.01,4.09,0,6.13,0,1.29-.58,1.9-1.86,1.9-5.31.01-10.62.02-15.93,0-1.22,0-1.8-.61-1.82-1.84-.02-2.08-.02-4.15,0-6.23.03-2.86,2.11-4.93,4.98-4.99,1.04-.02,2.09,0,3.16-.18-.3-.11-.61-.21-.9-.34-2.01-.93-3.49-2.42-3.76-4.63-.24-2-.29-4.1.01-6.08.48-3.14,3.58-5.34,6.68-5.1,3.3.25,5.94,2.81,6.13,6.04.08,1.42.08,2.86,0,4.29-.16,2.66-1.75,4.54-4.8,6h.01ZM81.81,86.64h13.07v-.78c0-1.33.02-2.66-.01-3.98-.03-1.02-.65-1.67-1.68-1.68-3.23-.03-6.47-.03-9.7,0-1.03.01-1.65.67-1.68,1.68-.03,1.56,0,3.12,0,4.76ZM91.61,68.73c0-.58.02-1.16,0-1.73-.09-1.76-1.52-3.15-3.25-3.16-1.73,0-3.2,1.37-3.27,3.14-.05,1.19-.05,2.38,0,3.57.07,1.73,1.48,3.06,3.19,3.08,1.76.02,3.21-1.3,3.32-3.06.04-.61,0-1.22,0-1.84h0Z"/><path class="cls-2" d="M73.65,88.41h3.24v3.19h3.23v3.24c-1.75,0-3.51.1-5.24-.07-.45-.04-1.12-.88-1.17-1.4-.15-1.61-.06-3.25-.06-4.96Z"/><path class="cls-2" d="M99.76,88.4h3.28c0,1.73.05,3.42-.02,5.1-.04.78-.6,1.33-1.41,1.36-1.65.05-3.31.01-5.02.01v-3.22h3.18v-3.25h-.01Z"/><path class="cls-2" d="M73.65,65.4c0-1.69-.05-3.35.02-5,.04-.89.69-1.42,1.57-1.45,1.59-.05,3.18,0,4.85,0v3.23h-3.15v3.23h-3.3.01Z"/><path class="cls-2" d="M103.05,65.42h-3.24v-3.19h-3.23v-3.25c1.71,0,3.42-.06,5.14.03.78.04,1.3.66,1.32,1.46.05,1.62.01,3.25.01,4.96h0Z"/><path class="cls-2" d="M88.31,124.3c-2.69-.01-4.86-2.18-4.86-4.87s2.24-4.95,4.94-4.93c2.67.03,4.86,2.23,4.87,4.9,0,2.73-2.19,4.91-4.94,4.9h-.01ZM89.98,119.38c-.03-.87-.81-1.62-1.67-1.59-.87.03-1.61.81-1.58,1.68.03.89.76,1.58,1.67,1.56.9-.02,1.61-.76,1.58-1.65Z"/><path class="cls-2" d="M85.12,39.23v-3.13h6.44v3.13h-6.44Z"/></svg>