<?xml version="1.0" encoding="UTF-8"?><svg id="Capa_1" xmlns="http://www.w3.org/2000/svg" viewBox="0 0 160.36 160.36"><defs><style>.cls-1{fill:#dcaecb;}.cls-1,.cls-2{stroke-width:0px;}.cls-2{fill:#fff;}</style></defs><circle class="cls-1" cx="80.18" cy="80.18" r="80.18"/><path class="cls-2" d="M122.7,93.8c-.37,1.62-1.02,3.07-2.38,4.13-.99.77-2.09,1.23-3.33,1.34-.3.03-.61.04-.91.04h-38.08c-2.7,0-4.8-1.09-5.96-3.56-.43-.92-.64-2.02-.64-3.04-.04-12.7-.04-25.39-.02-38.09,0-4.06,2.66-6.64,6.75-6.64,12.56,0,25.11.04,37.67-.03,3.66-.02,6.35,2.29,6.81,5.29.01.08.07.15.1.22v40.34h0ZM96.99,95.95h18.83c2.41,0,3.51-1.09,3.51-3.48v-37.66c0-2.34-1.12-3.45-3.46-3.45h-37.66c-2.35,0-3.46,1.11-3.46,3.45v37.66c0,2.4,1.09,3.49,3.5,3.49h18.75-.01Z"/><path class="cls-2" d="M45.35,61.74v-2.92c0-2.16,0-4.31,0-6.47,0-1.12.73-1.87,1.69-1.86.95,0,1.61.74,1.65,1.81v9.35h7.43v-9.33c0-.99.54-1.63,1.4-1.79.73-.14,1.55.28,1.81,1,.13.35.14.76.14,1.14,0,2.68,0,5.37,0,8.05v1.01h2.95c3.01,0,4.66,1.67,4.66,4.67,0,3.37-.09,6.75.02,10.12.25,7.63-5.29,13.78-12.51,14.53-.04.04-.1.08-.1.12.03,3.14-.46,6.32.55,9.38,1.72,5.23,6.37,8.47,12.09,8.48h42.72c.36,0,.72,0,1.08.03.84.1,1.43.72,1.47,1.53.05.86-.48,1.56-1.33,1.74-.29.06-.6.06-.91.06h-43.14c-7.08,0-12.87-4.01-15.11-10.65-.59-1.74-.71-3.67-.86-5.53-.14-1.67-.03-3.36-.03-4.88-1.69-.46-3.33-.7-4.8-1.34-5.2-2.27-8.13-6.32-8.46-11.97-.24-4.05-.09-8.13-.05-12.19.02-2.3,1.75-3.99,4.06-4.08,1.15-.05,2.31,0,3.54,0h.04ZM52.47,65.09h-10.04c-1.1,0-1.33.21-1.33,1.3,0,3.54-.02,7.08,0,10.62.02,3.74,1.53,6.74,4.59,8.91,2.28,1.62,4.89,1.89,7.59,1.8,6-.19,10.39-4.61,10.45-10.62.04-3.57,0-7.13,0-10.7,0-1.07-.24-1.3-1.33-1.3h-9.95.02Z"/><path class="cls-2" d="M119.75,112.38c-.36,0-.72.04-1.08,0-.91-.11-1.51-.81-1.5-1.68.01-.88.63-1.55,1.55-1.62.66-.05,1.33-.05,1.99,0,.96.06,1.63.76,1.64,1.64,0,.88-.67,1.6-1.61,1.69-.33.03-.66,0-.99,0h0v-.03Z"/><path class="cls-2" d="M96.91,90.44c-9.35-.2-16.83-7.8-16.67-16.92.17-9.32,7.85-16.88,16.91-16.65,9.41.24,16.76,7.75,16.65,16.9-.1,9.12-7.49,16.67-16.9,16.67h0ZM110.22,71.89c-.41-5.35-5.44-11.54-13.03-11.62-7.75-.09-12.96,6.21-13.34,11.58,1.59.42,2.15.92,2.11,1.86-.04.93-.58,1.38-2.13,1.76.5,5.74,6.09,12.25,14.53,11.53,6.04-.52,12.37-6.73,11.81-11.59-1.4-.2-2.04-.73-2.07-1.71-.03-.99.61-1.54,2.12-1.8h0Z"/><path class="cls-2" d="M91.05,73.55c0-.66-.03-1.33,0-1.99.06-1.14.75-1.85,1.71-1.85s1.65.73,1.68,1.87c.04,1.38.04,2.76,0,4.14-.03,1.15-.72,1.85-1.71,1.84-.98,0-1.62-.71-1.69-1.87v-2.16h0v.02Z"/><path class="cls-2" d="M102.98,73.71c0,.72.02,1.44,0,2.15-.04,1.04-.7,1.7-1.64,1.71s-1.67-.65-1.69-1.66c-.04-1.52-.04-3.04,0-4.55.03-.97.74-1.62,1.64-1.64.94-.01,1.64.65,1.69,1.67.04.77,0,1.54,0,2.32h0Z"/></svg>