<?xml version="1.0" encoding="UTF-8"?><svg id="Capa_1" xmlns="http://www.w3.org/2000/svg" viewBox="0 0 160.36 160.36"><defs><style>.cls-1{fill:#0094bc;}.cls-1,.cls-2{stroke-width:0px;}.cls-2{fill:#fff;}</style></defs><circle class="cls-1" cx="80.18" cy="80.18" r="80.18"/><path class="cls-2" d="M97.6,101.75c-1.4,11.05-9.7,15.98-17.7,15.86-8.02-.13-15.81-5.22-17.1-15.86h-19.01c-2.96,0-5.19-1.62-5.89-4.25-.16-.62-.22-1.28-.22-1.92,0-15.57-.02-31.14,0-46.7,0-3.69,2.37-6.1,6.06-6.11,24.31,0,48.63,0,72.94,0,3.65,0,6.02,2.41,6.03,6.05v46.79c0,3.72-2.42,6.12-6.15,6.13-5.95.02-11.89,0-17.84,0h-1.11ZM40.49,55.9v39.47c0,2.47,1.08,3.55,3.56,3.55h17.04c1.11,0,1.75-.52,1.93-1.57,1.46-8.36,8.92-14.53,17.37-14.36,8.75.18,16,6.59,17.06,15.13.09.76.41.81,1.01.81,5.97-.01,11.95,0,17.92,0,2.39,0,3.48-1.11,3.48-3.53v-39.48H40.49v-.02ZM119.85,52.99c0-1.64.07-3.17-.02-4.69-.09-1.59-1.24-2.62-2.84-2.7-.29-.02-.59,0-.88,0H44.23c-.35,0-.71,0-1.06.02-1.31.1-2.46.97-2.57,2.26-.14,1.68-.03,3.39-.03,5.13h79.28ZM80.13,114.9c7.99.06,14.58-6.43,14.67-14.43.09-7.99-6.42-14.68-14.35-14.76-8.22-.08-14.84,6.4-14.89,14.57-.04,8.02,6.47,14.56,14.57,14.61h0Z"/><path class="cls-2" d="M78.77,69.11v-6.52c0-1.1.55-1.76,1.42-1.75.87,0,1.4.66,1.4,1.77v13.13c0,1.11-.52,1.77-1.38,1.8-.89.03-1.44-.66-1.45-1.81v-6.61h0Z"/><path class="cls-2" d="M72.75,69.15c0-1.38-.01-2.76,0-4.15.01-.98.55-1.57,1.4-1.57s1.41.58,1.42,1.56c.02,2.79.02,5.59,0,8.38,0,.98-.57,1.57-1.41,1.58-.84,0-1.39-.59-1.4-1.57-.02-1.41,0-2.82,0-4.23h0Z"/><path class="cls-2" d="M84.78,69.12c0-1.35-.01-2.7,0-4.06.01-1.04.56-1.64,1.44-1.63.85,0,1.37.59,1.38,1.59.01,2.76.01,5.53,0,8.29,0,1.04-.55,1.65-1.43,1.64-.86-.01-1.38-.63-1.39-1.69-.01-1.38,0-2.76,0-4.15h0Z"/><path class="cls-2" d="M66.74,69.14c0-.44-.02-.88,0-1.32.05-.79.52-1.23,1.29-1.32.72-.09,1.42.45,1.48,1.21.07.99.08,2,0,2.99-.07.76-.63,1.19-1.4,1.21-.73.02-1.31-.57-1.36-1.35-.03-.47,0-.94,0-1.41h-.01Z"/><path class="cls-2" d="M93.61,69.23c0,.44.03.88,0,1.32-.05.78-.63,1.37-1.36,1.35-.77-.02-1.33-.45-1.4-1.21-.09-.99-.08-2,0-2.99.06-.76.77-1.3,1.48-1.21.77.09,1.23.54,1.28,1.32.03.47,0,.94,0,1.41h0Z"/><path class="cls-2" d="M116.72,49.28c0,.75-.67,1.44-1.39,1.42-.71-.02-1.31-.66-1.32-1.39,0-.75.56-1.37,1.29-1.4.76-.03,1.41.6,1.42,1.37Z"/><path class="cls-2" d="M103.39,47.91c.76,0,1.37.67,1.34,1.45-.03.72-.67,1.36-1.37,1.35-.74,0-1.35-.68-1.32-1.47.03-.75.62-1.34,1.35-1.33Z"/><path class="cls-2" d="M110.72,49.3c0,.75-.68,1.43-1.4,1.41-.71-.03-1.3-.66-1.3-1.4s.57-1.36,1.3-1.38c.76-.02,1.4.61,1.4,1.38h0Z"/><path class="cls-2" d="M82.67,94.62v5.19c0,2.12.03,4.23-.01,6.35-.05,2.54-2.09,4.57-4.63,4.63-1.03.03-2.06.03-3.09,0-2.5-.08-4.52-2.15-4.61-4.68-.08-2.43,1.75-4.67,4.19-4.86,1.74-.13,3.49.02,5.32.05v-5.42c0-1.44.01-2.88,0-4.32,0-.74.19-1.34.92-1.65.71-.3,1.26,0,1.73.5,1.15,1.24,2.4,2.25,4.06,2.83,1.71.6,2.77,2.03,3.42,3.71.31.8-.03,1.63-.74,1.93-.75.32-1.56.02-1.85-.84-.42-1.27-1.32-1.96-2.48-2.44-.7-.29-1.39-.62-2.23-1v.02ZM76.48,107.98c.47,0,.94.02,1.41,0,1.09-.06,1.89-.87,1.93-1.92.03-1.01-.68-1.92-1.71-2.01-1.08-.09-2.18-.09-3.26,0-1.04.08-1.75,1.01-1.72,2.01.04,1.05.85,1.85,1.94,1.91.47.03.94,0,1.41,0h0Z"/></svg>