<?xml version="1.0" encoding="UTF-8"?><svg id="Capa_1" xmlns="http://www.w3.org/2000/svg" viewBox="0 0 160.36 160.36"><defs><style>.cls-1{fill:#dcaecb;}.cls-1,.cls-2{stroke-width:0px;}.cls-2{fill:#fff;}</style></defs><circle class="cls-1" cx="80.18" cy="80.18" r="80.18"/><path class="cls-2" d="M68.55,37.65c1,.19,2.01.34,2.99.58,4.55,1.12,8.32,3.5,11.3,7.13.14.17.28.34.47.57,4.48-2.17,9-2.31,13.42.11,4.42,2.43,6.77,6.29,7.35,11.21,10.15,2.02,16.76,7.8,18.34,18.15,1.33,8.72-2.03,15.9-9.48,20.62-8.34,5.29-16.68,4.41-24.71-1.24-.07.05-.21.13-.33.23-6.47,5.21-14.69,5.48-21.51.67-.48-.34-.72-.15-1.07.1-7.16,5.16-16.93,4.21-22.95-2.24-2.52-2.71-4.04-5.91-4.54-9.59-.03-.22-.1-.42-.16-.64v-3.32c.05-.21.12-.42.15-.64.72-5.06,3.2-9.05,7.35-12.01.69-.49,1.44-.91,2.2-1.38-.08-.25-.15-.48-.23-.71-3.96-11.43,2.53-23.74,14.2-26.9,1.17-.32,2.37-.48,3.56-.72h3.65v.02ZM101.84,94.46c.42-.04,1.11-.09,1.79-.16,7.7-.88,13.92-7.7,14.07-15.44.18-9.17-6.8-16.42-16-16.63-1.79-.04-2.76-1.15-2.65-2.95.24-3.9-1.29-6.94-4.71-8.84-3.4-1.88-6.76-1.52-9.91.72-1.79,1.28-3.04,1.05-4.18-.82-3.57-5.84-10.02-8.68-16.72-7.39-7.88,1.53-13.49,9.26-12.5,17.18.26,2.12.92,4.08,1.89,5.97.79,1.53.18,3.01-1.42,3.62-.26.1-.52.19-.78.29-4.52,1.64-7.84,6.12-8.08,10.91-.26,5.18,2.59,9.93,7.24,12.05,4.76,2.17,10.12,1.24,13.9-2.42,1.49-1.44,2.72-1.43,4.23.03,5.09,4.93,13.11,4.68,17.89-.57,1.55-1.7,2.79-1.74,4.43-.16,3.13,3.03,6.89,4.53,11.5,4.61h.01Z"/><path class="cls-2" d="M54.43,114.11v-5.76c0-.47,0-.94,0-1.41.04-1.42,1.09-2.5,2.45-2.52,1.39-.02,2.51,1.06,2.53,2.52.03,2.18,0,4.37,0,6.55,0,.15,0,.31.03.6.33-.3.56-.52.8-.73,1.03-.87,2.45-.84,3.39.07.94.91,1.07,2.4.15,3.37-1.71,1.81-3.47,3.57-5.28,5.28-.95.9-2.35.83-3.31-.1-1.71-1.65-3.39-3.33-5.04-5.04-.99-1.03-.94-2.55.04-3.51.96-.93,2.4-.94,3.45-.02.22.19.43.39.77.7h.02Z"/><path class="cls-2" d="M77.69,114.12v-6.91c0-1.67,1.03-2.81,2.51-2.8,1.48.01,2.47,1.14,2.47,2.83v6.86c.35-.31.58-.53.81-.73,1.06-.9,2.52-.86,3.45.09.91.93,1.01,2.4.07,3.38-1.7,1.78-3.44,3.52-5.22,5.22-.96.91-2.35.85-3.31-.07-1.71-1.65-3.39-3.33-5.05-5.04-1-1.03-.96-2.54.01-3.51.97-.96,2.44-.96,3.51,0,.2.18.39.36.73.67h.02Z"/><path class="cls-2" d="M100.94,114.14c0-2.51-.02-4.83,0-7.14.02-1.99,1.96-3.19,3.65-2.28.91.49,1.33,1.29,1.33,2.32v7.08c.33-.31.55-.52.78-.72,1.05-.92,2.5-.9,3.45.04s1.04,2.43.08,3.44c-1.66,1.74-3.36,3.44-5.1,5.11-1.02.98-2.43.96-3.44-.02-1.69-1.63-3.35-3.3-4.99-4.98-1.01-1.04-1-2.53-.04-3.51.97-1,2.47-1,3.57,0,.18.17.36.34.7.67h.01Z"/><path class="cls-2" d="M86.18,78.74c-5.73.01-10.41-4.66-10.39-10.39.02-5.71,4.64-10.33,10.35-10.35,5.74,0,10.41,4.66,10.39,10.39-.02,5.71-4.64,10.34-10.35,10.35ZM86.22,62.16c-3.43-.05-6.24,2.69-6.29,6.14-.05,3.43,2.7,6.24,6.15,6.28,3.43.05,6.24-2.7,6.28-6.15.05-3.43-2.7-6.24-6.15-6.28h.01Z"/><path class="cls-2" d="M57.03,67.56c.12-3.21,1.82-6.36,5.38-8.28,3.51-1.89,7.06-1.72,10.5.31.87.51,1.3,1.26,1.13,2.29-.13.79-.76,1.57-1.58,1.6-.64.02-1.37-.18-1.93-.49-3.68-2.04-8.19-.13-9.2,3.95-1.07,4.32,2.84,8.47,7.17,7.52.86-.19,1.7-.78,2.39-1.37,1.1-.94,2.28-1.1,3.17-.23.87.85.82,2.06-.12,3.1-2.64,2.93-7.22,3.63-11.16,1.7-3.52-1.72-5.82-5.44-5.76-10.1h.01Z"/><path class="cls-2" d="M103.45,82.87c.67,0,1.16-.01,1.65,0,1.32.04,2.21.89,2.21,2.08s-.85,2.04-2.21,2.06c-1.82.03-3.65,0-5.47,0-.94,0-1.67-.36-2.09-1.22-.43-.87-.2-1.67.34-2.4,1.24-1.7,2.49-3.39,3.71-5.09.32-.45.6-.93.86-1.41.27-.5.41-1.05-.24-1.34-.66-.29-1.01.11-1.24.71-.4,1.08-1.22,1.62-2.19,1.5-1.3-.16-2.08-1.33-1.78-2.67.6-2.64,3.42-4.34,6.07-3.66,2.74.71,4.45,3.53,3.49,6.15-.53,1.45-1.5,2.74-2.29,4.09-.21.37-.49.71-.83,1.19h.01Z"/></svg>