<?xml version="1.0" encoding="UTF-8"?><svg id="Capa_1" xmlns="http://www.w3.org/2000/svg" viewBox="0 0 160.36 160.36"><defs><style>.cls-1{fill:#0094bc;}.cls-1,.cls-2{stroke-width:0px;}.cls-2{fill:#fff;}</style></defs><circle class="cls-1" cx="80.18" cy="80.18" r="80.18"/><path class="cls-2" d="M70.89,124.2c-1.06-.51-1.39-1.36-1.38-2.51.04-4.7.02-9.4.02-14.1v-1.07h-29.08c-2.1,0-2.78-.68-2.78-2.78v-13.33c0-4.8,2.52-8.33,7.04-9.9,2.35-.82,4.7-1.65,7.06-2.43.6-.2.78-.49.77-1.1-.04-1.49.02-2.98-.04-4.47,0-.36-.24-.81-.52-1.04-1.55-1.29-3.1-2.57-3.68-4.63-.17-.6-.16-1.43-.55-1.73-.41-.31-1.21-.1-1.84-.13-2.01-.08-3.54-.96-4.36-2.82-.81-1.83-.45-3.51.83-5.04.21-.25.3-.66.32-1,.16-2.31.15-4.64.45-6.93.27-2.09,1.23-3.98,2.42-5.73.66-.98,1.34-1.23,2.04-.77.72.47.78,1.22.11,2.17-2.24,3.24-2.65,6.87-2.38,10.71h2.16c.03-.48.05-.96.09-1.44.09-.92.53-1.32,1.45-1.33,3.54-.04,5.32-1.5,6.04-4.94.25-1.2,1.36-1.54,2.35-.69,3.18,2.75,6.8,4.68,10.92,5.52,1.67.34,3.03.69,2.51,2.89h2.41c.38-4.07-.17-7.94-2.77-11.33-4.27-5.59-11.89-7.17-18.04-3.74-.15.08-.3.18-.45.25-.74.36-1.43.2-1.8-.43-.38-.65-.17-1.37.57-1.82,1.88-1.15,3.92-1.9,6.1-2.2,8.92-1.21,16.95,4.38,18.69,13.17.42,2.14.23,4.39.38,6.59.03.48.18,1.02.45,1.39,2.11,2.91.47,6.93-3.09,7.43-.87.12-1.77.1-2.75.14-.18,2.29-1.27,4.11-3.01,5.56-.35.29-.76.54-1.05.88-.25.29-.52.69-.53,1.05-.06,1.52,0,3.04-.03,4.56,0,.49.1.78.63.94.96.28,1.89.64,2.97,1.01v-1.42c.02-1.42.69-2.12,2.11-2.13,3.18-.02,6.37,0,9.55,0h1.04c0-.54-.01-.98,0-1.43.05-1.67,1.26-2.99,2.92-3.01,3.67-.05,7.34-.05,11.01,0,1.61.02,2.83,1.31,2.93,2.93.03.45,0,.91,0,1.51,1.21,0,2.37.03,3.53-.03.19-.01.43-.4.53-.66.84-2.25,1.67-4.51,2.48-6.77.3-.85.82-1.39,1.71-1.64.27-.08.54-.46.65-.77,1.75-4.75,3.48-9.51,5.21-14.27.99-2.73,1.62-3.06,4.5-2.28.22-.57.43-1.15.66-1.72.32-.76.95-1.07,1.65-.84.67.22.99.9.76,1.69-.17.57-.39,1.13-.61,1.76.26.12.47.23.7.32,1.64.65,2.19,1.84,1.59,3.51-1.43,3.96-2.88,7.91-4.32,11.86-.29.81-.58,1.62-.89,2.42-.31.81-.7,1.55,0,2.45.27.35.17,1.14,0,1.64-1.16,3.32-2.35,6.64-3.62,9.92-.21.55-.77,1.06-1.29,1.38-.41.25-.56.45-.55.9.02,2.92,0,5.85,0,8.77,0,.29.01.58-.03.86-.12.72-.56,1.13-1.28,1.16-.67.03-1.23-.52-1.25-1.26-.03-1.66-.02-3.33-.02-4.99v-.87c-.9.83-1.79,1.62-2.64,2.44-.69.66-1.46,1-2.41.8-1.05-.21-1.85-.94-1.96-2.01-.21-2.02-.39-4.05-.43-6.08-.01-.73.44-1.46.65-2.21.07-.25.08-.55,0-.79-.2-.63-.47-1.24-.79-2.07-.59,0-1.44-.02-2.28.02-.14,0-.32.27-.4.46-.64,1.52-1.58,2.16-3.25,2.16h-10.06c-1.59,0-2.67-.67-3.26-2.16-.08-.21-.37-.47-.56-.47-3.15-.02-6.31,0-9.46,0-.05,0-.1.05-.19.09v43.41h37.06v-20.93c0-.32-.01-.63.02-.94.08-.69.49-1.09,1.18-1.13.7-.04,1.15.32,1.3,1,.07.3.07.63.07.94,0,7.05-.01,14.1.02,21.16,0,1.13-.31,2.01-1.34,2.55h-39.57l-.02-.06ZM50.09,81.38c-1.57.54-3.08,1.04-4.58,1.57-3.44,1.2-5.26,3.77-5.27,7.41v13.5h5.91v-10.98c0-.37,0-.75.12-1.1.2-.63.69-.89,1.34-.82.61.07.99.43,1.09,1.04.04.28.03.57.03.86v11.01h20.77v-22.1c-.36-.13-.7-.26-1.09-.4-.17.39-.31.73-.45,1.07-2.14,5.22-4.28,10.43-6.4,15.65-.43,1.06-1.05,1.86-2.3,1.87-1.25,0-1.88-.76-2.31-1.84-1.18-2.95-2.4-5.88-3.61-8.82-1.07-2.62-2.15-5.23-3.25-7.92h0ZM49.99,55.44c.13,2.86.23,5.65.4,8.45.08,1.44.32,2.85,1.41,3.95,1.72,1.74,3.72,3.02,6.04,3.82.99.34,1.96.31,2.94-.04,2.2-.78,4.1-2,5.76-3.63.86-.84,1.36-1.86,1.42-3.04.16-3,.25-6,.39-9,.02-.47-.18-.62-.61-.74-1.4-.4-2.84-.73-4.16-1.33-2.2-1.01-4.31-2.21-6.5-3.36-1.28,2.81-3.59,4.51-7.09,4.92ZM52.93,81.49c2.08,5.08,4.17,10.16,6.31,15.4,2.18-5.31,4.27-10.43,6.44-15.72-4.31,3.03-8.46,3.04-12.75.32ZM115.99,51.21c-1.94,5.33-3.85,10.58-5.78,15.88,1.43.52,2.74.99,4.11,1.48,1.94-5.32,3.84-10.56,5.77-15.85-1.36-.5-2.67-.98-4.1-1.51ZM104.58,78.43c2.27.83,4.48,1.63,6.75,2.46,1.15-3.18,2.28-6.27,3.42-9.41-2.3-.83-4.5-1.63-6.75-2.44-1.16,3.17-2.27,6.25-3.42,9.39ZM63.44,73.58c-1.52.33-2.87.85-4.23.85s-2.7-.53-4.08-.84c.03-.05,0-.02,0,0-.09,1.88-.18,3.76-.24,5.64,0,.15.18.34.32.44,2.29,1.74,6.15,1.59,8.22-.16v-5.93h.01ZM90.68,78.12c1.63,0,3.27-.02,4.9.01.72.02.97-.28.95-.97-.03-.92-.02-1.83,0-2.75.01-.58-.23-.84-.81-.83-3.35,0-6.71.01-10.06,0-.63,0-.87.26-.85.88.03.92.04,1.84,0,2.75-.03.73.29.94.98.93,1.63-.03,3.27-.01,4.9-.01h-.01ZM105.07,81.36c-1.32,2.37-.3,4.73-.31,7.08,1.53-1.82,3.83-2.98,4.31-5.61-1.32-.48-2.63-.97-4-1.47ZM47.55,58.17c-.86.05-1.58.02-2.27.15-.9.16-1.53,1-1.56,1.92-.03.94.58,1.86,1.51,2.03.77.15,1.57.12,2.31.16v-4.26h.01ZM70.95,62.44c.79-.05,1.53-.03,2.25-.16.89-.16,1.47-.93,1.54-1.82.06-.9-.4-1.8-1.24-2.04-.7-.19-1.46-.17-2.19-.18-.11,0-.33.3-.34.46-.03,1.19-.02,2.39-.02,3.74Z"/><path class="cls-2" d="M85.45,90.99c-1.97,0-3.95.01-5.92,0-1.04,0-1.69-.69-1.5-1.53.15-.66.58-1.04,1.28-1.04h12.36c.81,0,1.31.54,1.3,1.28,0,.75-.55,1.27-1.43,1.28-2.03.02-4.06,0-6.1,0h0Z"/><path class="cls-2" d="M85.48,102.31h-5.92c-.72,0-1.3-.24-1.51-1-.24-.85.38-1.56,1.41-1.57,2.15-.02,4.29,0,6.44,0h5.49c1.04,0,1.58.45,1.58,1.27s-.56,1.3-1.57,1.31c-1.97.02-3.95,0-5.92,0h0Z"/><path class="cls-2" d="M85.42,113.61c-2.03,0-4.06.02-6.09-.01-.8-.01-1.34-.57-1.34-1.27s.54-1.21,1.35-1.28c.2-.02.4-.01.6-.01h11.67c.88.07,1.38.57,1.36,1.33-.02.73-.52,1.22-1.37,1.23-2.06.02-4.12,0-6.18,0h0Z"/><path class="cls-2" d="M100.59,99.11c.85-.91,1.66-1.79,2.48-2.66.7-.74,1.42-.83,2.02-.28.58.54.55,1.3-.13,2.03-1.06,1.16-2.13,2.31-3.21,3.45-.82.86-1.51.85-2.33,0-.57-.6-1.14-1.2-1.69-1.82-.62-.7-.62-1.45-.02-1.97.56-.49,1.27-.42,1.9.21.32.32.63.66.98,1.04Z"/></svg>