<?xml version="1.0" encoding="UTF-8"?><svg id="Capa_1" xmlns="http://www.w3.org/2000/svg" viewBox="0 0 160.36 160.36"><defs><style>.cls-1{fill:#0094bc;}.cls-1,.cls-2{stroke-width:0px;}.cls-2{fill:#fff;}</style></defs><circle class="cls-1" cx="80.18" cy="80.18" r="80.18"/><path class="cls-2" d="M43.14,88.45v-26.88c0-3.86,2.3-6.16,6.14-6.16,3.27,0,6.53.02,9.8-.02.57,0,1.18-.11,1.71-.33,11.94-4.75,23.88-9.53,35.81-14.3,3.78-1.51,7.03-.13,8.54,3.65,5.66,14.12,11.31,28.25,16.95,42.38,1.53,3.84.13,7.06-3.71,8.6-5.13,2.06-10.26,4.12-15.4,6.14-.75.3-1.08.63-1.07,1.52.06,4.17.03,8.34.03,12.51,0,3.69-2.29,6.01-5.99,6.01-15.58.01-31.17.01-46.75,0-3.79,0-6.06-2.33-6.06-6.15,0-8.99,0-17.98,0-26.97ZM98.22,95.86c.02-.39.05-.66.05-.93v-33.41c0-1.77-.65-2.41-2.43-2.41h-46.56c-1.83,0-2.44.62-2.44,2.48v33.22c0,.33.03.65.05,1.05,1.18,0,2.27-.06,3.35.02.92.07,1.42-.23,1.89-1.06,4.05-7.1,8.15-14.17,12.24-21.24,1.1-1.91,2.63-1.91,3.73,0,1.91,3.31,3.82,6.62,5.73,9.93.16.28.34.55.56.92,1.08-1.86,2.08-3.61,3.09-5.36,1.1-1.89,2.63-1.88,3.74.02,2.97,5.14,5.97,10.26,8.88,15.44.59,1.05,1.22,1.42,2.39,1.35,1.88-.11,3.78-.03,5.72-.03h.01ZM46.84,99.57v15.76c0,1.99.61,2.59,2.64,2.59h46.1c2.08,0,2.69-.6,2.69-2.64v-15.71h-51.43ZM101.94,97.98c.35-.12.58-.2.8-.29,4.78-1.91,9.57-3.82,14.35-5.74,1.86-.75,2.35-1.91,1.6-3.78-5.65-14.12-11.3-28.24-16.95-42.36-.76-1.9-1.86-2.39-3.75-1.64-9.02,3.6-18.04,7.21-27.06,10.83-.2.08-.38.19-.79.41h25.55c4,0,6.24,2.23,6.24,6.23v36.35h0ZM66.23,77.69c-3.52,6.1-6.95,12.05-10.42,18.05.21.06.29.11.38.11,3.7,0,7.39.02,11.09-.02.3,0,.7-.34.88-.63,1.08-1.78,2.01-3.65,3.17-5.37.82-1.22.79-2.14,0-3.38-1.77-2.8-3.35-5.72-5.1-8.76ZM86.63,95.8c-2.44-4.22-4.81-8.33-7.27-12.6-2.47,4.28-4.84,8.39-7.27,12.6,0,0,14.54,0,14.54,0Z"/><path class="cls-2" d="M107.49,110.57c0-3.06,2.42-5.51,5.48-5.51s5.53,2.45,5.54,5.48c.01,3.01-2.49,5.53-5.51,5.53s-5.5-2.46-5.51-5.5ZM114.8,110.58c.02-1.02-.79-1.84-1.81-1.85-1.03,0-1.85.81-1.85,1.83s.8,1.77,1.78,1.8c1.03.03,1.86-.76,1.88-1.78Z"/><path class="cls-2" d="M113.88,38.86c2.52,0,4.64,2.11,4.62,4.63-.02,2.49-2.09,4.55-4.58,4.57-2.49.02-4.56-2.02-4.6-4.54-.04-2.55,2.02-4.65,4.56-4.66ZM113.67,44.51h.38c.25-.33.73-.69.69-.98-.05-.36-.53-.66-.83-.98-.31.28-.85.55-.87.86-.03.35.4.73.63,1.1Z"/><path class="cls-2" d="M56.94,38.78c.96,1.03,1.76,1.89,2.52,2.71-.76.75-1.6,1.56-2.52,2.46-.72-.75-1.54-1.61-2.41-2.51-.9.95-1.7,1.79-2.45,2.58-.94-.94-1.78-1.78-2.58-2.59.74-.75,1.57-1.57,2.44-2.45.76.84,1.54,1.71,2.48,2.76.94-1.1,1.71-2.01,2.52-2.95h0Z"/><path class="cls-2" d="M49.5,46.54c.73-.71,1.55-1.51,2.37-2.31.76.82,1.55,1.68,2.47,2.69.97-1.13,1.75-2.04,2.5-2.92,1.03,1.04,1.85,1.87,2.68,2.72-.8.75-1.65,1.55-2.57,2.4-.7-.74-1.51-1.59-2.35-2.48-.92.97-1.72,1.82-2.55,2.69-.94-1.02-1.73-1.88-2.56-2.79h0Z"/><path class="cls-2" d="M70.71,42.5c.02.98-.81,1.85-1.8,1.88-.98.02-1.85-.81-1.87-1.8-.02-.98.81-1.85,1.8-1.88.98-.03,1.85.82,1.88,1.8h0Z"/><path class="cls-2" d="M116.65,55.44c-.02.99-.89,1.83-1.87,1.81s-1.83-.9-1.81-1.87c.02-.98.9-1.83,1.87-1.81.99.02,1.82.89,1.8,1.87h0Z"/><path class="cls-2" d="M41.34,53.55c-1.01,0-1.85-.79-1.86-1.79-.02-1,.79-1.83,1.81-1.85,1.01-.02,1.84.79,1.85,1.79,0,1.02-.78,1.83-1.8,1.85Z"/><path class="cls-2" d="M41.28,88.49c0,1.03-.81,1.84-1.83,1.83-1.02,0-1.81-.84-1.79-1.87.02-.99.8-1.77,1.78-1.79,1.01-.02,1.84.81,1.84,1.83Z"/><path class="cls-2" d="M41.28,94.04c0,1.02-.86,1.83-1.87,1.8-.99-.03-1.75-.82-1.76-1.81,0-1.03.8-1.85,1.82-1.84,1.03,0,1.82.82,1.8,1.85h0Z"/><path class="cls-2" d="M41.28,105.08c-.02,1.01-.86,1.82-1.86,1.79-1.01-.03-1.79-.87-1.76-1.89.02-1.01.86-1.81,1.86-1.78,1.01.03,1.79.86,1.76,1.88Z"/><path class="cls-2" d="M41.28,83.02c-.02,1.02-.85,1.81-1.88,1.78-.99-.04-1.74-.82-1.75-1.82,0-1.03.81-1.83,1.83-1.82,1.03.01,1.81.82,1.79,1.86h0Z"/><path class="cls-2" d="M39.48,101.34c-1.03,0-1.83-.8-1.82-1.84,0-1.03.82-1.83,1.85-1.81.98.02,1.76.81,1.77,1.79,0,1.04-.78,1.84-1.81,1.85h.01Z"/><path class="cls-2" d="M111.11,119.76c0,1.03-.82,1.81-1.85,1.79s-1.8-.84-1.76-1.88c.03-.99.81-1.74,1.81-1.74s1.82.8,1.81,1.83h0Z"/><path class="cls-2" d="M82.65,75.61c-3.53,0-6.42-2.88-6.43-6.4,0-3.51,2.88-6.42,6.4-6.45,3.55-.04,6.46,2.88,6.45,6.47,0,3.55-2.86,6.38-6.42,6.38ZM85.4,69.21c0-1.48-1.21-2.73-2.69-2.77-1.5-.03-2.8,1.24-2.81,2.74,0,1.51,1.29,2.79,2.79,2.77,1.48-.02,2.71-1.27,2.71-2.75h0Z"/><path class="cls-2" d="M73.78,116.07c-3.17,0-6.34.03-9.51,0-2.32-.03-4.26-1.76-4.52-3.93-.28-2.4,1.11-4.53,3.4-5.09.65-.16,1.36-.14,2.04-.15,1.34-.02,2.67-.01,4.01,0,.72,0,1.51,0,1.5-.95,0-.89-.76-.89-1.45-.89h-14.93c-1.15-.06-1.96-.81-1.97-1.83,0-1.02.79-1.86,1.93-1.86,5.22-.02,10.45-.05,15.67.02,2.54.03,4.44,2.11,4.43,4.6,0,2.51-1.9,4.45-4.48,4.54-1.58.06-3.17.02-4.76.02h-.75c-.61.03-1.04.33-1,.98.03.59.44.85,1.02.85h18.29c.28,0,.56-.01.84,0,1.15.09,1.9.87,1.85,1.92-.04,1.01-.79,1.74-1.92,1.76-1.59.03-3.17,0-4.76,0h-4.94.01Z"/><path class="cls-2" d="M89.07,112.39c.99,0,1.83.82,1.84,1.82,0,1-.81,1.84-1.81,1.86-.99.01-1.84-.83-1.85-1.82s.82-1.85,1.81-1.86h.01Z"/></svg>