<?xml version="1.0" encoding="UTF-8"?><svg id="Capa_1" xmlns="http://www.w3.org/2000/svg" viewBox="0 0 160.36 160.36"><defs><style>.cls-1{fill:#0094bc;}.cls-1,.cls-2{stroke-width:0px;}.cls-2{fill:#fff;}</style></defs><circle class="cls-1" cx="80.18" cy="80.18" r="80.18"/><path class="cls-2" d="M99.02,28.33c.43.41.96.76,1.27,1.25,6.7,10.65,12.99,21.53,18.08,33.06,1.64,3.7,3.16,7.46,3.92,11.45,1.26,6.66-.43,12.71-4.48,17.99-5.8,7.55-13.63,10.9-23.04,9.42-9.72-1.52-16.22-7.27-19.51-16.58-.1-.29-.2-.58-.26-.87-.23-1.05.36-2.09,1.36-2.4.98-.3,2.01.15,2.43,1.12.3.71.5,1.47.78,2.19,3.25,8.31,12.05,13.75,20.62,12.77,9.54-1.1,16.84-7.96,18.25-17.07.52-3.34-.07-6.51-1.14-9.64-2.46-7.21-5.88-13.97-9.52-20.62-2.96-5.41-6.09-10.72-9.34-16.42-.21.43-.29.61-.39.77-6.04,10.02-11.91,20.13-16.52,30.92-.33.77-.64,1.56-.95,2.34-.61,1.52-1.65,2.12-2.85,1.63-1.16-.48-1.5-1.62-.93-3.08,2.56-6.54,5.67-12.82,9.12-18.93,3.36-5.96,6.9-11.82,10.4-17.7.36-.61.98-1.06,1.48-1.59h1.22Z"/><path class="cls-2" d="M51.87,102.63c-7.87-.17-14.33-6.65-14.21-14.42.04-2.48.95-4.75,1.91-6.97,2.8-6.46,6.53-12.39,10.46-18.2.97-1.43,2.57-1.49,3.51-.09,4.35,6.46,8.45,13.06,11.37,20.34,3.36,8.38-1.92,16.39-8.72,18.46-1.4.43-2.89.6-4.33.89h.01ZM51.92,67.71c-.18.15-.27.2-.32.28-3.18,4.94-6.26,9.93-8.5,15.38-.65,1.57-1.3,3.28-1.32,4.93-.05,4.27,2.05,7.44,5.95,9.19s7.65,1.17,10.82-1.7c3.12-2.82,4.21-6.35,2.79-10.45-1.49-4.33-3.77-8.27-6.07-12.2-1.07-1.82-2.21-3.59-3.35-5.43Z"/><path class="cls-2" d="M74.09,132.03c-5.74,0-10.98-4.7-11.96-10.56-.46-2.73.22-5.21,1.22-7.67,2.37-5.84,5.62-11.19,9.05-16.44.84-1.28,2.5-1.38,3.31-.13,3.97,6.1,7.94,12.24,10.07,19.28,2.24,7.4-3.96,15.53-11.69,15.52ZM74.2,102.03c-.55.89-.92,1.45-1.26,2.03-2.4,4.1-4.79,8.2-6.41,12.7-.7,1.94-.64,3.83.1,5.72,1.65,4.2,5.96,6.43,9.83,5.08,4.22-1.47,6.76-6.6,5.34-10.36-.63-1.67-1.24-3.36-2.06-4.94-1.74-3.37-3.61-6.68-5.55-10.24h0Z"/><path class="cls-2" d="M98.95,93.74c-1.61.03-2.58-.75-2.56-2.05.02-1.19.9-1.95,2.32-2,5.13-.18,9.52-3.37,11.16-8.2.39-1.16.55-2.42.67-3.66.14-1.43.91-2.36,2.13-2.31,1.18.05,1.94.98,1.94,2.37-.02,8.38-7.25,15.69-15.65,15.84h0Z"/><path class="cls-2" d="M76.15,73.5c1.08,0,1.98.9,2,1.98.02,1.12-.92,2.06-2.03,2.05-1.12,0-2.04-.97-2-2.08.04-1.08.95-1.96,2.03-1.95Z"/></svg>