<?xml version="1.0" encoding="UTF-8"?><svg id="Capa_1" xmlns="http://www.w3.org/2000/svg" viewBox="0 0 160.36 160.36"><defs><style>.cls-1{fill:#dcaecb;}.cls-1,.cls-2{stroke-width:0px;}.cls-2{fill:#fff;}</style></defs><circle class="cls-1" cx="80.18" cy="80.18" r="80.18"/><path class="cls-2" d="M40.03,128.2c-1.73-.69-2.5-1.96-2.35-3.82.06-.68,0-1.38.03-2.06.05-1.28.66-2.22,1.83-2.71.51-.21.62-.49.62-.98-.02-1.97-.02-3.94,0-5.91.02-3.69,2.22-5.89,5.9-5.9h24.95c0-.68-.02-1.3,0-1.91.05-1.53.7-2.73,2.12-3.37.55-.25.62-.58.62-1.08-.01-4.72-.02-9.44,0-14.17,0-.66-.17-.95-.85-1.16-10.07-3.14-16.54-9.8-19.04-20.05-3.63-14.92,6.81-30.29,21.98-32.59,14.36-2.17,27.4,6.64,30.7,20.77.18.79.31,1.59.43,2.4.16,1.06-.29,1.78-1.16,1.92-.84.13-1.47-.46-1.62-1.53-1.08-7.34-4.65-13.13-10.85-17.2-14.48-9.49-34.22-.78-37,16.3-2.2,13.51,6.97,26.01,20.54,27.99,12.74,1.85,25.16-7.26,27.15-19.91.03-.22.08-.43.13-.64.23-.89.81-1.31,1.62-1.18.78.12,1.32.79,1.1,1.66-.56,2.23-.98,4.55-1.88,6.64-3.38,7.83-9.25,12.97-17.44,15.41-.75.22-.95.53-.95,1.28.04,4.66.03,9.32,0,13.98,0,.59.11.94.71,1.22,1.33.63,1.97,1.78,2.03,3.24.03.62,0,1.24,0,2.01h24.96c3.68,0,5.88,2.2,5.9,5.89,0,1.97.01,3.94,0,5.91,0,.49.1.77.61.98,1.13.47,1.75,1.38,1.82,2.62.03.69-.02,1.38.04,2.06.16,1.88-.56,3.21-2.35,3.91h-37.34c-.64-.46-1.16-.99-.84-1.87.31-.86,1.04-.99,1.84-.95.22.01.44,0,.66,0h33.86c.25,0,.53.07.74-.02.23-.09.56-.31.58-.5.06-.86.03-1.73.03-2.65H40.5c0,.73.05,1.41,0,2.09-.08.84.19,1.11,1.08,1.1,11.6-.03,23.2-.02,34.79-.03.8,0,1.53.09,1.84.95.32.88-.21,1.4-.84,1.87h-37.34,0ZM117.4,119.3c0-2.35.02-4.6,0-6.85-.02-1.82-1.06-2.81-2.89-2.82H45.86c-1.83,0-2.86,1-2.89,2.82-.03,2.06,0,4.13,0,6.19,0,.21.06.41.09.65h74.35-.01ZM76.64,86.07v15.03h7.09v-15.03h-7.09ZM73.86,106.74h12.69v-1.2c0-1.42-.15-1.58-1.54-1.58h-8.72q-2.62,0-2.43,2.77h0Z"/><path class="cls-2" d="M80.15,38.26c11.52-.03,20.87,9.28,20.91,20.83.04,11.56-9.33,20.95-20.89,20.93-11.54-.01-20.86-9.34-20.86-20.87s9.3-20.86,20.85-20.89h0ZM65.29,69.45c4,5.29,9.22,8.05,15.89,7.71,5.85-.3,10.41-3.03,13.87-7.74-1.36-.95-1.66-1.51-1.21-2.3.72-1.28,1.71-.7,2.67-.26.95-2.03,1.53-4.06,1.66-6.23-1.62-.24-2.16-.57-2.18-1.4,0-.29.07-.73.26-.86.57-.37,1.21-.61,1.94-.95-.23-1.99-.69-4.07-1.7-6-1.44.63-2.12.61-2.55-.12-.16-.28-.33-.73-.21-.96.3-.57.76-1.05,1.31-1.77-1.42-1.41-2.93-2.91-4.46-4.44-1.11,1.51-1.68,1.79-2.46,1.31-.25-.15-.58-.44-.59-.67-.02-.65.12-1.29.23-2.22-1.91-.51-3.96-1.06-6.03-1.61-.3,1.86-.66,2.38-1.51,2.4-.84.02-1.2-.47-1.61-2.4-2.06.56-4.11,1.11-6.18,1.67.68,1.74.63,2.36-.11,2.82-.76.47-1.33.21-2.56-1.27-1.52,1.52-3.03,3.03-4.55,4.56,1.5,1.21,1.73,1.69,1.32,2.47-.43.81-1.05.88-2.68.27-.94,1.97-1.52,4.02-1.64,6.21,1.57.16,2.15.55,2.19,1.42.04.88-.48,1.26-2.21,1.57.19,2.18.7,4.26,1.71,6.22,1.38-.68,2.1-.63,2.57.11.51.8.22,1.44-1.16,2.46h-.02Z"/><path class="cls-2" d="M86.45,59.05c-.16,2.87-1.34,4.85-3.78,5.91-2.39,1.05-4.68.69-6.63-1.04-2.01-1.79-2.69-4.13-1.76-6.63,1.11-3.01,2.5-5.91,3.8-8.85.39-.88,1.12-1.31,2.09-1.32.97,0,1.71.43,2.1,1.3,1.3,2.94,2.58,5.88,3.81,8.85.26.62.28,1.33.37,1.78ZM80.3,50.86c-.08,0-.17,0-.25,0-1.04,2.43-2.12,4.84-3.11,7.29-.56,1.38-.01,2.95,1.16,3.84,1.17.88,2.71.94,3.94.14,1.24-.8,1.96-2.37,1.44-3.74-.97-2.55-2.11-5.03-3.18-7.54Z"/><path class="cls-2" d="M80.21,71.39c-.81,0-1.63.02-2.44,0-.86-.03-1.37-.54-1.4-1.33-.02-.78.45-1.4,1.3-1.43,1.65-.06,3.31-.06,4.96,0,.89.03,1.4.67,1.35,1.48-.04.78-.56,1.24-1.43,1.29h-2.35.01Z"/><path class="cls-2" d="M81.49,59.29c0,.92-.54,1.54-1.36,1.57-.86.02-1.46-.63-1.45-1.57.01-.9.59-1.53,1.41-1.53s1.39.63,1.4,1.54h0Z"/></svg>