<?xml version="1.0" encoding="UTF-8"?><svg id="Capa_1" xmlns="http://www.w3.org/2000/svg" viewBox="0 0 1709.54 924.58"><defs><style>.cls-1{fill:#aea4c7;}.cls-1,.cls-2{stroke-width:0px;}.cls-2{fill:#fff;}</style></defs><circle class="cls-1" cx="562.45" cy="524.97" r="80.18"/><circle class="cls-1" cx="537.52" cy="783.97" r="80.18"/><circle class="cls-1" cx="514.93" cy="103.77" r="80.18"/><circle class="cls-1" cx="372.5" cy="608.29" r="80.18"/><circle class="cls-1" cx="734.97" cy="121.86" r="80.18"/><circle class="cls-1" cx="1629.36" cy="830.17" r="80.18"/><circle class="cls-1" cx="113.7" cy="717.52" r="80.18"/><circle class="cls-1" cx="222.09" cy="425.75" r="80.18"/><circle class="cls-1" cx="279.39" cy="80.18" r="80.18"/><circle class="cls-1" cx="402.09" cy="323.99" r="80.18"/><circle class="cls-1" cx="654.79" cy="314.37" r="80.18"/><circle class="cls-1" cx="336.59" cy="844.4" r="80.18"/><circle class="cls-1" cx="918.58" cy="202.04" r="80.18"/><circle class="cls-1" cx="80.18" cy="225.73" r="80.18"/><path class="cls-2" d="M73.41,192.72v-5.02c-.67,0-1.32.01-1.96,0-2.86-.06-4.69-1.93-4.71-4.78,0-1.4-.02-2.8,0-4.19.05-2.49,1.88-4.41,4.37-4.42,6.04-.04,12.09-.04,18.13,0,2.43.02,4.26,1.93,4.32,4.37.04,1.47.02,2.93,0,4.4-.03,2.62-1.81,4.47-4.44,4.61-.7.04-1.39,0-2.26,0v4.98c13.71,2.59,24.13,9.82,30.78,22.09,4.99,9.2,6.23,19.05,3.96,29.24-4.5,20.14-23.14,34.83-45.04,33.01-20.54-1.7-36.94-17.92-38.74-38.65-1.93-22.1,13.48-42.01,35.58-45.65ZM42.15,234.61c0,21.03,17,38.07,37.93,38.06,21.05-.02,38.03-16.97,38.07-38.04.05-20.92-17.06-38.04-37.99-38.01-20.99.03-38.02,17.04-38.01,37.99ZM71.24,183.13h17.81v-4.31h-17.81v4.31ZM82.35,187.77h-4.37v4.4h4.37v-4.4Z"/><path class="cls-2" d="M80.11,268.21c-18.39.02-33.49-15.06-33.5-33.47-.02-18.55,14.94-33.59,33.43-33.61,18.63-.03,33.66,14.98,33.67,33.6,0,18.44-15.07,33.47-33.59,33.49ZM51.06,234.67c.02,15.99,13.03,29.02,29.01,29.03,16.16,0,29.23-13.07,29.17-29.19-.06-15.96-13.12-28.95-29.12-28.93-16.04.02-29.08,13.07-29.06,29.09Z"/><path class="cls-2" d="M82.41,232.41c.83,0,1.55,0,2.28,0,2.2,0,4.4-.02,6.6.01,1.29.02,2.23.95,2.27,2.14.05,1.2-.85,2.26-2.11,2.27-3.81.04-7.62.04-11.43,0-1.37-.02-2.12-.99-2.12-2.59-.01-4.68,0-9.36,0-14.05,0-1.19-.05-2.38.04-3.56.09-1.27,1.01-2.07,2.2-2.08,1.19,0,2.07.79,2.23,2.06.04.34.03.7.03,1.05,0,4.51,0,9.01,0,13.52v1.23Z"/><path class="cls-2" d="M909.3,246.06c-1.06-.51-1.39-1.36-1.38-2.51.04-4.7.02-9.4.02-14.1,0-.31,0-.63,0-1.07-.38,0-.71,0-1.04,0-9.35,0-18.69,0-28.04,0-2.1,0-2.78-.68-2.78-2.78,0-4.44,0-8.89,0-13.33,0-4.8,2.52-8.33,7.04-9.9,2.35-.82,4.7-1.65,7.06-2.43.6-.2.78-.49.77-1.1-.04-1.49.02-2.98-.04-4.47-.01-.36-.24-.81-.52-1.04-1.55-1.29-3.1-2.57-3.68-4.63-.17-.6-.16-1.43-.55-1.73-.41-.31-1.21-.1-1.84-.13-2.01-.08-3.54-.96-4.36-2.82-.81-1.83-.45-3.51.83-5.04.21-.25.3-.66.32-1,.16-2.31.15-4.64.45-6.93.27-2.09,1.23-3.98,2.42-5.73.66-.98,1.34-1.23,2.04-.77.72.47.78,1.22.11,2.17-2.24,3.24-2.65,6.87-2.38,10.71h2.16c.03-.48.05-.96.09-1.44.09-.92.53-1.32,1.45-1.33,3.54-.04,5.32-1.5,6.04-4.94.25-1.2,1.36-1.54,2.35-.69,3.18,2.75,6.8,4.68,10.92,5.52,1.67.34,3.03.69,2.51,2.89h2.41c.38-4.07-.17-7.94-2.77-11.33-4.27-5.59-11.89-7.17-18.04-3.74-.15.08-.3.18-.45.25-.74.36-1.43.2-1.8-.43-.38-.65-.17-1.37.57-1.82,1.88-1.15,3.92-1.9,6.1-2.2,8.92-1.21,16.95,4.38,18.69,13.17.42,2.14.23,4.39.38,6.59.03.48.18,1.02.45,1.39,2.11,2.91.47,6.93-3.09,7.43-.87.12-1.77.1-2.75.14-.18,2.29-1.27,4.11-3.01,5.56-.35.29-.76.54-1.05.88-.25.29-.52.69-.53,1.05-.06,1.52,0,3.04-.03,4.56,0,.49.1.78.63.94.96.28,1.89.64,2.97,1.01,0-.54,0-.98,0-1.42.02-1.42.69-2.12,2.11-2.13,3.18-.02,6.37,0,9.55,0,.31,0,.62,0,1.04,0,0-.54-.01-.98,0-1.43.05-1.67,1.26-2.99,2.92-3.01,3.67-.05,7.34-.05,11.01,0,1.61.02,2.83,1.31,2.93,2.93.03.45,0,.91,0,1.51,1.21,0,2.37.03,3.53-.03.19-.01.43-.4.53-.66.84-2.25,1.67-4.51,2.48-6.77.3-.85.82-1.39,1.71-1.64.27-.08.54-.46.65-.77,1.75-4.75,3.48-9.51,5.21-14.27.99-2.73,1.62-3.06,4.5-2.28.22-.57.43-1.15.66-1.72.32-.76.95-1.07,1.65-.84.67.22.99.9.76,1.69-.17.57-.39,1.13-.61,1.76.26.12.47.23.7.32,1.64.65,2.19,1.84,1.59,3.51-1.43,3.96-2.88,7.91-4.32,11.86-.29.81-.58,1.62-.89,2.42-.31.81-.7,1.55,0,2.45.27.35.17,1.14,0,1.64-1.16,3.32-2.35,6.64-3.62,9.92-.21.55-.77,1.06-1.29,1.38-.41.25-.56.45-.55.9.02,2.92,0,5.85,0,8.77,0,.29.01.58-.03.86-.12.72-.56,1.13-1.28,1.16-.67.03-1.23-.52-1.25-1.26-.03-1.66-.02-3.33-.02-4.99,0-.3,0-.61,0-.87-.9.83-1.79,1.62-2.64,2.44-.69.66-1.46,1-2.41.8-1.05-.21-1.85-.94-1.96-2.01-.21-2.02-.39-4.05-.43-6.08-.01-.73.44-1.46.65-2.21.07-.25.08-.55,0-.79-.2-.63-.47-1.24-.79-2.07-.59,0-1.44-.02-2.28.02-.14,0-.32.27-.4.46-.64,1.52-1.58,2.16-3.25,2.16-3.35,0-6.71,0-10.06,0-1.59,0-2.67-.67-3.26-2.16-.08-.21-.37-.47-.56-.47-3.15-.02-6.31,0-9.46,0-.05,0-.1.05-.19.09v43.41h37.06v-.98c0-6.65,0-13.3,0-19.95,0-.32-.01-.63.02-.94.08-.69.49-1.09,1.18-1.13.7-.04,1.15.32,1.3,1,.07.3.07.63.07.94,0,7.05-.01,14.1.02,21.16,0,1.13-.31,2.01-1.34,2.55h-39.57ZM888.5,203.24c-1.57.54-3.08,1.04-4.58,1.57-3.44,1.2-5.26,3.77-5.27,7.41,0,4.21,0,8.43,0,12.64,0,.3,0,.6,0,.86h5.91c0-3.71,0-7.35,0-10.98,0-.37,0-.75.12-1.1.2-.63.69-.89,1.34-.82.61.07.99.43,1.09,1.04.04.28.03.57.03.86,0,3.35,0,6.71,0,10.06,0,.31,0,.61,0,.95h20.77v-22.1c-.36-.13-.7-.26-1.09-.4-.17.39-.31.73-.45,1.07-2.14,5.22-4.28,10.43-6.4,15.65-.43,1.06-1.05,1.86-2.3,1.87-1.25,0-1.88-.76-2.31-1.84-1.18-2.95-2.4-5.88-3.61-8.82-1.07-2.62-2.15-5.23-3.25-7.92ZM888.39,177.3c.13,2.86.23,5.65.4,8.45.08,1.44.32,2.85,1.41,3.95,1.72,1.74,3.72,3.02,6.04,3.82.99.34,1.96.31,2.94-.04,2.2-.78,4.1-2,5.76-3.63.86-.84,1.36-1.86,1.42-3.04.16-3,.25-6,.39-9,.02-.47-.18-.62-.61-.74-1.4-.4-2.84-.73-4.16-1.33-2.2-1.01-4.31-2.21-6.5-3.36-1.28,2.81-3.59,4.51-7.09,4.92ZM891.33,203.35c2.08,5.08,4.17,10.16,6.31,15.4,2.18-5.31,4.27-10.43,6.44-15.72-4.31,3.03-8.46,3.04-12.75.32ZM954.39,173.07c-1.94,5.33-3.85,10.58-5.78,15.88,1.43.52,2.74.99,4.11,1.48,1.94-5.32,3.84-10.56,5.77-15.85-1.36-.5-2.67-.98-4.1-1.51ZM942.98,200.29c2.27.83,4.48,1.63,6.75,2.46,1.15-3.18,2.28-6.27,3.42-9.41-2.3-.83-4.5-1.63-6.75-2.44-1.16,3.17-2.27,6.25-3.42,9.39ZM901.85,195.43c-1.52.33-2.87.85-4.23.85-1.35,0-2.7-.53-4.08-.84.03-.05,0-.02,0,0-.09,1.88-.18,3.76-.24,5.64,0,.15.18.34.32.44,2.29,1.74,6.15,1.59,8.22-.16v-5.93ZM929.08,199.98c1.63,0,3.27-.02,4.9.01.72.02.97-.28.95-.97-.03-.92-.02-1.83,0-2.75.01-.58-.23-.84-.81-.83-3.35,0-6.71.01-10.06,0-.63,0-.87.26-.85.88.03.92.04,1.84,0,2.75-.03.73.29.94.98.93,1.63-.03,3.27-.01,4.9-.01ZM943.47,203.22c-1.32,2.37-.3,4.73-.31,7.08,1.53-1.82,3.83-2.98,4.31-5.61-1.32-.48-2.63-.97-4-1.47ZM885.95,180.03c-.86.05-1.58.02-2.27.15-.9.16-1.53,1-1.56,1.92-.03.94.58,1.86,1.51,2.03.77.15,1.57.12,2.31.16v-4.26ZM909.35,184.3c.79-.05,1.53-.03,2.25-.16.89-.16,1.47-.93,1.54-1.82.06-.9-.4-1.8-1.24-2.04-.7-.19-1.46-.17-2.19-.18-.11,0-.33.3-.34.46-.03,1.19-.02,2.39-.02,3.74Z"/><path class="cls-2" d="M923.86,212.85c-1.97,0-3.95.01-5.92,0-1.04,0-1.69-.69-1.5-1.53.15-.66.58-1.04,1.28-1.04,4.12,0,8.24,0,12.36,0,.81,0,1.31.54,1.3,1.28,0,.75-.55,1.27-1.43,1.28-2.03.02-4.06,0-6.1,0Z"/><path class="cls-2" d="M923.88,224.17c-1.97,0-3.95,0-5.92,0-.72,0-1.3-.24-1.51-1-.24-.85.38-1.56,1.41-1.57,2.15-.02,4.29,0,6.44,0,1.83,0,3.66,0,5.49,0,1.04,0,1.58.45,1.58,1.27,0,.81-.56,1.3-1.57,1.31-1.97.02-3.95,0-5.92,0Z"/><path class="cls-2" d="M923.83,235.47c-2.03,0-4.06.02-6.09-.01-.8-.01-1.34-.57-1.34-1.27,0-.7.54-1.21,1.35-1.28.2-.02.4-.01.6-.01,3.69,0,7.38,0,11.07,0,.2,0,.4,0,.6,0,.88.07,1.38.57,1.36,1.33-.02.73-.52,1.22-1.37,1.23-2.06.02-4.12,0-6.18,0Z"/><path class="cls-2" d="M938.99,220.97c.85-.91,1.66-1.79,2.48-2.66.7-.74,1.42-.83,2.02-.28.58.54.55,1.3-.13,2.03-1.06,1.16-2.13,2.31-3.21,3.45-.82.86-1.51.85-2.33,0-.57-.6-1.14-1.2-1.69-1.82-.62-.7-.62-1.45-.02-1.97.56-.49,1.27-.42,1.9.21.32.32.63.66.98,1.04Z"/><path class="cls-2" d="M299.55,852.67c0-8.96,0-17.92,0-26.88,0-3.86,2.3-6.16,6.14-6.16,3.27,0,6.53.02,9.8-.02.57,0,1.18-.11,1.71-.33,11.94-4.75,23.88-9.53,35.81-14.3,3.78-1.51,7.03-.13,8.54,3.65,5.66,14.12,11.31,28.25,16.95,42.38,1.53,3.84.13,7.06-3.71,8.6-5.13,2.06-10.26,4.12-15.4,6.14-.75.3-1.08.63-1.07,1.52.06,4.17.03,8.34.03,12.51,0,3.69-2.29,6.01-5.99,6.01-15.58.01-31.17.01-46.75,0-3.79,0-6.06-2.33-6.06-6.15,0-8.99,0-17.98,0-26.97ZM354.63,860.08c.02-.39.05-.66.05-.93,0-11.14,0-22.27,0-33.41,0-1.77-.65-2.41-2.43-2.41-15.52,0-31.04,0-46.56,0-1.83,0-2.44.62-2.44,2.48,0,11.07,0,22.15,0,33.22,0,.33.03.65.05,1.05,1.18,0,2.27-.06,3.35.02.92.07,1.42-.23,1.89-1.06,4.05-7.1,8.15-14.17,12.24-21.24,1.1-1.91,2.63-1.91,3.73,0,1.91,3.31,3.82,6.62,5.73,9.93.16.28.34.55.56.92,1.08-1.86,2.08-3.61,3.09-5.36,1.1-1.89,2.63-1.88,3.74.02,2.97,5.14,5.97,10.26,8.88,15.44.59,1.05,1.22,1.42,2.39,1.35,1.88-.11,3.78-.03,5.72-.03ZM303.25,863.79c0,.4,0,.71,0,1.01,0,4.92,0,9.83,0,14.75,0,1.99.61,2.59,2.64,2.59,15.37,0,30.73,0,46.1,0,2.08,0,2.69-.6,2.69-2.64,0-4.88,0-9.77,0-14.65v-1.06h-51.43ZM358.35,862.21c.35-.12.58-.2.8-.29,4.78-1.91,9.57-3.82,14.35-5.74,1.86-.75,2.35-1.91,1.6-3.78-5.65-14.12-11.3-28.24-16.95-42.36-.76-1.9-1.86-2.39-3.75-1.64-9.02,3.6-18.04,7.21-27.06,10.83-.2.08-.38.19-.79.41.62,0,.96,0,1.3,0,8.08,0,16.17,0,24.25,0,4,0,6.24,2.23,6.24,6.23,0,11.69,0,23.38,0,35.08v1.27ZM322.65,841.91c-3.52,6.1-6.95,12.05-10.42,18.05.21.06.29.11.38.11,3.7,0,7.39.02,11.09-.02.3,0,.7-.34.88-.63,1.08-1.78,2.01-3.65,3.17-5.37.82-1.22.79-2.14,0-3.38-1.77-2.8-3.35-5.72-5.1-8.76ZM343.04,860.02c-2.44-4.22-4.81-8.33-7.27-12.6-2.47,4.28-4.84,8.39-7.27,12.6h14.54Z"/><path class="cls-2" d="M363.9,874.79c0-3.06,2.42-5.51,5.48-5.51,3.04,0,5.53,2.45,5.54,5.48.01,3.01-2.49,5.53-5.51,5.53-3.03,0-5.5-2.46-5.51-5.5ZM371.22,874.81c.02-1.02-.79-1.84-1.81-1.85-1.03,0-1.85.81-1.85,1.83,0,.97.8,1.77,1.78,1.8,1.03.03,1.86-.76,1.88-1.78Z"/><path class="cls-2" d="M370.29,803.09c2.52-.01,4.64,2.11,4.62,4.63-.02,2.49-2.09,4.55-4.58,4.57-2.49.02-4.56-2.02-4.6-4.54-.04-2.55,2.02-4.65,4.56-4.66ZM370.08,808.73c.13,0,.26,0,.38,0,.25-.33.73-.69.69-.98-.05-.36-.53-.66-.83-.98-.31.28-.85.55-.87.86-.03.35.4.73.63,1.1Z"/><path class="cls-2" d="M313.35,803c.96,1.03,1.76,1.89,2.52,2.71-.76.75-1.6,1.56-2.52,2.46-.72-.75-1.54-1.61-2.41-2.51-.9.95-1.7,1.79-2.45,2.58-.94-.94-1.78-1.78-2.58-2.59.74-.75,1.57-1.57,2.44-2.45.76.84,1.54,1.71,2.48,2.76.94-1.1,1.71-2.01,2.52-2.95Z"/><path class="cls-2" d="M305.91,810.77c.73-.71,1.55-1.51,2.37-2.31.76.82,1.55,1.68,2.47,2.69.97-1.13,1.75-2.04,2.5-2.92,1.03,1.04,1.85,1.87,2.68,2.72-.8.75-1.65,1.55-2.57,2.4-.7-.74-1.51-1.59-2.35-2.48-.92.97-1.72,1.82-2.55,2.69-.94-1.02-1.73-1.88-2.56-2.79Z"/><path class="cls-2" d="M327.13,806.73c.02.98-.81,1.85-1.8,1.88-.98.02-1.85-.81-1.87-1.8-.02-.98.81-1.85,1.8-1.88.98-.03,1.85.82,1.88,1.8Z"/><path class="cls-2" d="M373.06,819.66c-.02.99-.89,1.83-1.87,1.81-.98-.02-1.83-.9-1.81-1.87.02-.98.9-1.83,1.87-1.81.99.02,1.82.89,1.8,1.87Z"/><path class="cls-2" d="M297.75,817.78c-1.01.01-1.85-.79-1.86-1.79-.02-1,.79-1.83,1.81-1.85,1.01-.02,1.84.79,1.85,1.79.01,1.02-.78,1.83-1.8,1.85Z"/><path class="cls-2" d="M297.7,852.71c0,1.03-.81,1.84-1.83,1.83-1.02,0-1.81-.84-1.79-1.87.02-.99.8-1.77,1.78-1.79,1.01-.02,1.84.81,1.84,1.83Z"/><path class="cls-2" d="M297.7,858.26c-.01,1.02-.86,1.83-1.87,1.8-.99-.03-1.75-.82-1.76-1.81,0-1.03.8-1.85,1.82-1.84,1.03,0,1.82.82,1.8,1.85Z"/><path class="cls-2" d="M297.7,869.31c-.02,1.01-.86,1.82-1.86,1.79-1.01-.03-1.79-.87-1.76-1.89.02-1.01.86-1.81,1.86-1.78,1.01.03,1.79.86,1.76,1.88Z"/><path class="cls-2" d="M297.7,847.24c-.02,1.02-.85,1.81-1.88,1.78-.99-.04-1.74-.82-1.75-1.82,0-1.03.81-1.83,1.83-1.82,1.03.01,1.81.82,1.79,1.86Z"/><path class="cls-2" d="M295.89,865.56c-1.03,0-1.83-.8-1.82-1.84,0-1.03.82-1.83,1.85-1.81.98.02,1.76.81,1.77,1.79.01,1.04-.78,1.84-1.81,1.85Z"/><path class="cls-2" d="M367.53,883.98c0,1.03-.82,1.81-1.85,1.79-1.03-.02-1.8-.84-1.76-1.88.03-.99.81-1.74,1.81-1.74,1.03,0,1.82.8,1.81,1.83Z"/><path class="cls-2" d="M339.06,839.83c-3.53,0-6.42-2.88-6.43-6.4,0-3.51,2.88-6.42,6.4-6.45,3.55-.04,6.46,2.88,6.45,6.47,0,3.55-2.86,6.38-6.42,6.38ZM341.82,833.43c0-1.48-1.21-2.73-2.69-2.77-1.5-.03-2.8,1.24-2.81,2.74,0,1.51,1.29,2.79,2.79,2.77,1.48-.02,2.71-1.27,2.71-2.75Z"/><path class="cls-2" d="M330.19,880.29c-3.17,0-6.34.03-9.51,0-2.32-.03-4.26-1.76-4.52-3.93-.28-2.4,1.11-4.53,3.4-5.09.65-.16,1.36-.14,2.04-.15,1.34-.02,2.67-.01,4.01,0,.72,0,1.51,0,1.5-.95,0-.89-.76-.89-1.45-.89-4.73,0-9.45,0-14.18,0-.25,0-.5,0-.75,0-1.15-.06-1.96-.81-1.97-1.83-.01-1.02.79-1.86,1.93-1.86,5.22-.02,10.45-.05,15.67.02,2.54.03,4.44,2.11,4.43,4.6,0,2.51-1.9,4.45-4.48,4.54-1.58.06-3.17.02-4.76.02-.25,0-.5,0-.75,0-.61.03-1.04.33-1,.98.03.59.44.85,1.02.85.9,0,1.8,0,2.71,0,5.19,0,10.39,0,15.58,0,.28,0,.56-.01.84,0,1.15.09,1.9.87,1.85,1.92-.04,1.01-.79,1.74-1.92,1.76-1.59.03-3.17,0-4.76,0-1.65,0-3.3,0-4.94,0h0Z"/><path class="cls-2" d="M345.48,876.61c.99,0,1.83.82,1.84,1.82,0,1-.81,1.84-1.81,1.86-.99.01-1.84-.83-1.85-1.82-.01-.99.82-1.85,1.81-1.86Z"/><path class="cls-2" d="M319.68,70.38c2.96,3.28,2.96,6.08.06,9.82,2.78,2.94,2.96,6.64-.02,9.84,2.02,2.04,2.77,4.44,1.71,7.18-1.03,2.68-3.13,4.01-6.08,4.25,0,.37,0,.73,0,1.09,0,5.55.02,11.1,0,16.65-.02,5.89-3.92,10.5-9.71,11.49-.8.14-1.63.14-2.44.14-21.28,0-42.56,0-63.85,0-2.03,0-2.46-.42-2.46-2.44,0-2.28.04-4.56-.02-6.84-.03-1.11.41-1.79,1.4-2.23.96-.42,1.91-.9,2.83-1.41,2.57-1.42,3.89-3.62,3.95-6.56.07-3.44.03-6.88.19-10.31.13-2.78.94-5.43,2.17-7.92,1.81-3.64,2.64-7.47,2.56-11.53-.08-4.12.09-8.24-.04-12.36-.17-5.23,5.11-8.6,9.47-6.32.05.03.13.02.32.04.02-.35.05-.7.05-1.05,0-6.98-.03-13.96.01-20.94.03-5.47,3.66-9.96,9-11.17.92-.21,1.89-.29,2.83-.29,10.62-.02,21.25-.02,31.87,0,6.89,0,11.85,4.97,11.86,11.85.01,5.45,0,10.9,0,16.34,0,.37,0,.74,0,1.18,2.89.25,5.05,1.56,6.09,4.28,1.05,2.74.29,5.14-1.76,7.22ZM306.06,80.24c-2.92-4-2.92-6.36,0-9.83-.05-.08-.09-.18-.16-.25-2.49-2.88-2.68-5.45-.63-8.63.09-.14.23-.29.23-.44.02-1.79.01-3.57.01-5.36h-35.88v42.37h35.09c-1.47-3.08-.92-5.74,1.36-8.06-3.26-3.46-2.54-7.34-.02-9.78ZM312.05,101.43c-1.86.14-3.61-.08-5.39-.06-12.73.12-25.47.07-38.2.06-1.62,0-2.15-.53-2.15-2.13,0-14.91,0-29.83,0-44.74,0-1.6.55-2.16,2.14-2.16,12.73,0,25.47,0,38.2,0,1.6,0,2.15.55,2.16,2.14,0,1.51,0,3.03,0,4.53,1.15-.07,2.16-.14,3.2-.2v-12.96h-48.9v61.98h48.95v-6.46ZM263.05,111.29c0,2.84-.04,5.56,0,8.28.07,4.38,3.54,7.95,7.93,7.98,11.03.06,22.06.06,33.08,0,4.5-.02,7.95-3.61,8-8.12.03-2.48,0-4.97,0-7.45,0-.22-.05-.45-.08-.69h-48.95ZM240.16,127.5h22.98c-2.8-2.88-3.41-6.26-3.39-9.97.07-16.1.03-32.21.03-48.31,0-2.24-1.34-3.76-3.28-3.75-1.95.01-3.25,1.51-3.25,3.78,0,3.98-.07,7.97.02,11.95.11,4.76-.91,9.21-2.91,13.53-.91,1.97-1.55,4.18-1.76,6.34-.33,3.37-.18,6.8-.25,10.2-.08,4.32-2,7.54-5.81,9.62-.6.33-1.24.57-1.81.94-.26.17-.53.53-.54.82-.05,1.59-.02,3.19-.02,4.87ZM263.11,42.51h48.89c.59-5.7-3.02-9.73-8.66-9.74-10.52,0-21.03,0-31.55,0-5.65,0-9.22,3.98-8.68,9.74ZM312.88,68.73c.85,0,1.7.03,2.55,0,1.75-.07,3.11-1.41,3.19-3.1.08-1.73-1.21-3.28-2.99-3.39-1.8-.1-3.61-.1-5.41,0-1.79.09-3.09,1.61-3.03,3.35.05,1.73,1.44,3.08,3.25,3.14.82.03,1.63,0,2.45,0ZM312.83,78.54c.85,0,1.7.02,2.55,0,1.8-.06,3.18-1.43,3.23-3.16.04-1.73-1.27-3.25-3.06-3.34-1.76-.09-3.54-.09-5.31,0-1.8.09-3.11,1.58-3.07,3.32.03,1.73,1.41,3.11,3.21,3.18.82.03,1.63,0,2.45,0ZM312.81,88.35c.85,0,1.7.02,2.55,0,1.81-.06,3.2-1.41,3.25-3.14.06-1.73-1.25-3.26-3.03-3.36-1.8-.09-3.61-.1-5.41,0-1.79.1-3.07,1.64-3,3.38.07,1.69,1.43,3.03,3.18,3.1.82.03,1.63,0,2.45,0ZM312.97,98.15c.82,0,1.63.03,2.45,0,1.75-.07,3.11-1.4,3.19-3.09.08-1.73-1.21-3.29-2.99-3.39-1.8-.11-3.61-.1-5.41,0-1.79.09-3.09,1.61-3.04,3.35.05,1.73,1.43,3.09,3.24,3.15.85.03,1.7,0,2.55,0Z"/><path class="cls-2" d="M289.26,76.91c1.02,0,2.04-.01,3.06,0,2.93.05,5.02,2.12,5.04,5.03.02,2.04.01,4.09,0,6.13,0,1.29-.58,1.9-1.86,1.9-5.31.01-10.62.02-15.93,0-1.22,0-1.8-.61-1.82-1.84-.02-2.08-.02-4.15,0-6.23.03-2.86,2.11-4.93,4.98-4.99,1.04-.02,2.09,0,3.16-.18-.3-.11-.61-.21-.9-.34-2.01-.93-3.49-2.42-3.76-4.63-.24-2-.29-4.1.01-6.08.48-3.14,3.58-5.34,6.68-5.1,3.3.25,5.94,2.81,6.13,6.04.08,1.42.08,2.86,0,4.29-.16,2.66-1.75,4.54-4.8,6ZM281.02,86.64h13.07c0-.31,0-.55,0-.78,0-1.33.02-2.66-.01-3.98-.03-1.02-.65-1.67-1.68-1.68-3.23-.03-6.47-.03-9.7,0-1.03.01-1.65.67-1.68,1.68-.03,1.56,0,3.12,0,4.76ZM290.82,68.73c0-.58.02-1.16,0-1.73-.09-1.76-1.52-3.15-3.25-3.16-1.73,0-3.2,1.37-3.27,3.14-.05,1.19-.05,2.38,0,3.57.07,1.73,1.48,3.06,3.19,3.08,1.76.02,3.21-1.3,3.32-3.06.04-.61,0-1.22,0-1.84Z"/><path class="cls-2" d="M272.86,88.41h3.24v3.19h3.23v3.24c-1.75,0-3.51.1-5.24-.07-.45-.04-1.12-.88-1.17-1.4-.15-1.61-.06-3.25-.06-4.96Z"/><path class="cls-2" d="M298.97,88.4h3.28c0,1.73.05,3.42-.02,5.1-.04.78-.6,1.33-1.41,1.36-1.65.05-3.31.01-5.02.01v-3.22h3.18v-3.25Z"/><path class="cls-2" d="M272.86,65.4c0-1.69-.05-3.35.02-5,.04-.89.69-1.42,1.57-1.45,1.59-.05,3.18-.01,4.85-.01v3.23h-3.15v3.23h-3.3Z"/><path class="cls-2" d="M302.26,65.42h-3.24v-3.19h-3.23v-3.25c1.71,0,3.42-.06,5.14.03.78.04,1.3.66,1.32,1.46.05,1.62.01,3.25.01,4.96Z"/><path class="cls-2" d="M287.52,124.3c-2.69-.01-4.86-2.18-4.86-4.87,0-2.71,2.24-4.95,4.94-4.93,2.67.03,4.86,2.23,4.87,4.9,0,2.73-2.19,4.91-4.94,4.9ZM289.19,119.38c-.03-.87-.81-1.62-1.67-1.59-.87.03-1.61.81-1.58,1.68.03.89.76,1.58,1.67,1.56.9-.02,1.61-.76,1.58-1.65Z"/><path class="cls-2" d="M284.34,39.23v-3.13h6.44v3.13h-6.44Z"/><path class="cls-2" d="M672.21,335.94c-1.4,11.05-9.7,15.98-17.7,15.86-8.02-.13-15.81-5.22-17.1-15.86-.32,0-.66,0-1,0-6,0-12.01,0-18.01,0-2.96,0-5.19-1.62-5.89-4.25-.16-.62-.22-1.28-.22-1.92-.01-15.57-.02-31.14-.01-46.7,0-3.69,2.37-6.1,6.06-6.11,24.31-.01,48.63-.01,72.94,0,3.65,0,6.02,2.41,6.03,6.05,0,15.6,0,31.19,0,46.79,0,3.72-2.42,6.12-6.15,6.13-5.95.02-11.89,0-17.84,0-.35,0-.7,0-1.1,0ZM615.1,290.1c0,.4,0,.69,0,.98,0,12.83,0,25.66,0,38.49,0,2.47,1.08,3.55,3.56,3.55,5.68,0,11.36,0,17.04,0q1.66,0,1.93-1.57c1.46-8.36,8.92-14.53,17.37-14.36,8.75.18,16,6.59,17.06,15.13.09.76.41.81,1.01.81,5.97-.01,11.95,0,17.92,0,2.39,0,3.48-1.11,3.48-3.53,0-12.83,0-25.66,0-38.49,0-.32,0-.63,0-.99h-79.38ZM694.47,287.18c0-1.64.07-3.17-.02-4.69-.09-1.59-1.24-2.62-2.84-2.7-.29-.02-.59-.01-.88-.01-23.96,0-47.92,0-71.88,0-.35,0-.71,0-1.06.02-1.31.1-2.46.97-2.57,2.26-.14,1.68-.03,3.39-.03,5.13h79.27ZM654.74,349.09c7.99.06,14.58-6.43,14.67-14.43.09-7.99-6.42-14.68-14.35-14.76-8.22-.08-14.84,6.4-14.89,14.57-.04,8.02,6.47,14.56,14.57,14.61Z"/><path class="cls-2" d="M653.38,303.31c0-2.17,0-4.35,0-6.52,0-1.1.55-1.76,1.42-1.75.87,0,1.4.66,1.4,1.77,0,4.38,0,8.75,0,13.13,0,1.11-.52,1.77-1.38,1.8-.89.03-1.44-.66-1.45-1.81,0-2.2,0-4.41,0-6.61Z"/><path class="cls-2" d="M647.37,303.34c0-1.38-.01-2.76,0-4.15.01-.98.55-1.57,1.4-1.57.85,0,1.41.58,1.42,1.56.02,2.79.02,5.59,0,8.38,0,.98-.57,1.57-1.41,1.58-.84,0-1.39-.59-1.4-1.57-.02-1.41,0-2.82,0-4.23Z"/><path class="cls-2" d="M659.39,303.32c0-1.35-.01-2.7,0-4.06.01-1.04.56-1.64,1.44-1.63.85.01,1.37.59,1.38,1.59.01,2.76.01,5.53,0,8.29,0,1.04-.55,1.65-1.43,1.64-.86-.01-1.38-.63-1.39-1.69-.01-1.38,0-2.76,0-4.15Z"/><path class="cls-2" d="M641.36,303.33c0-.44-.02-.88,0-1.32.05-.79.52-1.23,1.29-1.32.72-.09,1.42.45,1.48,1.21.07.99.08,2,0,2.99-.07.76-.63,1.19-1.4,1.21-.73.02-1.31-.57-1.36-1.35-.03-.47,0-.94,0-1.41Z"/><path class="cls-2" d="M668.23,303.42c0,.44.03.88,0,1.32-.05.78-.63,1.37-1.36,1.35-.77-.02-1.33-.45-1.4-1.21-.09-.99-.08-2,0-2.99.06-.76.77-1.3,1.48-1.21.77.09,1.23.54,1.28,1.32.03.47,0,.94,0,1.41Z"/><path class="cls-2" d="M691.33,283.48c0,.75-.67,1.44-1.39,1.42-.71-.02-1.31-.66-1.32-1.39,0-.75.56-1.37,1.29-1.4.76-.03,1.41.6,1.42,1.37Z"/><path class="cls-2" d="M678,282.1c.76,0,1.37.67,1.34,1.45-.03.72-.67,1.36-1.37,1.35-.74,0-1.35-.68-1.32-1.47.03-.75.62-1.34,1.35-1.33Z"/><path class="cls-2" d="M685.34,283.49c0,.75-.68,1.43-1.4,1.41-.71-.03-1.3-.66-1.3-1.4,0-.76.57-1.36,1.3-1.38.76-.02,1.4.61,1.4,1.38Z"/><path class="cls-2" d="M657.28,328.81c0,1.79,0,3.49,0,5.19,0,2.12.03,4.23-.01,6.35-.05,2.54-2.09,4.57-4.63,4.63-1.03.03-2.06.03-3.09,0-2.5-.08-4.52-2.15-4.61-4.68-.08-2.43,1.75-4.67,4.19-4.86,1.74-.13,3.49.02,5.32.05,0-1.66,0-3.54,0-5.42,0-1.44.01-2.88,0-4.32,0-.74.19-1.34.92-1.65.71-.3,1.26,0,1.73.5,1.15,1.24,2.4,2.25,4.06,2.83,1.71.6,2.77,2.03,3.42,3.71.31.8-.03,1.63-.74,1.93-.75.32-1.56.02-1.85-.84-.42-1.27-1.32-1.96-2.48-2.44-.7-.29-1.39-.62-2.23-1ZM651.09,342.17c.47,0,.94.02,1.41,0,1.09-.06,1.89-.87,1.93-1.92.03-1.01-.68-1.92-1.71-2.01-1.08-.09-2.18-.09-3.26,0-1.04.08-1.75,1.01-1.72,2.01.04,1.05.85,1.85,1.94,1.91.47.03.94,0,1.41,0Z"/><path class="cls-2" d="M1601.02,850.01c-2.74,0-5.34.03-7.93-.03-.61-.01-1.26-.24-1.79-.55-1.22-.72-2.36-1.56-3.56-2.32-.64-.41-.9-.94-.9-1.7.01-6.41.01-12.81,0-19.22,0-.85.34-1.38,1.13-1.69,2.19-.86,4.37-1.76,6.57-2.62.37-.15.8-.21,1.2-.21,1.71-.02,3.42,0,5.27,0v-1.05c0-9.39,0-18.78,0-28.17,0-3.12,1.69-4.8,4.82-4.8,14.73,0,29.46,0,44.2,0,3.18,0,4.84,1.67,4.84,4.87,0,25.09,0,50.19,0,75.28,0,3.2-1.66,4.88-4.84,4.88-14.73,0-29.46,0-44.2,0-3.13,0-4.82-1.69-4.82-4.8,0-5.61,0-11.22,0-16.83,0-.32,0-.64,0-1.05ZM1603.88,833c-.01.28-.03.42-.03.57,0,11.51,0,23.03,0,34.54,0,1.28.52,1.74,1.89,1.74,14.76,0,29.52,0,44.28,0,1.61,0,2.02-.42,2.02-2.06,0-25.09,0-50.18,0-75.28,0-1.62-.41-2.03-2.04-2.03-14.7,0-29.4,0-44.1,0-1.63,0-2.04.41-2.04,2.03,0,9.39,0,18.77,0,28.16v.99c.44,0,.76,0,1.08,0,2.51,0,5.02-.03,7.53.01,3.16.05,5.62,2.65,5.56,5.8-.06,3.02-2.52,5.47-5.58,5.52-2.83.04-5.66,0-8.56,0ZM1593.96,835.9c.33-.07.65-.13.96-.2,1.8-.45,3.07-1.92,3.25-3.76.14-1.43.51-1.77,1.96-1.77,3.98,0,7.97,0,11.95,0,1.81,0,3.09-1.17,3.11-2.81.02-1.67-1.28-2.86-3.14-2.86-3.63,0-7.27.15-10.89-.04-3.77-.2-7.32.34-10.67,2.1-.03.01-.05.03-.08.04-.6.11-.75.46-.75,1.06.03,4.81.14,9.63-.04,14.43-.08,2.17.44,3.61,2.44,4.54.65.3,1.23.58,1.98.56,2.07-.04,4.13-.01,6.2-.02.25,0,.5-.03.73-.05v-14.02c-1.87,3.98-4.34,5.89-7.01,5.45v-2.65Z"/><path class="cls-2" d="M1666.21,816c1.45,0,2.78-.01,4.11,0,.96.01,1.55.53,1.55,1.44.02,4.63,0,9.27,0,13.9,0,.05-.04.1-.08.2h-2.7v-12.66h-2.87v1.07c0,12.96.04,25.91-.05,38.87-.01,1.82-.6,3.64-1.01,5.44-.54,2.36-1.17,4.69-1.74,7.04-.2.81-.6,1.38-1.48,1.36-.83-.01-1.22-.56-1.42-1.33-.9-3.63-1.82-7.26-2.72-10.89-.07-.28-.09-.58-.09-.88,0-15.91,0-31.82,0-47.72,0-2.2,1.48-3.94,3.58-4.3,1.92-.33,3.91.78,4.6,2.66.22.59.29,1.26.31,1.9.05,1.26.01,2.53.01,3.9ZM1663.32,858.47v-39.57h-2.73v39.57h2.73ZM1663.37,815.96c0-1.48.03-2.89-.01-4.3-.02-.78-.65-1.32-1.38-1.33-.73,0-1.38.53-1.41,1.3-.05,1.43-.01,2.86-.01,4.33h2.82ZM1660.95,861.38c.32,1.26.61,2.44.91,3.61.07,0,.14,0,.21,0,.29-1.19.59-2.37.9-3.61h-2.01Z"/><path class="cls-2" d="M1613.78,805.44c0-1.59.02-3.19,0-4.78-.01-.81.33-1.33,1.07-1.65,4.1-1.81,8.18-3.65,12.29-5.42.48-.2,1.19-.2,1.67,0,4.09,1.76,8.14,3.6,12.21,5.39.81.36,1.13.92,1.12,1.8-.03,2.92.02,5.84-.02,8.77-.05,3.73-1.45,6.89-4.22,9.41-2.88,2.62-5.81,5.19-8.72,7.78-.93.83-1.52.82-2.47-.02-2.82-2.51-5.64-5.02-8.47-7.53-3-2.66-4.48-6-4.46-10.01,0-1.24,0-2.48,0-3.72ZM1627.94,824.04c2.83-2.52,5.6-4.92,8.28-7.41,2.04-1.9,3.03-4.32,3.06-7.11.03-2.51-.01-5.02.02-7.52,0-.54-.2-.77-.66-.97-3.37-1.48-6.73-3-10.1-4.47-.33-.14-.82-.15-1.14,0-3.4,1.48-6.79,3.01-10.18,4.51-.43.19-.62.4-.62.9.03,2.6-.02,5.19.03,7.79.04,2.45.84,4.7,2.61,6.4,2.8,2.7,5.76,5.23,8.71,7.89Z"/><path class="cls-2" d="M1646.34,838.72v2.74h-28.26v-2.74h28.26Z"/><path class="cls-2" d="M1646.33,847.24v2.73h-28.23v-2.73h28.23Z"/><path class="cls-2" d="M1618.07,858.45v-2.73h28.23v2.73h-28.23Z"/><path class="cls-2" d="M1618.05,866.97v-2.72h28.26v2.72h-28.26Z"/><path class="cls-2" d="M1609.56,841.46v-2.73h5.57v2.73h-5.57Z"/><path class="cls-2" d="M1615.13,849.97h-5.56v-2.73h5.56v2.73Z"/><path class="cls-2" d="M1615.15,855.74v2.73h-5.56v-2.73h5.56Z"/><path class="cls-2" d="M1609.54,866.96v-2.71h5.59v2.71h-5.59Z"/><path class="cls-2" d="M1634.74,802.59c.88.87,1.52,1.5,2.21,2.18-2.66,2.66-5.3,5.31-7.97,7.94-.63.62-1.37.65-1.98.06-1.35-1.3-2.66-2.66-3.96-3.98.65-.67,1.28-1.31,1.96-2,.92.98,1.84,1.96,2.77,2.95,2.38-2.45,4.65-4.78,6.96-7.15Z"/><path class="cls-2" d="M179.57,446.53c0-13.84,0-27.67,0-41.51.05-.3.09-.6.16-.89.57-2.21.85-4.56,1.79-6.61,4.23-9.17,11.51-14.07,21.63-14.21,12.62-.18,25.24-.05,37.86-.04,4.89,0,9.42,1.32,13.41,4.16,6.76,4.82,10.15,11.45,10.17,19.75.03,12.4.02,24.79-.01,37.19,0,1.6-.09,3.23-.43,4.78-2.12,9.63-7.98,15.78-17.48,18.42-1.24.35-2.55.47-3.82.7h-41.52c-.87-.14-1.75-.23-2.6-.42-9.63-2.17-15.81-7.99-18.45-17.52-.34-1.24-.47-2.54-.7-3.81ZM187.11,425.77c0,6.14,0,12.28,0,18.43,0,1.94.2,3.86.86,5.71,2.41,6.76,8.23,10.82,15.58,10.83,12.34.01,24.68.04,37.03-.03,1.88-.01,3.84-.26,5.62-.86,6.8-2.29,10.85-8.17,10.86-15.52.02-12.37.04-24.73-.03-37.1-.01-1.85-.26-3.79-.85-5.53-2.27-6.76-8.14-10.86-15.43-10.88-12.42-.03-24.85-.02-37.27,0-5.57,0-10.08,2.2-13.39,6.72-2.12,2.89-2.98,6.19-2.97,9.74,0,6.17,0,12.34,0,18.51Z"/><path class="cls-2" d="M243.99,425.78c-.01,12.04-9.93,21.94-21.94,21.9-12.06-.04-21.95-9.96-21.88-21.96.07-12.05,9.88-21.84,21.9-21.86,12.03-.01,21.94,9.89,21.92,21.92ZM222.11,411.42c-7.89-.04-14.34,6.39-14.38,14.32-.04,7.89,6.39,14.34,14.32,14.38,7.89.04,14.34-6.39,14.38-14.32.04-7.89-6.39-14.34-14.33-14.38Z"/><path class="cls-2" d="M244.91,397.5c3.05,0,5.58,2.54,5.54,5.55-.05,3.02-2.53,5.47-5.53,5.47-3.04,0-5.58-2.55-5.54-5.55.04-3.02,2.52-5.47,5.53-5.47Z"/><path class="cls-2" d="M98.96,673.27c13.38,0,26.75,0,40.13,0,.2.21.39.43.59.63,5.3,5.3,10.59,10.6,15.9,15.89.44.44.64.86.64,1.5-.02,17.99-.02,35.97-.02,53.96,0,.3,0,.61,0,.99h-43.44v15.54h-41.58v-41.66h3.49c-.32-.69-.64-1.27-.88-1.88-1.29-3.35-.8-6.41,1.63-9.07,2.3-2.52,5.88-3.32,9.04-2.13,2.15.81,3.7,2.27,4.72,4.33.9,1.82,1.82,3.63,2.78,5.55.98-1.95,1.9-3.77,2.81-5.6.76-1.54,1.83-2.81,3.35-3.62.62-.33.82-.71.82-1.4-.02-10.64-.02-21.27-.01-31.91,0-.37.03-.75.04-1.12ZM112.83,740.91h38.11v-46.83h-15.6v-15.55h-31.16c-.03.12-.06.17-.06.23,0,9.14-.01,18.27.01,27.41,0,.22.32.57.56.65,1.51.5,2.8,1.31,3.91,2.45.26.26.73.45,1.1.45,3,.04,5.99.02,8.99.02.31,0,.62,0,.95,0v5.2h-8.58c-.57,1.79-1.11,3.47-1.67,5.21h10.25v5.24h-6.83v5.18h6.82v5.22h-6.82v5.12ZM76.36,725.4v12.89h12.93v-12.89h-12.93ZM94.62,738.33h12.89v-12.93h-12.89v12.93ZM89.28,756.57v-12.91h-12.92v12.91h12.92ZM94.62,756.55h12.93v-12.87h-12.93v12.87ZM87.75,720.15c-1.23-2.42-2.32-4.74-3.56-6.97-.8-1.45-2.71-1.85-4.18-1.07-1.46.78-2.11,2.54-1.43,4.08.53,1.21,1.15,2.39,1.77,3.55.1.2.43.38.65.39,2.19.03,4.38.02,6.75.02ZM96.16,720.15c2.37,0,4.55,0,6.74-.01.21,0,.52-.14.61-.31.66-1.28,1.36-2.54,1.89-3.87.59-1.47-.16-3.16-1.57-3.88-1.44-.73-3.32-.31-4.1,1.1-1.24,2.23-2.33,4.55-3.56,6.98ZM146.8,688.83c-2.04-2.05-4.16-4.16-6.16-6.16v6.16h6.16Z"/><path class="cls-2" d="M145.75,699.38v5.09h-20.76v-5.09h20.76Z"/><path class="cls-2" d="M145.76,709.82v5.07h-20.77v-5.07h20.77Z"/><path class="cls-2" d="M145.72,725.31h-20.74v-5.12h20.74v5.12Z"/><path class="cls-2" d="M124.98,735.71v-5.09h20.75v5.09h-20.75Z"/><path class="cls-2" d="M109.37,704.47v-5.1h10.28v5.1h-10.28Z"/><path class="cls-2" d="M414.2,279.1c1.82.45,3.44,1.27,4.71,2.68,1.96,2.17,2.75,4.69,2.17,7.66,1.19,0,2.32,0,3.46,0,3.37.03,5.78,2.43,5.82,5.81.01.82.01,1.64,0,2.45-.05,2.47-1.52,4.52-3.88,5.27-.65.21-.77.52-.77,1.11.01,8.12.02,16.24,0,24.36,0,3.3-1.9,5.71-4.94,6.31-.48.09-.99.1-1.48.1-10.49,0-20.98,0-31.47,0-3.97,0-6.45-2.48-6.46-6.45,0-8.09,0-16.18.01-24.27,0-.65-.14-.95-.81-1.17-2.11-.71-3.47-2.21-3.76-4.42-.19-1.46-.19-2.99.02-4.44.38-2.7,2.72-4.61,5.44-4.67,1.22-.02,2.44,0,3.67,0-.63-4.01.81-7.03,4.06-9.17.83-.55,1.86-.8,2.79-1.18.7,0,1.4,0,2.1,0,2.55.62,4.23,2.3,5.57,4.46.82,1.31,1.73,2.56,2.6,3.84.14.2.3.39.49.63,1.02-1.5,2.04-2.9,2.94-4.36,1.35-2.17,3.02-3.9,5.59-4.57h2.1ZM384.88,303.31v.95c0,8.01,0,16.01,0,24.02,0,2.2.89,3.09,3.07,3.09,10.38,0,20.75,0,31.13,0,2.23,0,3.14-.9,3.14-3.13,0-7.98,0-15.96,0-23.93v-1c-.44,0-.76,0-1.08,0-5.79,0-11.57,0-17.36,0-1.19,0-2-.72-2-1.74,0-1.01.81-1.74,1.99-1.76,1.08-.02,2.16,0,3.24,0,5.76,0,11.52,0,17.27,0,1.77,0,2.55-.79,2.56-2.57,0-.53,0-1.05,0-1.58,0-1.94-.76-2.69-2.72-2.69-6.52,0-13.04,0-19.55,0-7.28,0-14.56,0-21.83,0-1.69,0-2.54.85-2.56,2.52,0,.61,0,1.23,0,1.84.02,1.63.87,2.47,2.5,2.48,1.61,0,3.22-.02,4.82.02,1.04.03,1.8.85,1.76,1.81-.04.94-.78,1.65-1.79,1.68-.82.02-1.63,0-2.6,0ZM400.25,289.45c-1.34-1.94-2.54-3.72-3.8-5.46-.56-.78-1.37-1.28-2.36-1.36-2.89-.25-5.7,3.66-4.53,6.31.1.23.45.49.68.49,3.26.03,6.53.02,10,.02ZM406.87,289.34c.23.07.3.11.38.11,3.18,0,6.36,0,9.53.02.5,0,.64-.25.78-.63.74-2.05-.6-4.84-2.83-5.86-1.44-.65-2.82-.5-3.81.73-1.43,1.78-2.68,3.71-4.05,5.63Z"/><path class="cls-2" d="M410.46,347.91c4.93-2.44,9.73-4.85,14.56-7.19.93-.45,1.97-.81,2.99-.91,2.96-.3,5.46,1.27,6.48,3.9,1.02,2.61.18,5.67-2.21,7.43-3.43,2.53-6.93,4.97-10.4,7.45-3.35,2.39-6.7,4.79-10.07,7.16-2.7,1.89-5.59,3.43-9,3.08-2.01-.2-4.01-.75-5.97-1.29-5.12-1.4-10.2-2.94-15.34-4.3-1.73-.46-3.57-.5-5.38-.74-.13.49-.2.83-.3,1.15-.57,1.93-2.26,3.29-4.26,3.32-2.51.04-5.03.05-7.54,0-2.28-.05-4.15-1.85-4.39-4.12-.04-.35-.05-.7-.05-1.05,0-5.11,0-10.23,0-15.34,0-3.38,1.89-5.24,5.29-5.24,2.08,0,4.15,0,6.23,0,1.91,0,3.36.8,4.37,2.44.15.25.57.46.87.46,1.33,0,2.48-.56,3.57-1.28,3.15-2.08,6.63-3.14,10.41-3.16,2.56-.01,5.06.4,7.52,1.1,2.33.67,4.63,1.41,6.98,2.02,2.77.71,4.82,2.17,5.67,5.12ZM376.07,347.67v11.27c2.24.31,4.46.41,6.56.96,5.13,1.33,10.21,2.89,15.32,4.32,1.57.44,3.16.89,4.76,1.11,2.67.36,4.88-.9,6.96-2.36,6.7-4.74,13.38-9.5,20.05-14.27.46-.33.9-.76,1.21-1.24.58-.89.65-1.87.11-2.82-.55-.95-1.41-1.42-2.48-1.32-.68.06-1.38.26-2,.56-5.29,2.59-10.57,5.21-15.84,7.85-.36.18-.7.52-.91.86-1.51,2.58-4.35,3.9-7.25,3.14-3.38-.88-6.74-1.89-10.08-2.92-.48-.15-1.07-.66-1.19-1.12-.13-.53.06-1.27.37-1.75.42-.65,1.19-.64,1.91-.43,3.19.92,6.38,1.86,9.58,2.76,1.72.49,3.38-.4,3.83-2,.47-1.63-.41-3.26-2.12-3.77-2.99-.9-5.98-1.8-8.99-2.59-5.21-1.36-10.18-.95-14.72,2.25-1.47,1.04-3.19,1.4-5.08,1.51ZM372.5,354.16c0-2.63,0-5.25,0-7.88,0-1.18-.39-1.55-1.59-1.56-2.07,0-4.14,0-6.22,0-1.2,0-1.6.38-1.6,1.55,0,5.22,0,10.45,0,15.67,0,1.18.36,1.53,1.51,1.53,2.13,0,4.26,0,6.39,0,1.16,0,1.5-.35,1.51-1.53,0-2.6,0-5.19,0-7.79Z"/><path class="cls-2" d="M368.91,318.89c-1.46,0-2.92,0-4.38,0-1.28,0-2.07-.68-2.08-1.75,0-1.09.75-1.75,2.04-1.76,2.98,0,5.95,0,8.93,0,1.22,0,1.99.69,2,1.72,0,1.02-.79,1.76-1.97,1.78-1.52.02-3.03,0-4.55,0Z"/><path class="cls-2" d="M438.13,318.89c-1.49,0-2.98.01-4.46,0-1.25-.01-2.05-.74-2.03-1.8.02-1.03.81-1.7,2.02-1.7,2.98,0,5.95,0,8.93,0,1.24,0,1.99.65,2.02,1.69.03,1.08-.75,1.79-2.01,1.81-1.49.01-2.97,0-4.46,0Z"/><path class="cls-2" d="M365.65,330.5c-1.01-.01-1.67-.52-1.88-1.3-.21-.77.13-1.57.91-1.98.87-.46,1.77-.88,2.66-1.31,1.73-.84,3.45-1.69,5.18-2.53,1.22-.59,2.22-.38,2.72.58.5.96.09,1.94-1.12,2.53-2.53,1.25-5.07,2.48-7.62,3.71-.33.16-.7.25-.86.3Z"/><path class="cls-2" d="M373.46,311.21c-.16-.06-.52-.15-.86-.31-2.54-1.23-5.08-2.47-7.61-3.72-1.15-.56-1.57-1.51-1.11-2.46.46-.96,1.47-1.25,2.62-.69,2.62,1.27,5.24,2.54,7.85,3.84.86.43,1.23,1.21,1.05,2-.19.82-.88,1.35-1.93,1.35Z"/><path class="cls-2" d="M443.53,328.64c-.19,1.4-1.4,2.27-2.57,1.72-2.83-1.31-5.63-2.7-8.42-4.1-.86-.44-1.11-1.44-.71-2.27.4-.81,1.36-1.24,2.23-.83,2.82,1.34,5.63,2.7,8.4,4.13.46.24.72.89,1.07,1.35Z"/><path class="cls-2" d="M443.52,305.65c-.36.45-.63,1.08-1.1,1.33-2.75,1.42-5.53,2.76-8.33,4.09-.92.44-1.9.02-2.29-.84-.4-.86-.08-1.85.83-2.31,2.72-1.35,5.44-2.7,8.18-3.99,1.26-.6,2.54.24,2.71,1.72Z"/><path class="cls-2" d="M414.05,314c-.03,2.18-.66,3.88-2.03,5.24-2.34,2.32-4.73,4.6-7.11,6.88-.93.89-1.82.86-2.77-.04-2.32-2.22-4.66-4.42-6.93-6.69-2.03-2.03-2.65-4.49-1.86-7.24,1.21-4.21,5.72-5.93,9.45-3.63.54.33.89.37,1.45.02,2.09-1.29,4.31-1.49,6.48-.27,2.29,1.29,3.22,3.43,3.32,5.73ZM403.54,322.57c2.07-2,4.09-3.9,6.03-5.87.44-.45.72-1.14.88-1.77.35-1.37-.34-2.98-1.41-3.61-1.02-.6-2.34-.38-3.48.56-1.78,1.47-2.3,1.47-4.07,0-2.05-1.71-4.43-.87-4.92,1.76-.21,1.13.06,2.19.86,3,1.97,1.98,4.01,3.91,6.1,5.93Z"/><path class="cls-2" d="M395.38,299.81c.96-.01,1.79.82,1.78,1.77-.02.93-.8,1.71-1.74,1.72-.96.01-1.72-.72-1.75-1.68-.03-.99.74-1.8,1.71-1.82Z"/><path class="cls-2" d="M392.13,650.82c-1.59-.16-3.19-.3-4.78-.5-1.25-.16-2.49-.4-3.82-.61.47-2.42.91-4.72,1.36-7.02.74-3.8,1.49-7.59,2.21-11.4.07-.36.06-.8-.1-1.11-.12-.22-.66-.47-.8-.38-.35.22-.75.59-.84.97-.4,1.75-.71,3.52-1.05,5.29-.82,4.21-1.64,8.41-2.46,12.62-.03.16-.08.31-.13.51-1.7-.48-3.29-1.06-4.69-2.1-.93-.69-1.35-1.62-1.34-2.79.09-12.02,3.41-23.06,10.04-33.1.33-.49.67-.69,1.27-.69,5.29.02,10.58.02,15.86,0,.55,0,.9.15,1.22.63,4.98,7.52,8.18,15.73,9.42,24.66.4,2.87.43,5.79.62,8.69.07,1.09-.43,1.91-1.27,2.56-1.38,1.07-3,1.63-4.75,2.16-.27-1.36-.55-2.67-.8-3.99-.91-4.69-1.81-9.39-2.72-14.09-.21-1.07-.58-1.49-1.19-1.37-.64.13-.82.61-.61,1.7,1.16,6.02,2.33,12.05,3.53,18.24-1.25.21-2.49.45-3.73.61-1.59.2-3.18.34-4.77.51h-1.99c0-6.47.02-12.95.03-19.42,0-1.19-.26-1.65-.91-1.65-.66,0-.92.48-.93,1.65,0,6.47-.01,12.95-.02,19.42h-1.83Z"/><path class="cls-2" d="M329.98,603.47c.18-.23.38-.45.54-.7,3.93-6.45,7.88-12.89,11.77-19.36.57-.94,1.28-1.54,2.38-1.85.14.31.29.62.43.94,2.29,5.15,4.59,10.3,6.88,15.45.04.1.06.23.14.3.29.26.62.7.9.68.34-.02.8-.38.95-.72,1.02-2.18,1.98-4.38,2.96-6.58,1.5-3.36,3-6.71,4.51-10.1,1,.32,1.75.8,2.31,1.73,3.92,6.52,7.89,13.01,11.85,19.51.16.26.3.52.49.85-1.64.98-3.24,1.94-4.93,2.95-2.66-4.3-5.28-8.55-8.03-13-.19,1.79-.36,3.33-.52,4.88-.24,2.28-.5,4.57-.68,6.86-.05.64.06,1.32.26,1.93.69,2.07,1.46,4.12,2.19,6.17.07.2.12.41.2.74-.57,0-1.06,0-1.55,0-2.44,0-4.87-.03-7.31.02-.65.01-1.01-.2-1.3-.76-.39-.75-.87-1.46-1.37-2.29-.55.91-1,1.72-1.52,2.49-.17.25-.54.52-.81.52-2.93.04-5.87.02-8.81.02-.1,0-.21-.04-.39-.08.16-.48.29-.92.45-1.35.36-1.02.64-2.07,1.1-3.04,1.14-2.39,1.26-4.84.87-7.42-.4-2.6-.57-5.22-.85-7.84-.02-.19-.07-.37-.15-.76-2.72,4.4-5.34,8.63-7.98,12.91-1.7-1.01-3.34-1.98-4.97-2.95,0-.06,0-.11,0-.17ZM353.02,603.37c.76.01,1.38-.58,1.39-1.33.01-.76-.57-1.37-1.33-1.39-.76-.02-1.37.56-1.38,1.33-.02.77.56,1.38,1.32,1.39ZM353.02,606.15c-.75.02-1.34.64-1.32,1.41.01.76.64,1.37,1.39,1.34.75-.02,1.35-.66,1.33-1.41-.02-.75-.65-1.36-1.39-1.34Z"/><path class="cls-2" d="M343.27,650.82v-34.82c.48,0,.91,0,1.34,0,1.91,0,3.82-.03,5.73.02.66.02,1.09-.19,1.45-.72.36-.52.79-1,1.24-1.57.46.56.93,1.07,1.31,1.63.33.49.73.66,1.31.65,2.05-.03,4.1-.01,6.14-.01.3,0,.6,0,1.03,0v1.12c0,10.88,0,21.75,0,32.63,0,.36.02.72.04,1.08h-6.81c-.24-2.7-.47-5.4-.73-8.09-.58-6.14-1.18-12.27-1.77-18.41-.14-1.47-.29-2.94-.44-4.42-.45,3.05-.75,6.09-1.04,9.13-.54,5.56-1.08,11.12-1.6,16.67-.16,1.7-.27,3.41-.4,5.11h-6.81Z"/><path class="cls-2" d="M329.98,633.71c.74-.26,1.48-.53,2.22-.79.07.06.15.12.22.18,0-.46,0-.91,0-1.37.01-.55.31-.91.85-.94.59-.03.92.34.96.92.03.44,0,.88,0,1.46.48,0,.88,0,1.28,0,.6,0,1.07.23,1.09.87.02.69-.47.94-1.1.96-.38.01-.76,0-1.26,0,0,.48,0,.88,0,1.28-.02.59-.26,1.06-.91,1.06-.65,0-.91-.43-.92-1.04,0-.41,0-.82,0-1.24-.89-.18-1.86.22-2.43-.69,0-.22,0-.44,0-.66Z"/><path class="cls-2" d="M386.06,600.22c-1.04-3.49-2.29-6.99-3.1-10.59-.75-3.31-.11-6.6,1.28-9.71.1-.23.39-.52.61-.53,1.82-.04,3.65-.02,5.59-.02,0,1.01,0,1.97,0,2.93.01,1.35-.3,2.84.16,4.02.45,1.15,1.7,2,2.6,2.97.52.57,1.06,1.12,1.63,1.73,1.42-1.52,2.8-2.98,4.15-4.47.19-.21.24-.6.24-.91.02-2.05.01-4.09.01-6.26,1.23,0,2.4,0,3.58,0h.58c1.93,0,1.94,0,2.59,1.8,1.36,3.8,1.43,7.63.19,11.48-.76,2.34-1.56,4.66-2.32,7-.13.4-.26.66-.77.66-5.51-.02-11.02-.01-16.53-.02-.11,0-.22-.03-.48-.06Z"/><path class="cls-2" d="M373.25,568.74c1.42-2.74,3.47-3.59,5.87-2.46,1.74.82,2.8,2.22,3.2,4.09.41,1.9-.12,3.62-1.05,5.24-1.29,2.23-3.18,3.89-5.23,5.37-.4.29-.81.58-1.24.83-2.35,1.37-1.37,1.45-3.67-.13-2.16-1.48-4.08-3.24-5.49-5.48-1.17-1.85-1.87-3.83-1.43-6.06.32-1.6,1.14-2.87,2.55-3.72,2.06-1.25,4.39-.76,5.79,1.2.24.33.44.69.71,1.11Z"/><path class="cls-2" d="M346.32,580.76c1.54-.92,3.02-1.62,4.82-1.44,1.29.13,2.61.14,3.9,0,1.79-.2,3.21.59,4.76,1.41-2.23,4.99-4.44,9.97-6.74,15.13-2.29-5.15-4.5-10.1-6.73-15.1Z"/><path class="cls-2" d="M403.55,608.65h-17.32v-6.49h17.32v6.49Z"/><path class="cls-2" d="M412.65,606.1c0,.54.02.97,0,1.41-.04.57-.33.95-.94.94-.56-.01-.84-.38-.87-.92-.02-.44,0-.88,0-1.43-.51,0-.94.02-1.38,0-.61-.03-1.03-.34-1-.98.03-.58.44-.86,1.03-.84.41,0,.82,0,1.35,0,0-.55-.02-1.02,0-1.48.03-.55.34-.9.89-.9.55,0,.87.33.91.88.03.46,0,.93,0,1.5.51,0,.92,0,1.32,0,.63-.01,1.05.27,1.05.9s-.45.91-1.06.92c-.41,0-.81,0-1.31,0Z"/><path class="cls-2" d="M531.66,520.64c0,7.64,0,15.27,0,22.91,0,5.55,3.75,9.29,9.32,9.3,7.03,0,14.05,0,21.08,0,1.57,0,2.72.78,3.11,2.07.53,1.78-.71,3.61-2.56,3.78-.24.02-.49.01-.73.01-7.06,0-14.11,0-21.17,0-8.46-.01-14.91-6.46-14.91-14.92,0-15.49-.01-30.98,0-46.46,0-8.4,6.46-14.86,14.86-14.87,11.61-.01,23.22-.01,34.82,0,8.35.01,14.81,6.47,14.83,14.81.02,8.74,0,17.47,0,26.21,0,1.7-1.07,2.95-2.61,3.13-1.45.17-2.87-.84-3.18-2.31-.08-.38-.07-.79-.07-1.18,0-8.61,0-17.23,0-25.84,0-4.19-2.62-7.61-6.58-8.65-.79-.21-1.63-.29-2.44-.29-11.58-.02-23.16-.02-34.73,0-5.2,0-9.02,3.83-9.03,9.03-.01,7.76,0,15.52,0,23.28Z"/><path class="cls-2" d="M599.11,547.84c-.04,3.38-1.23,7.14-3.52,10.54-2.43,3.61-5.62,6.4-9.37,8.58-1.16.67-2.28.72-3.46.03-6.19-3.67-10.87-8.57-12.52-15.81-1.52-6.67.76-12.89,6.04-16.35,4.85-3.17,9.96-3.42,15.1-.75,4.83,2.5,7.77,7.58,7.72,13.76ZM593.24,547.69c.06-7.18-6.74-11.51-12.72-8.57-3.78,1.86-5.59,5.98-4.6,10.56,1.06,4.92,4.13,8.41,8.14,11.18.19.13.66.1.85-.05,1.17-.92,2.39-1.82,3.43-2.88,2.94-2.96,4.78-6.46,4.89-10.25Z"/><path class="cls-2" d="M544.2,502.23c1.96-1.89,3.88-3.72,5.77-5.57.8-.79,1.72-1.16,2.82-.93,2.17.46,3.14,3.1,1.61,4.73-2.67,2.85-5.43,5.62-8.21,8.36-1.16,1.14-2.9,1.06-4.03-.12-1.35-1.41-2.67-2.85-3.94-4.34-1.06-1.23-.9-2.98.27-4.03,1.17-1.05,2.9-1.01,4.06.13.6.59,1.16,1.24,1.65,1.77Z"/><path class="cls-2" d="M544.2,519.84c2-1.94,3.93-3.81,5.86-5.67,1.7-1.64,4.35-.96,4.95,1.27.27.99.08,1.92-.62,2.64-2.7,2.79-5.4,5.56-8.16,8.29-1.19,1.18-2.94,1.11-4.1-.11-1.33-1.39-2.62-2.81-3.88-4.27-1.07-1.24-.95-2.97.2-4.04,1.17-1.1,2.94-1.06,4.12.12.58.58,1.11,1.2,1.63,1.77Z"/><path class="cls-2" d="M544.2,537.44c2.02-1.95,3.94-3.83,5.88-5.69,1.7-1.63,4.36-.92,4.94,1.31.27,1.03.03,1.96-.7,2.71-2.66,2.73-5.33,5.47-8.04,8.15-1.26,1.24-3.02,1.15-4.24-.14-1.26-1.33-2.49-2.69-3.7-4.06-1.16-1.32-1.09-3.08.12-4.18,1.23-1.13,3.01-1.02,4.25.28.52.55,1.02,1.12,1.48,1.62Z"/><path class="cls-2" d="M568.36,500.06c2.35,0,4.7,0,7.05,0,1.85,0,3.18,1.25,3.16,2.95-.01,1.66-1.32,2.9-3.12,2.91-4.76.01-9.53.01-14.29,0-1.79,0-3.1-1.25-3.11-2.91-.01-1.71,1.3-2.94,3.16-2.95,2.38,0,4.76,0,7.15,0Z"/><path class="cls-2" d="M568.33,523.52c-2.35,0-4.7,0-7.05,0-1.88,0-3.2-1.2-3.22-2.9-.02-1.74,1.31-2.96,3.24-2.97,4.7,0,9.41,0,14.11,0,1.86,0,3.18,1.24,3.18,2.94,0,1.7-1.33,2.92-3.19,2.92-2.35,0-4.7,0-7.05,0Z"/><path class="cls-2" d="M561.78,541.15c-.49-.04-.98-.01-1.45-.12-1.44-.33-2.4-1.67-2.27-3.12.13-1.44,1.31-2.58,2.79-2.65.61-.03,1.22-.02,1.83,0,1.7.04,2.96,1.32,2.94,2.97-.02,1.61-1.26,2.84-2.93,2.89-.3,0-.61,0-.91,0,0,.01,0,.02,0,.03Z"/><path class="cls-2" d="M584.43,549.91c-1.59,0-2.91-1.34-2.91-2.93,0-1.64,1.35-2.97,2.99-2.93,1.59.03,2.89,1.38,2.87,2.97-.02,1.59-1.35,2.9-2.95,2.89Z"/><path class="cls-2" d="M487.24,109.25c-2.09-3.48-3.6-7.1-4.52-10.97-3.99-16.89,5.57-34.34,21.94-40.03,13.98-4.86,30.04.89,37.92,13.85,7.1,11.69,7.2,23.68.82,35.75-.24.45-.5.9-.68,1.22,2.36,1.52,4.75,2.9,6.97,4.52,2.93,2.14,5.28,4.85,6.62,8.27,2.38,6.11.9,11.52-3.31,16.28-3.89,4.4-8.93,7.06-14.37,9.01-9.49,3.39-19.31,4.31-29.31,3.65-7.37-.49-14.52-1.96-21.32-4.94-3.78-1.65-7.25-3.77-10.21-6.68-7.16-7.05-7.18-16.43-.05-23.51,2.48-2.47,5.38-4.35,8.5-5.91.29-.15.59-.3,1-.52ZM538.55,90.31c0-3.23-.81-6.98-2.36-10.35-6.91-14.99-25.92-18.63-37.49-7.18-8.37,8.28-9.78,21.1-3.41,31.52,4.69,7.66,11.48,13.07,19.15,17.48.29.17.86.08,1.18-.1,6.09-3.5,11.59-7.73,16.03-13.22,4.16-5.15,6.79-10.92,6.9-18.14ZM492.91,116.82c-2.37,1.42-4.83,2.69-7.04,4.3-1.32.97-2.38,2.4-3.31,3.79-1.02,1.55-1.01,3.36-.03,4.94.76,1.24,1.69,2.43,2.77,3.4,3.02,2.7,6.69,4.28,10.5,5.5,8.05,2.58,16.32,3.24,24.7,2.6,5.87-.45,11.61-1.59,17.05-3.92,3.34-1.43,6.52-3.15,8.83-6.08,2.12-2.7,2.1-5.28-.05-7.95-.62-.77-1.29-1.57-2.11-2.1-2.16-1.39-4.42-2.62-6.64-3.93-.6-.35-1.01-.22-1.5.3-5.1,5.36-11.05,9.59-17.5,13.21-2.57,1.44-4.79,1.43-7.36,0-6.67-3.74-12.79-8.17-18.32-14.05Z"/><path class="cls-2" d="M505.47,89.64c0-5.17,4.24-9.43,9.42-9.46,5.2-.03,9.53,4.31,9.48,9.5-.05,5.19-4.32,9.43-9.48,9.4-5.18-.02-9.43-4.28-9.43-9.45Z"/><path class="cls-2" d="M747.47,116.85c.37,0,.72,0,1.06,0,5.89,0,11.77-.02,17.66,0,5.36.02,9.8,3.49,11,8.61.2.87.28,1.79.29,2.68.03,4.72.03,9.44,0,14.16-.02,6.5-4.91,11.35-11.41,11.36-4.66,0-9.32,0-13.98,0-5.77,0-10.34-3.89-11.26-9.58-.1-.63-.1-1.28-.1-1.92,0-10.89-.01-21.79,0-32.68,0-9.79,6.45-17.57,16.12-19.1,3.08-.49,6.28-.3,9.41-.24,1.81.04,3.07,1.68,2.99,3.46-.07,1.78-1.46,3.14-3.4,3.2-2.07.06-4.14-.02-6.2.03-4.81.11-8.37,2.34-10.75,6.48-.94,1.64-1.42,3.45-1.46,5.34-.06,2.56-.02,5.13-.02,7.69,0,.14.03.28.06.51Z"/><path class="cls-2" d="M699.2,116.85c.4,0,.75,0,1.09,0,5.86,0,11.71-.01,17.57,0,5.77.02,10.27,3.82,11.24,9.49.11.66.12,1.33.12,2,0,4.6.01,9.2,0,13.81-.01,6.69-4.84,11.51-11.53,11.51-4.57,0-9.15,0-13.72,0-6.67,0-11.51-4.84-11.52-11.52,0-10.89-.01-21.79,0-32.68.01-9.8,6.56-17.64,16.23-19.1,3.03-.46,6.16-.28,9.24-.22,1.82.03,3.09,1.62,3.05,3.41-.04,1.83-1.44,3.21-3.42,3.26-2.04.05-4.08,0-6.12.02-5.64.04-10.44,3.74-11.88,9.17-.18.67-.34,1.37-.35,2.06-.04,2.88-.02,5.76-.02,8.78Z"/><path class="cls-2" d="M533.54,826.49c-1.57-.43-3.12-.89-4.46-1.87-4.21-3.06-5.42-8.72-2.79-13.15,2.67-4.5,8.19-6.16,12.91-3.88.17.08.34.17.65.33v-1.02c0-10.68,0-21.36,0-32.03,0-2.06.49-2.71,2.44-3.26,11.29-3.2,22.58-6.39,33.87-9.59,2.09-.59,2.81-.3,3.89,1.52v44.35c-.06.18-.13.35-.17.53-.87,3.81-3.11,6.45-6.86,7.63-3.69,1.15-7.01.3-9.82-2.32-3.17-2.96-3.97-7.66-2.03-11.59,1.91-3.89,6.19-6.12,10.46-5.38,1.17.2,2.29.67,3.42,1.02v-20.29c-10.08,2.85-20.12,5.68-30.2,8.53v1.03c0,9.8,0,19.59,0,29.39,0,4.35-2.68,8.12-6.73,9.51-.67.23-1.38.37-2.07.55h-2.49Z"/><path class="cls-2" d="M514.93,752.13c0,.56,0,.86,0,1.15,0,12.73,0,25.47,0,38.2,0,5.79-4.61,10.25-10.37,10.09-4.95-.14-9.21-4.27-9.54-9.24-.34-5.08,3.26-9.69,8.19-10.53,2.12-.36,4.13-.06,6.05.86.19.09.39.18.69.32v-1.05c0-12.4,0-24.8,0-37.2,0-.3-.01-.61,0-.91.07-1.09.74-1.94,1.78-2.26.99-.3,2.02,0,2.66.87.66.89,1.28,1.81,1.86,2.75,3.24,5.23,7.52,9.49,12.43,13.11,2.54,1.87,4.59,4.04,5.58,7.11,2.53,7.9-3.38,16.18-11.6,16.23-1.56,0-2.69-.98-2.74-2.39-.06-1.45,1.04-2.52,2.64-2.59,3.28-.14,6.03-2.19,6.97-5.22.97-3.09-.06-6.3-2.7-8.27-4.3-3.2-8.34-6.66-11.89-11.04Z"/></svg>