<?xml version="1.0" encoding="UTF-8"?><svg id="Capa_1" xmlns="http://www.w3.org/2000/svg" viewBox="0 0 160.36 160.36"><defs><style>.cls-1{fill:#0094bc;}.cls-1,.cls-2{stroke-width:0px;}.cls-2{fill:#fff;}</style></defs><circle class="cls-1" cx="80.18" cy="80.18" r="80.18"/><path class="cls-2" d="M92.68,75.17h1.06c5.89,0,11.77-.02,17.66,0,5.36.02,9.8,3.49,11,8.61.2.87.28,1.79.29,2.68.03,4.72.03,9.44,0,14.16-.02,6.5-4.91,11.35-11.41,11.36h-13.98c-5.77,0-10.34-3.89-11.26-9.58-.1-.63-.1-1.28-.1-1.92,0-10.89-.01-21.79,0-32.68,0-9.79,6.45-17.57,16.12-19.1,3.08-.49,6.28-.3,9.41-.24,1.81.04,3.07,1.68,2.99,3.46-.07,1.78-1.46,3.14-3.4,3.2-2.07.06-4.14-.02-6.2.03-4.81.11-8.37,2.34-10.75,6.48-.94,1.64-1.42,3.45-1.46,5.34-.06,2.56-.02,5.13-.02,7.69,0,.14.03.28.06.51h-.01Z"/><path class="cls-2" d="M44.41,75.17h1.09c5.86,0,11.71-.01,17.57,0,5.77.02,10.27,3.82,11.24,9.49.11.66.12,1.33.12,2,0,4.6.01,9.2,0,13.81-.01,6.69-4.84,11.51-11.53,11.51h-13.72c-6.67,0-11.51-4.84-11.52-11.52,0-10.89,0-21.79,0-32.68,0-9.8,6.56-17.64,16.23-19.1,3.03-.46,6.16-.28,9.24-.22,1.82.03,3.09,1.62,3.05,3.41-.04,1.83-1.44,3.21-3.42,3.26-2.04.05-4.08,0-6.12.02-5.64.04-10.44,3.74-11.88,9.17-.18.67-.34,1.37-.35,2.06-.04,2.88-.02,5.76-.02,8.78h.02Z"/></svg>