<?xml version="1.0" encoding="UTF-8"?><svg id="Capa_1" xmlns="http://www.w3.org/2000/svg" viewBox="0 0 160.36 160.36"><defs><style>.cls-1{fill:#0094bc;}.cls-1,.cls-2{stroke-width:0px;}.cls-2{fill:#fff;}</style></defs><circle class="cls-1" cx="80.18" cy="80.18" r="80.18"/><path class="cls-2" d="M76.19,122.7c-1.57-.43-3.12-.89-4.46-1.87-4.21-3.06-5.42-8.72-2.79-13.15,2.67-4.5,8.19-6.16,12.91-3.88.17.08.34.17.65.33v-33.05c0-2.06.49-2.71,2.44-3.26,11.29-3.2,22.58-6.39,33.87-9.59,2.09-.59,2.81-.3,3.89,1.52v44.35c-.06.18-.13.35-.17.53-.87,3.81-3.11,6.45-6.86,7.63-3.69,1.15-7.01.3-9.82-2.32-3.17-2.96-3.97-7.66-2.03-11.59,1.91-3.89,6.19-6.12,10.46-5.38,1.17.2,2.29.67,3.42,1.02v-20.29c-10.08,2.85-20.12,5.68-30.2,8.53v30.42c0,4.35-2.68,8.12-6.73,9.51-.67.23-1.38.37-2.07.55h-2.51Z"/><path class="cls-2" d="M57.59,48.34v39.35c0,5.79-4.61,10.25-10.37,10.09-4.95-.14-9.21-4.27-9.54-9.24-.34-5.08,3.26-9.69,8.19-10.53,2.12-.36,4.13-.06,6.05.86.19.09.39.18.69.32v-38.25c0-.3,0-.61,0-.91.07-1.09.74-1.94,1.78-2.26.99-.3,2.02,0,2.66.87.66.89,1.28,1.81,1.86,2.75,3.24,5.23,7.52,9.49,12.43,13.11,2.54,1.87,4.59,4.04,5.58,7.11,2.53,7.9-3.38,16.18-11.6,16.23-1.56,0-2.69-.98-2.74-2.39-.06-1.45,1.04-2.52,2.64-2.59,3.28-.14,6.03-2.19,6.97-5.22.97-3.09-.06-6.3-2.7-8.27-4.3-3.2-8.34-6.66-11.89-11.04h-.01Z"/></svg>