<?xml version="1.0" encoding="UTF-8"?><svg id="Capa_1" xmlns="http://www.w3.org/2000/svg" viewBox="0 0 160.36 160.36"><defs><style>.cls-1{fill:#0094bc;}.cls-1,.cls-2{stroke-width:0px;}.cls-2{fill:#fff;}</style></defs><circle class="cls-1" cx="80.18" cy="80.18" r="80.18"/><path class="cls-2" d="M49.39,75.85v22.91c0,5.55,3.75,9.29,9.32,9.3h21.08c1.57,0,2.72.78,3.11,2.07.53,1.78-.71,3.61-2.56,3.78-.24.02-.49.01-.73.01h-21.17c-8.46-.01-14.91-6.46-14.91-14.92,0-15.49,0-30.98,0-46.46,0-8.4,6.46-14.86,14.86-14.87,11.61,0,23.22,0,34.82,0,8.35,0,14.81,6.47,14.83,14.81.02,8.74,0,17.47,0,26.21,0,1.7-1.07,2.95-2.61,3.13-1.45.17-2.87-.84-3.18-2.31-.08-.38-.07-.79-.07-1.18v-25.84c0-4.19-2.62-7.61-6.58-8.65-.79-.21-1.63-.29-2.44-.29-11.58-.02-23.16-.02-34.73,0-5.2,0-9.02,3.83-9.03,9.03,0,7.76,0,15.52,0,23.28h-.01Z"/><path class="cls-2" d="M116.84,103.05c-.04,3.38-1.23,7.14-3.52,10.54-2.43,3.61-5.62,6.4-9.37,8.58-1.16.67-2.28.72-3.46.03-6.19-3.67-10.87-8.57-12.52-15.81-1.52-6.67.76-12.89,6.04-16.35,4.85-3.17,9.96-3.42,15.1-.75,4.83,2.5,7.77,7.58,7.72,13.76h0ZM110.97,102.9c.06-7.18-6.74-11.51-12.72-8.57-3.78,1.86-5.59,5.98-4.6,10.56,1.06,4.92,4.13,8.41,8.14,11.18.19.13.66.1.85-.05,1.17-.92,2.39-1.82,3.43-2.88,2.94-2.96,4.78-6.46,4.89-10.25h.01Z"/><path class="cls-2" d="M61.93,57.43c1.96-1.89,3.88-3.72,5.77-5.57.8-.79,1.72-1.16,2.82-.93,2.17.46,3.14,3.1,1.61,4.73-2.67,2.85-5.43,5.62-8.21,8.36-1.16,1.14-2.9,1.06-4.03-.12-1.35-1.41-2.67-2.85-3.94-4.34-1.06-1.23-.9-2.98.27-4.03,1.17-1.05,2.9-1.01,4.06.13.6.59,1.16,1.24,1.65,1.77Z"/><path class="cls-2" d="M61.94,75.05c2-1.94,3.93-3.81,5.86-5.67,1.7-1.64,4.35-.96,4.95,1.27.27.99.08,1.92-.62,2.64-2.7,2.79-5.4,5.56-8.16,8.29-1.19,1.18-2.94,1.11-4.1-.11-1.33-1.39-2.62-2.81-3.88-4.27-1.07-1.24-.95-2.97.2-4.04,1.17-1.1,2.94-1.06,4.12.12.58.58,1.11,1.2,1.63,1.77Z"/><path class="cls-2" d="M61.93,92.65c2.02-1.95,3.94-3.83,5.88-5.69,1.7-1.63,4.36-.92,4.94,1.31.27,1.03.03,1.96-.7,2.71-2.66,2.73-5.33,5.47-8.04,8.15-1.26,1.24-3.02,1.15-4.24-.14-1.26-1.33-2.49-2.69-3.7-4.06-1.16-1.32-1.09-3.08.12-4.18,1.23-1.13,3.01-1.02,4.25.28.52.55,1.02,1.12,1.48,1.62h0Z"/><path class="cls-2" d="M86.09,55.26h7.05c1.85,0,3.18,1.25,3.16,2.95-.01,1.66-1.32,2.9-3.12,2.91-4.76,0-9.53,0-14.29,0-1.79,0-3.1-1.25-3.11-2.91-.01-1.71,1.3-2.94,3.16-2.95h7.15Z"/><path class="cls-2" d="M86.06,78.73h-7.05c-1.88,0-3.2-1.2-3.22-2.9-.02-1.74,1.31-2.96,3.24-2.97h14.11c1.86,0,3.18,1.24,3.18,2.94s-1.33,2.92-3.19,2.92h-7.07Z"/><path class="cls-2" d="M79.52,96.35c-.49-.04-.98-.01-1.45-.12-1.44-.33-2.4-1.67-2.27-3.12.13-1.44,1.31-2.58,2.79-2.65.61-.03,1.22-.02,1.83,0,1.7.04,2.96,1.32,2.94,2.97-.02,1.61-1.26,2.84-2.93,2.89h-.91s0,.02,0,.03Z"/><path class="cls-2" d="M102.16,105.12c-1.59,0-2.91-1.34-2.91-2.93s1.35-2.97,2.99-2.93c1.59.03,2.89,1.38,2.87,2.97-.02,1.59-1.35,2.9-2.95,2.89Z"/></svg>