<?xml version="1.0" encoding="UTF-8"?><svg id="Capa_1" xmlns="http://www.w3.org/2000/svg" viewBox="0 0 160.36 160.36"><defs><style>.cls-1{fill:#0094bc;}.cls-1,.cls-2{stroke-width:0px;}.cls-2{fill:#fff;}</style></defs><circle class="cls-1" cx="80.18" cy="80.18" r="80.18"/><path class="cls-2" d="M52.49,85.66c-2.09-3.48-3.6-7.1-4.52-10.97-3.99-16.89,5.57-34.34,21.94-40.03,13.98-4.86,30.04.89,37.92,13.85,7.1,11.69,7.2,23.68.82,35.75-.24.45-.5.9-.68,1.22,2.36,1.52,4.75,2.9,6.97,4.52,2.93,2.14,5.28,4.85,6.62,8.27,2.38,6.11.9,11.52-3.31,16.28-3.89,4.4-8.93,7.06-14.37,9.01-9.49,3.39-19.31,4.31-29.31,3.65-7.37-.49-14.52-1.96-21.32-4.94-3.78-1.65-7.25-3.77-10.21-6.68-7.16-7.05-7.18-16.43-.05-23.51,2.48-2.47,5.38-4.35,8.5-5.91.29-.15.59-.3,1-.52h0ZM103.8,66.72c0-3.23-.81-6.98-2.36-10.35-6.91-14.99-25.92-18.63-37.49-7.18-8.37,8.28-9.78,21.1-3.41,31.52,4.69,7.66,11.48,13.07,19.15,17.48.29.17.86.08,1.18-.1,6.09-3.5,11.59-7.73,16.03-13.22,4.16-5.15,6.79-10.92,6.9-18.14h0ZM58.16,93.23c-2.37,1.42-4.83,2.69-7.04,4.3-1.32.97-2.38,2.4-3.31,3.79-1.02,1.55-1.01,3.36-.03,4.94.76,1.24,1.69,2.43,2.77,3.4,3.02,2.7,6.69,4.28,10.5,5.5,8.05,2.58,16.32,3.24,24.7,2.6,5.87-.45,11.61-1.59,17.05-3.92,3.34-1.43,6.52-3.15,8.83-6.08,2.12-2.7,2.1-5.28-.05-7.95-.62-.77-1.29-1.57-2.11-2.1-2.16-1.39-4.42-2.62-6.64-3.93-.6-.35-1.01-.22-1.5.3-5.1,5.36-11.05,9.59-17.5,13.21-2.57,1.44-4.79,1.43-7.36,0-6.67-3.74-12.79-8.17-18.32-14.05h0Z"/><path class="cls-2" d="M70.72,66.05c0-5.17,4.24-9.43,9.42-9.46,5.2-.03,9.53,4.31,9.48,9.5-.05,5.19-4.32,9.43-9.48,9.4-5.18-.02-9.43-4.28-9.43-9.45h.01Z"/></svg>