<?xml version="1.0" encoding="UTF-8"?><svg id="Capa_1" xmlns="http://www.w3.org/2000/svg" viewBox="0 0 160.36 160.36"><defs><style>.cls-1{fill:#aea4c7;}.cls-1,.cls-2{stroke-width:0px;}.cls-2{fill:#fff;}</style></defs><circle class="cls-1" cx="80.18" cy="80.18" r="80.18"/><path class="cls-2" d="M65.44,35.93c13.38,0,26.75,0,40.13,0,.2.21.39.43.59.63,5.3,5.3,10.59,10.6,15.9,15.89.44.44.64.86.64,1.5-.02,17.99-.02,35.97-.02,53.96,0,.3,0,.61,0,.99h-43.44v15.54h-41.58v-41.66h3.49c-.32-.69-.64-1.27-.88-1.88-1.29-3.35-.8-6.41,1.63-9.07,2.3-2.52,5.88-3.32,9.04-2.13,2.15.81,3.7,2.27,4.72,4.33.9,1.82,1.82,3.63,2.78,5.55.98-1.95,1.9-3.77,2.81-5.6.76-1.54,1.83-2.81,3.35-3.62.62-.33.82-.71.82-1.4-.02-10.64-.02-21.27-.01-31.91,0-.37.03-.75.04-1.12ZM79.31,103.57h38.11v-46.83h-15.6v-15.55h-31.16c-.03.12-.06.17-.06.23,0,9.14-.01,18.27.01,27.41,0,.22.32.57.56.65,1.51.5,2.8,1.31,3.91,2.45.26.26.73.45,1.1.45,3,.04,5.99.02,8.99.02.31,0,.62,0,.95,0v5.2h-8.58c-.57,1.79-1.11,3.47-1.67,5.21h10.25v5.24h-6.83v5.18h6.82v5.22h-6.82v5.12ZM42.84,88.06v12.89h12.93v-12.89h-12.93ZM61.1,100.99h12.89v-12.93h-12.89v12.93ZM55.76,119.23v-12.91h-12.92v12.91h12.92ZM61.09,119.21h12.93v-12.87h-12.93v12.87ZM54.23,82.81c-1.23-2.42-2.32-4.74-3.56-6.97-.8-1.45-2.71-1.85-4.18-1.07-1.46.78-2.11,2.54-1.43,4.08.53,1.21,1.15,2.39,1.77,3.55.1.2.43.38.65.39,2.19.03,4.38.02,6.75.02ZM62.64,82.81c2.37,0,4.55,0,6.74-.01.21,0,.52-.14.61-.31.66-1.28,1.36-2.54,1.89-3.87.59-1.47-.16-3.16-1.57-3.88-1.44-.73-3.32-.31-4.1,1.1-1.24,2.23-2.33,4.55-3.56,6.98ZM113.28,51.49c-2.04-2.05-4.16-4.16-6.16-6.16v6.16h6.16Z"/><path class="cls-2" d="M112.23,62.04v5.09h-20.76v-5.09h20.76Z"/><path class="cls-2" d="M112.24,72.48v5.07h-20.77v-5.07h20.77Z"/><path class="cls-2" d="M112.2,87.97h-20.74v-5.12h20.74v5.12Z"/><path class="cls-2" d="M91.46,98.37v-5.09h20.75v5.09h-20.75Z"/><path class="cls-2" d="M75.85,67.13v-5.1h10.28v5.1h-10.28Z"/></svg>