<?xml version="1.0" encoding="UTF-8"?><svg id="Capa_1" xmlns="http://www.w3.org/2000/svg" viewBox="0 0 160.36 160.36"><defs><style>.cls-1{fill:#0094bc;}.cls-1,.cls-2{stroke-width:0px;}.cls-2{fill:#fff;}</style></defs><circle class="cls-1" cx="80.18" cy="80.18" r="80.18"/><path class="cls-2" d="M92.29,35.3c1.82.45,3.44,1.27,4.71,2.68,1.96,2.17,2.75,4.69,2.17,7.66h3.46c3.37.03,5.78,2.43,5.82,5.81.01.82.01,1.64,0,2.45-.05,2.47-1.52,4.52-3.88,5.27-.65.21-.77.52-.77,1.11.01,8.12.02,16.24,0,24.36,0,3.3-1.9,5.71-4.94,6.31-.48.09-.99.1-1.48.1h-31.47c-3.97,0-6.45-2.48-6.46-6.45,0-8.09,0-16.18,0-24.27,0-.65-.14-.95-.81-1.17-2.11-.71-3.47-2.21-3.76-4.42-.19-1.46-.19-2.99.02-4.44.38-2.7,2.72-4.61,5.44-4.67,1.22-.02,2.44,0,3.67,0-.63-4.01.81-7.03,4.06-9.17.83-.55,1.86-.8,2.79-1.18h2.1c2.55.62,4.23,2.3,5.57,4.46.82,1.31,1.73,2.56,2.6,3.84.14.2.3.39.49.63,1.02-1.5,2.04-2.9,2.94-4.36,1.35-2.17,3.02-3.9,5.59-4.57h2.1l.03.02ZM62.97,59.5v24.97c0,2.2.89,3.09,3.07,3.09h31.13c2.23,0,3.14-.9,3.14-3.13v-24.93h-18.44c-1.19,0-2-.72-2-1.74s.81-1.74,1.99-1.76c1.08-.02,2.16,0,3.24,0h17.27c1.77,0,2.55-.79,2.56-2.57v-1.58c0-1.94-.76-2.69-2.72-2.69h-41.38c-1.69,0-2.54.85-2.56,2.52v1.84c.02,1.63.87,2.47,2.5,2.48,1.61,0,3.22-.02,4.82.02,1.04.03,1.8.85,1.76,1.81-.04.94-.78,1.65-1.79,1.68-.82.02-1.63,0-2.6,0h.01ZM78.34,45.64c-1.34-1.94-2.54-3.72-3.8-5.46-.56-.78-1.37-1.28-2.36-1.36-2.89-.25-5.7,3.66-4.53,6.31.1.23.45.49.68.49,3.26.03,6.53.02,10,.02h.01ZM84.96,45.53c.23.07.3.11.38.11,3.18,0,6.36,0,9.53.02.5,0,.64-.25.78-.63.74-2.05-.6-4.84-2.83-5.86-1.44-.65-2.82-.5-3.81.73-1.43,1.78-2.68,3.71-4.05,5.63Z"/><path class="cls-2" d="M88.55,104.1c4.93-2.44,9.73-4.85,14.56-7.19.93-.45,1.97-.81,2.99-.91,2.96-.3,5.46,1.27,6.48,3.9,1.02,2.61.18,5.67-2.21,7.43-3.43,2.53-6.93,4.97-10.4,7.45-3.35,2.39-6.7,4.79-10.07,7.16-2.7,1.89-5.59,3.43-9,3.08-2.01-.2-4.01-.75-5.97-1.29-5.12-1.4-10.2-2.94-15.34-4.3-1.73-.46-3.57-.5-5.38-.74-.13.49-.2.83-.3,1.15-.57,1.93-2.26,3.29-4.26,3.32-2.51.04-5.03.05-7.54,0-2.28-.05-4.15-1.85-4.39-4.12-.04-.35-.05-.7-.05-1.05v-15.34c0-3.38,1.89-5.24,5.29-5.24h6.23c1.91,0,3.36.8,4.37,2.44.15.25.57.46.87.46,1.33,0,2.48-.56,3.57-1.28,3.15-2.08,6.63-3.14,10.41-3.16,2.56-.01,5.06.4,7.52,1.1,2.33.67,4.63,1.41,6.98,2.02,2.77.71,4.82,2.17,5.67,5.12h-.03ZM54.16,103.86v11.27c2.24.31,4.46.41,6.56.96,5.13,1.33,10.21,2.89,15.32,4.32,1.57.44,3.16.89,4.76,1.11,2.67.36,4.88-.9,6.96-2.36,6.7-4.74,13.38-9.5,20.05-14.27.46-.33.9-.76,1.21-1.24.58-.89.65-1.87.11-2.82-.55-.95-1.41-1.42-2.48-1.32-.68.06-1.38.26-2,.56-5.29,2.59-10.57,5.21-15.84,7.85-.36.18-.7.52-.91.86-1.51,2.58-4.35,3.9-7.25,3.14-3.38-.88-6.74-1.89-10.08-2.92-.48-.15-1.07-.66-1.19-1.12-.13-.53.06-1.27.37-1.75.42-.65,1.19-.64,1.91-.43,3.19.92,6.38,1.86,9.58,2.76,1.72.49,3.38-.4,3.83-2,.47-1.63-.41-3.26-2.12-3.77-2.99-.9-5.98-1.8-8.99-2.59-5.21-1.36-10.18-.95-14.72,2.25-1.47,1.04-3.19,1.4-5.08,1.51ZM50.59,110.35v-7.88c0-1.18-.39-1.55-1.59-1.56h-6.22c-1.2,0-1.6.38-1.6,1.55v15.67c0,1.18.36,1.53,1.51,1.53h6.39c1.16,0,1.5-.35,1.51-1.53v-7.79h0Z"/><path class="cls-2" d="M47,75.08h-4.38c-1.28,0-2.07-.68-2.08-1.75,0-1.09.75-1.75,2.04-1.76h8.93c1.22,0,1.99.69,2,1.72,0,1.02-.79,1.76-1.97,1.78-1.52.02-3.03,0-4.55,0h0Z"/><path class="cls-2" d="M116.22,75.08c-1.49,0-2.98.01-4.46,0-1.25-.01-2.05-.74-2.03-1.8.02-1.03.81-1.7,2.02-1.7h8.93c1.24,0,1.99.65,2.02,1.69.03,1.08-.75,1.79-2.01,1.81-1.49.01-2.97,0-4.46,0h0Z"/><path class="cls-2" d="M43.74,86.69c-1.01-.01-1.67-.52-1.88-1.3-.21-.77.13-1.57.91-1.98.87-.46,1.77-.88,2.66-1.31,1.73-.84,3.45-1.69,5.18-2.53,1.22-.59,2.22-.38,2.72.58s.09,1.94-1.12,2.53c-2.53,1.25-5.07,2.48-7.62,3.71-.33.16-.7.25-.86.3h0Z"/><path class="cls-2" d="M51.55,67.41c-.16-.06-.52-.15-.86-.31-2.54-1.23-5.08-2.47-7.61-3.72-1.15-.56-1.57-1.51-1.11-2.46.46-.96,1.47-1.25,2.62-.69,2.62,1.27,5.24,2.54,7.85,3.84.86.43,1.23,1.21,1.05,2-.19.82-.88,1.35-1.93,1.35h0Z"/><path class="cls-2" d="M121.62,84.83c-.19,1.4-1.4,2.27-2.57,1.72-2.83-1.31-5.63-2.7-8.42-4.1-.86-.44-1.11-1.44-.71-2.27.4-.81,1.36-1.24,2.23-.83,2.82,1.34,5.63,2.7,8.4,4.13.46.24.72.89,1.07,1.35Z"/><path class="cls-2" d="M121.62,61.84c-.36.45-.63,1.08-1.1,1.33-2.75,1.42-5.53,2.76-8.33,4.09-.92.44-1.9.02-2.29-.84-.4-.86-.08-1.85.83-2.31,2.72-1.35,5.44-2.7,8.18-3.99,1.26-.6,2.54.24,2.71,1.72Z"/><path class="cls-2" d="M92.14,70.19c-.03,2.18-.66,3.88-2.03,5.24-2.34,2.32-4.73,4.6-7.11,6.88-.93.89-1.82.86-2.77-.04-2.32-2.22-4.66-4.42-6.93-6.69-2.03-2.03-2.65-4.49-1.86-7.24,1.21-4.21,5.72-5.93,9.45-3.63.54.33.89.37,1.45.02,2.09-1.29,4.31-1.49,6.48-.27,2.29,1.29,3.22,3.43,3.32,5.73ZM81.63,78.76c2.07-2,4.09-3.9,6.03-5.87.44-.45.72-1.14.88-1.77.35-1.37-.34-2.98-1.41-3.61-1.02-.6-2.34-.38-3.48.56-1.78,1.47-2.3,1.47-4.07,0-2.05-1.71-4.43-.87-4.92,1.76-.21,1.13.06,2.19.86,3,1.97,1.98,4.01,3.91,6.1,5.93h.01Z"/><path class="cls-2" d="M73.47,56c.96,0,1.79.82,1.78,1.77-.02.93-.8,1.71-1.74,1.72-.96,0-1.72-.72-1.75-1.68-.03-.99.74-1.8,1.71-1.82h0Z"/></svg>